<svg width="24" height="24" viewBox="0 0 24 24" xmlns="http://www.w3.org/2000/svg"><title>6EB3B3EA-156C-4A43-AB59-078C6FD26680</title><g fill="none" fill-rule="evenodd"><path d="M12 24c6.627 0 12-5.373 12-12S18.627 0 12 0 0 5.373 0 12s5.373 12 12 12z" fill="#2A9F85"/><path d="M17.838 9.241c-.973 0-1.51.718-1.625 1.498h3.263c-.09-.743-.614-1.498-1.638-1.498zm-1.6 2.56c.167.82.845 1.396 1.792 1.396.513 0 1.255-.192 1.69-.64l.831.96c-.754.794-1.88 1.01-2.649 1.01-1.868 0-3.328-1.343-3.328-3.263C14.574 9.472 15.917 8 17.813 8 19.643 8 21 9.408 21 11.264v.537h-4.762zm-4.596 2.712v-4.03c0-.691-.307-1.088-.947-1.088-.576 0-.96.41-1.216.704v4.414H7.815v-4.03c0-.691-.294-1.088-.934-1.088-.576 0-.973.41-1.216.704v4.414H4V8.08h1.665v.816A2.515 2.515 0 0 1 7.585 8c.883 0 1.484.371 1.753 1.126C9.71 8.59 10.4 8 11.4 8c1.203 0 1.906.717 1.906 2.1v4.413h-1.664z" fill="#FFF"/></g></svg>