<svg width="24" height="24" viewBox="0 0 24 24" xmlns="http://www.w3.org/2000/svg"><title>5C1AA1C5-3032-44FB-A44F-FA2C9BCBB931</title><g fill="none" fill-rule="evenodd"><path d="M12 24c6.627 0 12-5.373 12-12S18.627 0 12 0 0 5.373 0 12s5.373 12 12 12z" fill="#3C3F42"/><path d="M9.428 12.765h3.63l-1.85-4.667-1.78 4.667m-.061 4.567V18H5.542c0-.12.014-.236-.002-.348-.037-.255.055-.363.315-.4.354-.048.585-.261.72-.614 1.27-3.304 2.548-6.605 3.834-9.903a.696.696 0 0 0-.01-.582c-.162-.375-.3-.76-.463-1.176.139-.007.241-.016.344-.016.892-.001 1.785.009 2.677-.007.244-.004.352.074.442.303 1.471 3.749 2.956 7.492 4.426 11.241.157.401.392.683.811.743.306.044.4.184.353.47-.014.084-.002.171-.002.282H12.97c-.007-.088-.007-.172-.022-.254-.061-.346.093-.469.421-.45.126.007.257-.025.38-.057.554-.143.772-.46.61-1.01-.212-.715-.484-1.41-.73-2.115-1.535 0-3.029-.002-4.523.008-.075 0-.19.092-.22.168-.25.623-.49 1.248-.72 1.878-.232.638-.066.937.587 1.079.197.042.4.06.614.092" fill="#FFF"/></g></svg>