<svg width="32" height="32" viewBox="0 0 32 32" xmlns="http://www.w3.org/2000/svg"><title>58FB60B6-8D6B-49E8-B094-FDE248E358B5</title><g stroke-width="2" stroke="#235F81" fill="none" fill-rule="evenodd" stroke-linecap="round" stroke-linejoin="round"><path d="M7.729 11.735C7.729 6.36 11.98 2 17.226 2c5.246 0 9.498 4.359 9.498 9.735 0 5.377-4.252 9.736-9.498 9.736"/><path d="M10.739 9.448l-2.803 2.848-2.7-2.848m12.112-2.545v4.096l4.671 4.734m-12.336.887c.056-.013.113-.023.171-.032 1.923-.301 3.108 1.911 3.108 3.61 0 2.019-1.295 3.655-2.893 3.655-1.598 0-2.894-1.636-2.894-3.655 0-1.564.93-3.229 2.508-3.578zm2.212 7.577c.402.491 1.249.737 1.76 1.016.27.148.545.299.766.517.526.52.518 1.439.66 2.125M8.41 23.614c-.026.914-1.303 1.227-1.984 1.599-.27.148-.545.299-.767.517-.526.52-.518 1.439-.659 2.125"/></g></svg>