<svg width="32" height="32" viewBox="0 0 32 32" xmlns="http://www.w3.org/2000/svg"><title>36CC44F1-BCA0-4D31-AF24-D3EFEED9DC8D</title><path d="M5.511 24.984h17.931M4.683 26.823v-3.502m19.587 3.502v-3.502m-1.835-18.25c.108-.023.218-.04.332-.053 2.395-.267 3.841 2.519 3.841 4.637 0 2.575-1.647 4.663-3.68 4.663-2.032 0-3.679-2.088-3.679-4.663 0-1.959 1.18-4.153 3.186-4.584zm2.817 9.686c.511.626 1.587.94 2.237 1.296.344.189.693.381.975.66.668.662.658 1.835.838 2.71m-8.482-5.411c-.033 1.168-1.658 1.565-2.524 2.04-.344.19-.694.382-.975.66-.669.663-.659 2.07-.838 2.946m-10.657-9.61c.07-.016.14-.028.214-.036 1.54-.178 2.47 1.68 2.47 3.092 0 1.716-1.06 3.108-2.366 3.108-1.307 0-2.365-1.392-2.365-3.108 0-1.307.758-2.77 2.047-3.056zm1.811 6.457c.33.417 1.02.626 1.438.863.222.127.446.255.627.44.43.442.424 1.224.539 1.808m-5.453-3.608c-.021.778-1.065 1.044-1.622 1.36-.222.127-.446.255-.627.44-.43.442-.424 1.38-.539 1.964" stroke-width="2" stroke="#235F81" fill="none" stroke-linecap="round" stroke-linejoin="round"/></svg>