<svg width="32" height="32" viewBox="0 0 32 32" xmlns="http://www.w3.org/2000/svg"><title>42A2420C-2D1F-4515-A000-2A76F449DF24</title><g stroke="#235F81" stroke-width="2" fill="none" fill-rule="evenodd" stroke-linecap="round" stroke-linejoin="round"><path d="M11.763 21.85c0 1.077-.843 1.95-1.882 1.95C8.843 23.8 8 22.927 8 21.85s.843-1.95 1.881-1.95c1.04 0 1.882.873 1.882 1.95zm6.457-5.39c0 1.077-.842 1.95-1.882 1.95-1.038 0-1.88-.873-1.88-1.95s.842-1.95 1.88-1.95c1.04 0 1.882.873 1.882 1.95zm6.055 6.274c0 1.077-.843 1.95-1.882 1.95-1.038 0-1.881-.873-1.881-1.95s.843-1.95 1.88-1.95c1.04 0 1.883.873 1.883 1.95zm6.055-12.548c0 1.077-.843 1.95-1.882 1.95s-1.881-.873-1.881-1.95.842-1.95 1.88-1.95c1.04 0 1.883.873 1.883 1.95zm-6.79 10.336l4.193-8.103m-9.239 5.228l2.775 3.3M12.107 19.9l2.464-1.7"/><path d="M26 27.191V29H5V10.378L11.989 3H26v2.204"/><path d="M13.336 3v8.016H6"/></g></svg>