<svg width="24" height="24" viewBox="0 0 24 24" xmlns="http://www.w3.org/2000/svg"><title>839DC53F-951D-42B5-8D5A-A1B2250AEEA3</title><g fill="none" fill-rule="evenodd"><path d="M12 24c6.627 0 12-5.373 12-12S18.627 0 12 0 0 5.373 0 12s5.373 12 12 12z" fill="#000"/><path d="M14.44 10.465c.484-1.3.862-2.371 1.133-3.217.272-.845.407-1.364.407-1.557 0-.207-.045-.367-.135-.482a.452.452 0 0 0-.375-.17c-.202 0-.408.165-.618.497-.21.332-.441.865-.694 1.6l-1.085 3.093 1.367.236zm-1.443 2.879a6.755 6.755 0 0 1-.884-.097 4.74 4.74 0 0 1-.797-.214c.115.229.218.457.309.685.09.229.164.454.222.675.174-.215.356-.409.548-.584.191-.175.392-.33.602-.465zM11.771 10.1L10.6 6.76c-.304-.849-.54-1.403-.705-1.664-.167-.26-.348-.39-.543-.39a.455.455 0 0 0-.369.17c-.094.115-.14.268-.14.46 0 .33.126.9.379 1.713.253.814.633 1.88 1.139 3.2a.36.36 0 0 1 .184-.165.892.892 0 0 1 .326-.049c.043 0 .13.004.26.011.13.007.344.025.64.054zm-1.063 5.17a.45.45 0 0 0 .336-.167.522.522 0 0 0 .152-.358c0-.136-.1-.451-.298-.947a9.448 9.448 0 0 0-.743-1.461c-.217-.357-.43-.627-.64-.809-.21-.181-.409-.272-.597-.272-.152 0-.32.094-.504.283-.185.19-.277.366-.277.53 0 .171.09.428.271.77.18.343.423.707.727 1.092.318.421.618.75.9.985.283.235.507.353.673.353zm-3.254-.258c.1.122.242.3.423.535.477.65.918.974 1.323.974a.58.58 0 0 0 .369-.128c.108-.086.163-.175.163-.268 0-.107-.073-.285-.217-.535a6.915 6.915 0 0 0-.597-.845c-.29-.364-.53-.63-.721-.798-.192-.167-.346-.251-.461-.251-.254 0-.487.134-.7.401-.213.268-.32.584-.32.947 0 .293.074.62.222.98.148.36.364.722.646 1.086.427.564.956.997 1.59 1.3a4.79 4.79 0 0 0 2.098.455c1.41 0 2.591-.519 3.542-1.557.95-1.038 1.427-2.338 1.427-3.901 0-.478-.037-.858-.109-1.14-.072-.282-.191-.487-.358-.615-.297-.243-.873-.46-1.73-.653a12.21 12.21 0 0 0-2.685-.29c-.26 0-.445.044-.553.13-.109.085-.163.231-.163.438 0 .485.275.837.824 1.054.55.218 1.44.327 2.67.327h.444a.3.3 0 0 1 .244.112.685.685 0 0 1 .125.337c-.123.114-.376.245-.76.39-.383.147-.676.292-.878.434a3.863 3.863 0 0 0-1.047 1.119c-.264.432-.396.84-.396 1.225 0 .236.056.52.168.851.112.332.168.537.168.616v.074l-.022.097c-.318-.022-.57-.205-.754-.551-.184-.346-.276-.808-.276-1.386v-.097a.483.483 0 0 1-.347.14 1.01 1.01 0 0 1-.185-.017 1.914 1.914 0 0 1-.195-.048 1.871 1.871 0 0 1 .065.407c0 .264-.105.49-.314.68-.21.189-.46.283-.749.283-.456 0-.918-.22-1.389-.658-.47-.439-.705-.869-.705-1.29 0-.078.01-.148.027-.209a.357.357 0 0 1 .093-.155zm7.767-4.366c.65.121 1.11.392 1.378.813.267.421.401 1.085.401 1.99 0 1.799-.548 3.27-1.644 4.416-1.095 1.145-2.496 1.717-4.203 1.717-.673 0-1.325-.12-1.958-.358a4.86 4.86 0 0 1-1.633-1c-.52-.472-.911-.97-1.171-1.494A3.584 3.584 0 0 1 6 15.121c0-.614.134-1.089.401-1.424.268-.336.69-.564 1.27-.685a5.676 5.676 0 0 1-.24-.632 1.52 1.52 0 0 1-.075-.396c0-.32.172-.649.515-.984.344-.336.667-.503.971-.503.13 0 .268.023.412.07.145.046.311.122.5.23-.558-1.556-.962-2.757-1.216-3.602-.253-.846-.38-1.429-.38-1.75 0-.442.116-.794.348-1.054.231-.26.546-.391.944-.391.68 0 1.54 1.498 2.582 4.495.18.514.318.91.412 1.188.08-.22.191-.535.336-.942 1.041-2.968 1.938-4.452 2.69-4.452.37 0 .664.123.885.37.22.245.33.576.33.99 0 .313-.12.888-.363 1.722-.242.835-.61 1.927-1.101 3.276z" fill="#FFF"/></g></svg>