<svg width="32" height="32" viewBox="0 0 32 32" xmlns="http://www.w3.org/2000/svg"><title>EE2D2DA5-4A97-40DE-A38A-245825671D6A</title><path d="M27.996 12.913c-.288.204-.576.41-.865.613-2.084 1.47-4.162 2.948-6.26 4.4-.395.274-.49.51-.33.973.874 2.516 1.705 5.045 2.55 7.57.05.147.095.295.174.54-.198-.117-.318-.18-.429-.256-2.312-1.599-4.628-3.193-6.928-4.807-.288-.2-.48-.215-.767-.016-2.297 1.592-4.604 3.171-6.907 4.754-.145.1-.293.194-.552.366.225-.683.408-1.251.598-1.816.72-2.15 1.431-4.302 2.171-6.444.125-.363.062-.563-.258-.786C7.9 16.405 5.62 14.79 3.339 13.178A.906.906 0 0 1 3 12.793h2.647c2.126-.004 4.252-.017 6.378-.005.358.003.509-.103.618-.433.858-2.588 1.739-5.17 2.614-7.754.053-.158.12-.312.232-.601.482 1.41.917 2.679 1.35 3.95.499 1.47 1.008 2.94 1.482 4.42.11.342.285.418.629.417 2.85-.003 5.702.01 8.553.02h.468l.025.106z" stroke="#235F81" stroke-width="2" fill="none" stroke-linecap="round" stroke-linejoin="round"/></svg>