<svg width="24" height="24" viewBox="0 0 24 24" xmlns="http://www.w3.org/2000/svg"><title>D227E0BD-485F-44AE-97BB-2C582DA6C7FD</title><g fill="none" fill-rule="evenodd"><path d="M12 24c6.627 0 12-5.373 12-12S18.627 0 12 0 0 5.373 0 12s5.373 12 12 12z" fill="#ED1213"/><path d="M7.93 7.354v5.838c.08 1.549.906 2.732 2.33 2.974h3.256c2.4-.12 3.926-4.12 0-5.144h-2.834c-1.71-.014-1.88-2.036 0-2.07h2.915c2.515.116 4.045 1.803 4.31 3.557.095.555.15 1.707 0 2.391-.362 1.307-1.43 3.145-4.17 3.437h-3.135C8.08 18.235 6.057 16.669 6 14.518V7.364c0-1.832 1.949-1.802 1.93-.01" fill="#FFF"/></g></svg>