<svg width="24" height="24" viewBox="0 0 24 24" xmlns="http://www.w3.org/2000/svg"><title>14029EA3-06A8-4D80-921E-0B88272EF426</title><g fill="none" fill-rule="evenodd"><path d="M12 24c6.627 0 12-5.373 12-12S18.627 0 12 0 0 5.373 0 12s5.373 12 12 12z" fill="#1A70F9"/><path d="M10.76 11.877c.29-.143.51-.303.66-.476.267-.31.4-.722.4-1.233 0-.496-.133-.92-.397-1.276-.44-.58-1.187-.877-2.242-.892H5v8.367h3.898c.44 0 .847-.037 1.223-.113.376-.076.701-.215.977-.42a2.33 2.33 0 0 0 .612-.658 2.38 2.38 0 0 0 .386-1.335c0-.48-.112-.89-.336-1.225-.226-.337-.56-.583-1-.74zM6.725 9.453h1.883c.414 0 .755.044 1.023.13.31.126.464.383.464.774 0 .35-.117.596-.351.734-.236.139-.54.208-.915.208H6.725V9.453zm2.977 5.314c-.208.098-.502.148-.877.148h-2.1v-2.232h2.13c.37.003.66.051.865.142.368.163.55.462.55.898 0 .514-.189.861-.568 1.044zm4.244-6.377h3.707v1.041h-3.707V8.39zm4.485 2.83a2.562 2.562 0 0 0-1.105-.914 3.74 3.74 0 0 0-1.504-.291c-.938 0-1.699.287-2.287.858-.587.573-.881 1.395-.881 2.467 0 1.143.324 1.97.977 2.476.65.509 1.4.762 2.253.762 1.031 0 1.833-.301 2.407-.902.367-.38.574-.753.62-1.119h-1.709a1.359 1.359 0 0 1-.344.426c-.239.189-.549.284-.928.284-.36 0-.668-.078-.923-.234-.421-.249-.642-.684-.67-1.304h4.661c.008-.535-.01-.946-.056-1.229a2.956 2.956 0 0 0-.51-1.28zm-4.053 1.44c.061-.402.21-.721.446-.957.237-.235.57-.353.999-.353.395 0 .725.11.993.333.265.223.415.548.445.978h-2.883z" fill="#FFF"/></g></svg>