<svg width="32" height="32" viewBox="0 0 32 32" xmlns="http://www.w3.org/2000/svg"><title>BAD67851-9FAB-4AC1-AD43-3B93BC822590</title><g fill="none" fill-rule="evenodd"><path d="M11.244 24.75a4.622 4.622 0 0 0-.006.229c0 2.61 2.174 4.728 4.855 4.728 2.68 0 4.854-2.117 4.854-4.728a4.91 4.91 0 0 0-.006-.229" fill="#FEFEFE"/><path d="M11.244 24.75a4.622 4.622 0 0 0-.006.229c0 2.61 2.174 4.728 4.855 4.728 2.68 0 4.854-2.117 4.854-4.728a4.91 4.91 0 0 0-.006-.229" stroke="#235F81" stroke-width="2" stroke-linecap="round" stroke-linejoin="round"/><path d="M19.061 5.977c-.012-1.587-1.336-2.87-2.968-2.87-1.633 0-2.956 1.283-2.97 2.87" fill="#FEFEFE"/><path d="M19.061 5.977c-.012-1.587-1.336-2.87-2.968-2.87-1.633 0-2.956 1.283-2.97 2.87" stroke="#235F81" stroke-width="2" stroke-linecap="round" stroke-linejoin="round"/><path d="M26.983 24.75l-2.86-4.286v-7.5s0-6.642-5.72-7.071h-4.62c-5.72.429-5.72 7.071-5.72 7.071v7.5l-2.86 4.286h21.78z" fill="#F2F8FD"/><path d="M26.983 24.75l-2.86-4.286v-7.5s0-6.642-5.72-7.071h-4.62c-5.72.429-5.72 7.071-5.72 7.071v7.5l-2.86 4.286h21.78z" stroke="#235F81" stroke-width="2" stroke-linecap="round" stroke-linejoin="round"/></g></svg>