<svg width="24" height="24" viewBox="0 0 24 24" xmlns="http://www.w3.org/2000/svg"><title>0DF2AC27-AF0C-41C7-9117-74C97B02A7D8</title><path d="M7.818 3.834a2.09 2.09 0 0 1 .374-.032c1.514 0 2.741 1.598 2.741 3.57 0 1.973-1.227 3.572-2.741 3.572-1.515 0-2.742-1.599-2.742-3.571 0-1.175.436-2.218 1.108-2.869 0 0 .434-.518 1.26-.67zm2.362 7.619c.382.48.925.547 1.41.82.256.144.516.292.725.505.5.507.492 1.406.625 2.076M6.62 10.71c-.024.894-1.235 1.2-1.88 1.562-.257.145-.517.293-.726.506-.498.507-.491 1.406-.625 2.076m13.373-9.249h4.762m-4.762 4.737h4.762m-4.762 4.737h4.762M2.475 19.816h19.049" stroke="#235F81" stroke-width="1.5" fill="none" fill-rule="evenodd" stroke-linecap="round" stroke-linejoin="round"/></svg>