<svg width="24" height="24" viewBox="0 0 24 24" xmlns="http://www.w3.org/2000/svg"><title>2D668267-A36D-4FCB-9E80-B5964884E97A</title><g fill="none" fill-rule="evenodd"><path d="M12 24c6.627 0 12-5.373 12-12S18.627 0 12 0 0 5.373 0 12s5.373 12 12 12z" fill="#205081"/><g fill="#FFF"><path d="M12.314 7.75c-2.228 0-4.024-.375-4.024-.875S10.086 6 12.314 6c2.229 0 4.024.375 4.024.875s-1.795.875-4.024.875m0 6.375c-1.114 0-1.98-.875-1.98-2s.866-2 1.98-2c1.115 0 1.981.875 1.981 2 0 1.063-.866 2-1.98 2m0-9.125C8.847 5 6 5.938 6 7.125c0 .313.743 4.75 1.052 6.5.124.813 2.167 1.938 5.262 1.938 3.096 0 5.076-1.126 5.262-1.938.31-1.75 1.053-6.188 1.053-6.5C18.567 5.937 15.78 5 12.314 5"/><path d="M16.833 15.313c-.123 0-.185.062-.185.062s-1.548 1.25-4.334 1.25c-2.785 0-4.333-1.25-4.333-1.25a.62.62 0 0 0-.186-.063c-.124 0-.247.063-.247.25v.063c.247 1.313.433 2.25.433 2.375.186.938 2.043 1.688 4.271 1.688 2.229 0 4.086-.75 4.272-1.688 0-.125.186-1.063.433-2.375v-.063c.062-.124 0-.25-.124-.25m-4.519-4.249c.548 0 .99.447.99 1 0 .552-.442 1-.99 1a.995.995 0 0 1-.99-1c0-.553.443-1 .99-1"/></g></g></svg>