<svg width="24" height="24" viewBox="0 0 24 24" xmlns="http://www.w3.org/2000/svg"><title>8C79EA60-2351-46C8-ACFC-2DE33A1F1F81</title><g fill="none" fill-rule="evenodd"><path d="M12 24c6.627 0 12-5.373 12-12S18.627 0 12 0 0 5.373 0 12s5.373 12 12 12z" fill="#000"/><g fill="#FFCB45"><path d="M5.063 12.473l-.006-2.752c5.882.307 9.147 4.516 9.227 9.268h-2.756c-.046-4.177-2.886-6.364-6.465-6.516"/><path d="M5.097 7.884l-.08-2.796c9.039.42 13.88 6.979 13.94 13.9l-2.836-.04c.125-4.427-3.151-10.933-11.024-11.064m.845 9.028l.253-2.006 2.88 2.978-1.962.18-.687.612-1.121-1.121z"/></g></g></svg>