<svg width="24" height="24" viewBox="0 0 24 24" xmlns="http://www.w3.org/2000/svg"><title>97A446F1-0750-4778-8C0B-DC92506BEB60</title><g fill="none" fill-rule="evenodd"><path d="M12 24c6.627 0 12-5.373 12-12S18.627 0 12 0 0 5.373 0 12s5.373 12 12 12z" fill="#F57D00"/><path d="M9.148 5.848l3.224-.051c1.477.042 2.297 1.13 2.282 2.37.143 1.466-.254 3.126-2.48 3.092H8.999c-1.4.014-2.517-.84-2.43-2.525-.07-1.396.374-2.906 2.58-2.886" fill="#FFF"/><path d="M8.993 9.785h3.202c.243.005.676-.02.856-.225.174-.197.248-.674.192-1.244l-.008-.084.001-.084c.004-.315-.106-.844-.877-.877l-3.206.05h-.017c-.454-.003-.787.083-.935.244-.163.176-.242.575-.216 1.093l.004.077-.004.078c-.017.326.042.564.175.709.158.171.458.269.826.263h.007zm3.246 2.948l-.075-.001H9.006c-1.161.005-2.189-.406-2.895-1.173-.47-.51-1.013-1.411-.962-2.825-.065-1.678.508-2.67 1.004-3.208.712-.772 1.717-1.156 2.99-1.151l3.238-.052h.03c2.12.062 3.646 1.643 3.661 3.775.124 1.43-.197 2.623-.93 3.454-.478.542-1.368 1.18-2.903 1.18z" fill="#FFF"/><path d="M14.357 17.184h-4.96c-2.068.028-3.063-.951-2.927-3.194.01-2.017 1.135-2.593 2.827-2.628h4.91c3.34-.093 2.975-.126 3.027 2.68-.021 2.039-1.101 3.127-2.877 3.142" fill="#FFF"/><path d="M9.312 12.835c-.776.018-1.077.17-1.187.26-.193.156-.236.577-.237.902l-.003.085c-.04.647.043 1.116.232 1.322.189.206.637.315 1.261.307h4.972c.75-.008 1.444-.217 1.465-1.666-.005-.274-.006-.522-.007-.746 0-.163-.001-.336-.004-.49-.365-.008-.892.007-1.407.021l-.19.005H9.313zm.003 5.823c-1.416 0-2.51-.41-3.253-1.223-.754-.823-1.093-1.999-1.01-3.496.015-1.4.462-2.466 1.328-3.168.71-.576 1.628-.856 2.888-.882h4.921l.132-.004c1.912-.054 2.873-.08 3.622.674.693.698.697 1.594.702 2.727 0 .218.001.459.006.727v.044c-.014 1.375-.422 2.53-1.18 3.341-.76.813-1.833 1.249-3.102 1.26H9.315z" fill="#FFF"/><path fill="#FFF" d="M7.888 14.426l-2.836-.049.099-6.183 2.836.05z"/><path d="M12.154 9.77h-.02l-2.769-.045c-.652-.011-1.173-.57-1.163-1.247.01-.678.547-1.215 1.2-1.209l2.77.046c.653.01 1.173.57 1.163 1.247-.01.672-.537 1.209-1.181 1.209m2.454 5.581H9.069c-.652 0-1.181-.55-1.181-1.228 0-.678.529-1.228 1.181-1.228h5.539c.653 0 1.182.55 1.182 1.228 0 .678-.53 1.228-1.182 1.228" fill="#F67D00"/></g></svg>