<svg width="32" height="32" viewBox="0 0 32 32" xmlns="http://www.w3.org/2000/svg"><title>4411BDD9-6847-4170-B7B2-D73F0BE95569</title><g fill="none" fill-rule="evenodd"><path stroke="#235F81" stroke-width="2" stroke-linecap="round" stroke-linejoin="round" d="M20.181 8.58H1.564v7.11H13.17m-2.125 7.674l3.441 3.18 3.115-3.18h4.683v-2.657"/><path fill="#FFF" d="M10.705 23.364H1.564v-4.01"/><path stroke="#235F81" stroke-width="2" stroke-linecap="round" stroke-linejoin="round" d="M10.705 23.364H1.564v-4.01m9.186-7.213l3.341 3.32-3.225 3.205M23.44 4.748a3.74 3.74 0 0 1 .344-.054c2.48-.266 3.979 2.52 3.979 4.638 0 2.575-1.707 4.663-3.811 4.663-2.105 0-3.811-2.088-3.811-4.663 0-1.96 1.222-4.154 3.299-4.584zm2.918 9.685c.53.627 1.644.94 2.317 1.296.356.19.718.382 1.01.66.692.662.682 1.835.868 2.71m-8.786-5.41c-.034 1.167-1.716 1.565-2.614 2.04-.356.19-.718.382-1.01.66-.692.662-.682 2.07-.868 2.945"/></g></svg>