<svg xmlns="http://www.w3.org/2000/svg" width="10" height="11" viewBox="0 0 10 11"><g fill="none" fill-rule="evenodd"><path d="M0 10.318V.102h9.93v10.216z"/><path fill="#A4A6A9" d="M8.9 2.068A4.904 4.904 0 0 0 5.61.116a4.83 4.83 0 0 0-3.638.99l-.379-.39C1.484.607 1.385.644 1.371.8l-.124 1.395c-.014.156.099.273.251.258l1.356-.126c.152-.014.188-.116.08-.227l-.392-.404A4.048 4.048 0 0 1 5.505.93a4.115 4.115 0 0 1 2.763 1.638c.678.908.972 2.033.827 3.168a4.32 4.32 0 0 1-.907 2.162c-.2.25-.429.478-.685.68a4.05 4.05 0 0 1-3.079.851 4.115 4.115 0 0 1-2.762-1.637 4.354 4.354 0 0 1-.837-3.09.408.408 0 0 0-.352-.454.402.402 0 0 0-.442.363 5.188 5.188 0 0 0 .998 3.681 4.904 4.904 0 0 0 3.292 1.952A4.832 4.832 0 0 0 7.99 9.229c.304-.24.578-.513.816-.81a5.147 5.147 0 0 0 1.081-2.576 5.182 5.182 0 0 0-.986-3.775" mask="url(#b)" transform="translate(0 .03)"/><path fill="#A4A6A9" d="M4.77 1.885a.328.328 0 0 0-.323.332V5.53l2.945 1.567a.313.313 0 0 0 .148.037c.117 0 .23-.066.288-.18a.337.337 0 0 0-.14-.448l-2.595-1.38v-2.91a.328.328 0 0 0-.323-.332"/></g></svg>