<svg width="24" height="24" viewBox="0 0 24 24" xmlns="http://www.w3.org/2000/svg"><title>85D958E5-87EF-47FC-925C-FEE59F60C12B</title><g fill="none" fill-rule="evenodd"><path d="M12 24c6.627 0 12-5.373 12-12S18.627 0 12 0 0 5.373 0 12s5.373 12 12 12z" fill="#333"/><path d="M9.817 10.085a3.034 3.034 0 0 0-.396-.982 2.694 2.694 0 0 0-.673-.728 3.011 3.011 0 0 0-.874-.447 3.25 3.25 0 0 0-1.001-.153c-.637 0-1.184.12-1.641.36a3.25 3.25 0 0 0-1.123.955 4.098 4.098 0 0 0-.645 1.342 5.722 5.722 0 0 0 0 3.065 4.1 4.1 0 0 0 .645 1.349c.292.396.666.714 1.123.955.457.24 1.004.36 1.64.36.449 0 .852-.08 1.21-.24.36-.16.669-.379.929-.654.26-.276.47-.6.632-.969a4.05 4.05 0 0 0 .31-1.195h.914a5.12 5.12 0 0 1-.417 1.59 3.903 3.903 0 0 1-.834 1.201c-.34.33-.742.583-1.203.761a4.245 4.245 0 0 1-1.54.267c-.753 0-1.415-.135-1.984-.407a4.11 4.11 0 0 1-1.418-1.088 4.616 4.616 0 0 1-.847-1.576 6.219 6.219 0 0 1-.283-1.883c0-.659.094-1.286.283-1.883a4.69 4.69 0 0 1 .847-1.583c.376-.458.85-.823 1.418-1.095C5.46 7.136 6.12 7 6.873 7c.457 0 .903.067 1.338.2.435.134.83.332 1.183.595.354.262.65.585.888.968.238.382.388.823.45 1.322h-.915z" fill="#D8D8D8"/><path d="M12.133 16.535V7H16.8c.86 0 1.55.196 2.07.588.52.391.78.983.78 1.776 0 .48-.118.892-.356 1.235-.237.343-.576.607-1.015.794v.027c.592.125 1.04.403 1.345.835.305.431.457.972.457 1.622 0 .374-.067.723-.202 1.048a2.138 2.138 0 0 1-.632.841c-.287.236-.654.423-1.102.561-.449.138-.982.207-1.6.207h-4.412zm1.681-1.362h2.972c.511 0 .908-.131 1.19-.394.283-.263.424-.634.424-1.115 0-.472-.141-.835-.424-1.089-.282-.253-.679-.38-1.19-.38h-2.972v2.978zm0-4.18h2.744c.403 0 .74-.114 1.008-.34.27-.228.404-.555.404-.982 0-.481-.121-.82-.363-1.015-.242-.196-.592-.294-1.05-.294h-2.743v2.63z" fill="#1F92A8"/></g></svg>