<svg width="24" height="24" viewBox="0 0 24 24" xmlns="http://www.w3.org/2000/svg"><title>11D4B15D-46DD-41ED-BB1F-9895D794445B</title><g fill="none" fill-rule="evenodd"><path d="M12 24c6.627 0 12-5.373 12-12S18.627 0 12 0 0 5.373 0 12s5.373 12 12 12z" fill="#333"/><path d="M5.405 17.942h3.24V9.967h-3.24zm3.38-11.04c0 1.03-.84 1.867-1.875 1.867a1.871 1.871 0 0 1-1.875-1.867A1.87 1.87 0 0 1 6.91 5.035a1.87 1.87 0 0 1 1.875 1.867zm8.495 2.719v4.449c-.046 1.29-1.435 1.337-1.435 1.337h-2.546v-7.63h2.546c1.62.047 1.435 1.844 1.435 1.844zm-1.157-4.264h-5.695v12.447h5.556s3.981.138 3.981-3.503V9.46s.324-3.827-3.842-4.104z" fill="#FFF"/></g></svg>