<svg width="68" height="68" viewBox="0 0 68 68" xmlns="http://www.w3.org/2000/svg"><title>33F51764-F72C-4CF9-AFD7-7AF6FB739826</title><defs><linearGradient x1="50%" y1="64.71%" x2="50%" y2="0%" id="a"><stop stop-color="#79BDE6" stop-opacity="0" offset="0%"/><stop stop-color="#79BDE6" offset="100%"/></linearGradient></defs><g fill="none" fill-rule="evenodd"><path d="M33.82 66.612c-17.911 0-32.432-14.521-32.432-32.433 0-17.911 14.521-32.432 32.433-32.432 17.911 0 32.432 14.52 32.432 32.432 0 17.912-14.52 32.433-32.432 32.433z" stroke="#FFF" stroke-width="2" fill="#60A8D9"/><path d="M32.82 65.612C14.91 65.612.389 51.09.389 33.179.388 15.268 14.91.747 32.821.747s32.432 14.52 32.432 32.432c0 17.912-14.52 32.433-32.432 32.433z" fill="url(#a)" transform="translate(1 1)"/><path d="M33.82 66.612c-17.911 0-32.432-14.521-32.432-32.433 0-17.911 14.521-32.432 32.433-32.432 17.911 0 32.432 14.52 32.432 32.432 0 17.912-14.52 32.433-32.432 32.433z" stroke="#FFF" stroke-width="1.5"/><path d="M58 51.572a11.24 11.24 0 0 0-1.159-5.123c-.61-1.248-1.445-2.274-2.838-2.71-.24-.075-.47-.183-.705-.277-3.151-1.272-6.271-2.627-9.478-3.757-.852-.3-1.54-.75-2.096-1.452-.404-.512-.882-.96-1.479-1.25-.158-.078-.206-.196-.225-.338-.125-.94-.166-1.869.301-2.747.136-.253.238-.525.347-.792.35-.856.584-1.748.774-2.66.494.293.675.26.98-.218.494-.773.747-1.644.901-2.532.145-.833.308-1.651.617-2.441.332-.847-.027-1.348-.927-1.317l.073-.272c.67-2.468.648-4.894-.393-7.274-.767-1.754-1.834-3.241-3.53-4.208-1.267-.723-2.665-1.016-4.08-1.251a25.5 25.5 0 0 0-3.27-.31c-3.564-.2-4.138 2.156-4.138 2.156-3.255.542-3.536 3.322-3.536 3.322-.743 2.663-.345 5.264.436 7.844-.644.06-.91.239-.97.715-.079.612-.13 1.248.131 1.818.408.891.614 1.842.934 2.759.15.432.317.86.642 1.198.153.159.337.335.563.24.224-.094.227-.001.26.165a11.38 11.38 0 0 0 1.202 3.269c.069.123.136.266.144.402a13.76 13.76 0 0 1-.08 2.526c-.026.193-.116.31-.295.403-.676.357-1.283.806-1.778 1.398a2.968 2.968 0 0 1-1.12.833c-2.306.991-4.628 1.946-7.014 2.735-1.493.493-3.009.925-4.385 1.723-1.129.655-2.09 1.467-2.638 2.683-.495 1.099-.71 2.274-.818 3.46-.072.78-.118 2.468-.147 4.52 5.584 7.18 14.306 11.8 24.107 11.8 10.136 0 19.118-4.94 24.67-12.546.005-1.142.011-2.033.016-2.494z" stroke="#FFF" stroke-width="2" fill="#DBEBF6"/></g></svg>