<svg width="24" height="24" viewBox="0 0 24 24" xmlns="http://www.w3.org/2000/svg"><title>4334B13D-6A59-4A3F-8EF5-D7037CCC4FC0</title><g fill="none" fill-rule="evenodd"><circle fill="#2A2A2A" cx="12" cy="12" r="12"/><path d="M17.33 10.663h1v3.008h-1v-3.008zm-4.995 0h1.001v3.008h-1.001v-3.008zm-7.332 0h1.001v3.008H5.003v-3.008zm10.67-1.337v5.682h2.658v.668h-2.658V17H20V9.326h-4.327zm-5.008 0v5.682h2.671v.668h-2.67V17h4.34V9.326h-4.34zm-2.337 5.682h1.67V9.326h-1.67v5.682zm0-6.35h1.67V7h-1.67v1.658zM6.004 7v2.326h-2.67v5.682H7.66V7H6.004z" fill="#FFF"/></g></svg>