<svg width="24" height="24" viewBox="0 0 24 24" xmlns="http://www.w3.org/2000/svg"><title>CF5A3966-6263-4B7F-8042-B1E513CC3909</title><g fill="none" fill-rule="evenodd"><circle fill="#43B0F4" cx="12" cy="12" r="12"/><g transform="translate(3 18.255)"><mask id="a" fill="#fff"><use/></mask><path d="M0 .563S5.394 1.567 8.97.8c3.575-.768 5.818-.887 8-.532 0 0-4.273.443-7.122 1.24C7 2.306 2.152 2.04 0 .563" fill="#FBA019" mask="url(#a)"/></g><path d="M11.28 15.628c-1.842 0-3.34-1.461-3.34-3.257s1.498-3.257 3.34-3.257c1.842 0 3.341 1.461 3.341 3.257s-1.499 3.257-3.34 3.257zM15.121 3v5.63a5.486 5.486 0 0 0-3.84-1.554c-2.996 0-5.433 2.376-5.433 5.295 0 2.92 2.437 5.295 5.432 5.295a5.486 5.486 0 0 0 3.841-1.555v1.023h2.091V3h-2.09z" fill="#FFF"/></g></svg>