<svg width="24" height="24" viewBox="0 0 24 24" xmlns="http://www.w3.org/2000/svg"><title>CA087D89-0FB5-45D4-9953-425FDAC46547</title><g fill="none" fill-rule="evenodd"><path d="M12 24c6.627 0 12-5.373 12-12S18.627 0 12 0 0 5.373 0 12s5.373 12 12 12z" fill="#2E9FFF"/><path d="M12.815 13.259h-.818V9.505h.818c1.201 0 2 .685 2 1.867v.02c0 1.192-.799 1.867-2 1.867m4.06-1.899v-.02c0-2.13-1.501-3.65-4.091-3.65H9.987v7.382h2.755c2.61 0 4.134-1.582 4.134-3.712m-3.999 7.403a7.259 7.259 0 0 1-4.735-1.752L5 17.44l1.214-2.996a7.399 7.399 0 0 1-.66-3.063C5.554 7.305 8.833 4 12.877 4c4.045 0 7.323 3.305 7.323 7.381 0 4.077-3.278 7.382-7.323 7.382" fill="#FFF"/></g></svg>