<svg width="24" height="24" viewBox="0 0 24 24" xmlns="http://www.w3.org/2000/svg"><title>59205B61-ABDF-48EA-8B80-6005C962CAF0</title><path d="M5.47 6.405c.766-1.485 2.393-2.23 4.28-2.23 2.098 0 3.875 1.265 4.509 3.018a3.368 3.368 0 0 1 1.221-.228c1.727 0 3.13 1.285 3.17 2.885 1.594.104 2.807.605 2.904 2.37.087 1.594-1.024 2.398-2.46 2.87H5.256c-1.996 0-3.614-1.506-3.614-3.364 0-.976.448-1.851 1.16-2.465.39-.417.933-.705 1.55-.79.21-.051.43-.084.655-.099h.569m5.559 3.078v7.591m-1.998-1.019l2.069 2.249 2.07-2.038" stroke="#235F81" stroke-width="1.343" fill="none" stroke-linecap="round" stroke-linejoin="round"/></svg>