<svg width="24" height="24" viewBox="0 0 24 24" xmlns="http://www.w3.org/2000/svg"><title>87E95E5F-427C-4823-9355-115D312FCFF1</title><g fill="none" fill-rule="evenodd"><path d="M12 24c6.627 0 12-5.373 12-12S18.627 0 12 0 0 5.373 0 12s5.373 12 12 12z" fill="#FE9A00"/><g transform="translate(5 7.653)"><mask id="a" fill="#fff"><use/></mask><path d="M9.908 2.699c.116.817-.021 1.585-.49 2.287a3.37 3.37 0 0 1-.917.916c-.045.03-.126.044-.11.115.011.055.083.047.13.063 2.236.741 3.716 2.202 4.473 4.349.116.328.112.329-.255.329H.247c-.277 0-.285-.003-.199-.25.767-2.21 2.266-3.723 4.59-4.449.047-.014.093-.033.138-.05-.003-.083-.071-.096-.115-.127-1.561-1.108-1.88-3.064-.746-4.57.035-.046.064-.096.096-.143.395-.387.822-.726 1.36-.922 1.968-.72 4.077.385 4.515 2.37.006.027.014.054.022.082" fill="#FEFDFC" mask="url(#a)"/></g><g transform="translate(12.457 2.018)"><mask id="b" fill="#fff"><use/></mask><path d="M.611.025c3.483.021 6.484 2.416 7.173 5.72.089.424.142.856.141 1.291 0 .257-.004.263-.278.237-.295-.027-.588-.071-.883-.082-.19-.007-.25-.08-.268-.254a5.765 5.765 0 0 0-.731-2.328c-.791-1.367-1.952-2.314-3.498-2.815a5.988 5.988 0 0 0-1.87-.302c-.232 0-.332-.108-.346-.298C.026.861.024.527.014.193.01.078.072.023.19.024h.421" fill="#FEFDFC" mask="url(#b)"/></g><path d="M13.167 4.347c2.615.086 4.792 2.146 4.878 4.616.01.295.01.294-.3.27-.375-.028-.75-.065-1.127-.077-.182-.005-.228-.074-.253-.235-.203-1.323-.948-2.24-2.25-2.723a3.016 3.016 0 0 0-1.04-.189c-.169 0-.25-.065-.255-.22-.015-.434-.025-.867-.04-1.3-.003-.1.039-.146.143-.142.081.003.163 0 .244 0" fill="#FEFDFC"/></g></svg>