<svg width="24" height="24" viewBox="0 0 24 24" xmlns="http://www.w3.org/2000/svg"><title>5C1B6BB2-4B9F-4376-A4AE-50D61DD24A84</title><g fill="none" fill-rule="evenodd"><circle fill="#E64C87" cx="12" cy="12" r="12"/><path d="M18.45 9.19a6.893 6.893 0 0 0-2.535-3.018A7.04 7.04 0 0 0 12 5a7.16 7.16 0 0 0-2.725.54A7.077 7.077 0 0 0 7.05 7.01a6.916 6.916 0 0 0-1.5 2.18 6.746 6.746 0 0 0 .646 6.51c.25.363.537.704.854 1.015a7.045 7.045 0 0 0 3.54 1.868 7.105 7.105 0 0 0 2.82 0 6.997 6.997 0 0 0 2.504-1.03 7.011 7.011 0 0 0 1.89-1.852A6.747 6.747 0 0 0 19 11.86c0-.464-.048-.929-.142-1.38a6.773 6.773 0 0 0-.409-1.29zM12 6.003c1.513 0 2.896.554 3.948 1.463-.015.022-.865 1.293-3.123 2.121a29.722 29.722 0 0 0-2.234-3.418 6.09 6.09 0 0 1 1.41-.166zm-1.432.17l-.001.002-.018.003.02-.005zm-1.119.39a35.09 35.09 0 0 1 2.22 3.377c-2.87.748-5.362.718-5.52.716.389-1.816 1.632-3.32 3.3-4.092zm-1.896 9.216a5.773 5.773 0 0 1-1.531-3.916c0-.062.003-.124.005-.185.106.002 3.06.068 6.137-.835.172.328.335.663.485.997a4.124 4.124 0 0 0-.236.07c-3.226 1.021-4.862 3.866-4.862 3.866l.002.003zM12 17.723a6.028 6.028 0 0 1-3.732-1.284l-.077-.06c.03.025.056.044.077.06l.057.043s1.146-2.45 4.692-3.66c.013-.006.027-.009.04-.013a23.991 23.991 0 0 1 1.277 4.45 6.06 6.06 0 0 1-2.334.464zm3.341-1a24.97 24.97 0 0 0-1.164-4.186 8.838 8.838 0 0 1 3.726.256 5.853 5.853 0 0 1-2.562 3.93zm-1.528-5.111c-.043-.1-.085-.201-.13-.302a17.47 17.47 0 0 0-.397-.85c2.361-.945 3.32-2.303 3.33-2.32a5.77 5.77 0 0 1 1.36 3.664c-.086-.019-2.109-.446-4.163-.192z" fill="#FFF"/></g></svg>