<svg width="36" height="38" viewBox="0 0 36 38" xmlns="http://www.w3.org/2000/svg"><title>Group 3</title><g fill="none" fill-rule="evenodd" stroke-linecap="round"><path d="M17.604 36.81S3.217 28.19 1 10.457m16.604-9.361S14.051 5.956 1 10.456M17.5 36.81s14.529-8.62 16.767-26.354m-16.705-9.36s3.553 4.86 16.604 9.36" stroke="#235F81" stroke-width="2" stroke-linejoin="round"/><path d="M20.983 15.458c0-1.809-1.563-3.275-3.491-3.275-1.929 0-3.492 1.466-3.492 3.275s1.563 3.275 3.492 3.275m0 6.55v2.183m0-17.466v2.183M14 22.008c0 1.809 1.563 3.275 3.492 3.275 1.928 0 3.491-1.466 3.491-3.275 0-1.81-1.563-3.275-3.491-3.275" stroke="#235F80" stroke-width="2.5"/></g></svg>