<svg width="32" height="32" viewBox="0 0 32 32" xmlns="http://www.w3.org/2000/svg"><title>29612783-DFB7-4826-8B54-0C6172CB8DC1</title><g stroke-width="2" stroke="#235F81" fill="none" fill-rule="evenodd" stroke-linecap="round" stroke-linejoin="round"><path d="M28.928 11.383c0-.905-.18-1.77-.505-2.56a6.829 6.829 0 0 0-6.321-4.204 6.828 6.828 0 0 0-5.856 3.3 6.829 6.829 0 0 0-5.856-3.3c-3.77 0-6.827 3.029-6.827 6.764 0 2.751 2.128 5.968 3.681 8.23 2.118 3.09 4.822 5.759 7.826 8.003h1.547c.818-.611 1.26-.677 2.03-1.344M16 7.92v.817"/><path d="M24.488 27.302a10.652 10.652 0 0 0 3.583-7.98 10.64 10.64 0 0 0-3.077-7.5m-3.379 12.187a6.939 6.939 0 0 0 1.814-4.688 6.946 6.946 0 0 0-2.278-5.151m-3.256 7.657c.548-.508.89-1.235.89-2.041 0-.776-.316-1.477-.827-1.982"/></g></svg>