<svg width="25" height="24" viewBox="0 0 25 24" xmlns="http://www.w3.org/2000/svg"><title>icn-IRM</title><g stroke="#3676A2" stroke-width="1.5" fill="none" fill-rule="evenodd" stroke-linecap="round" stroke-linejoin="round"><path d="M21.944 8.185C21.944 4.217 19.018 1 15.41 1m4.463 5.496L21.8 8.6l1.857-2.103m-20.47 8.121c0 3.968 2.925 7.184 6.534 7.184"/><path d="M5.258 16.306L3.33 14.204l-1.857 2.102m8.653-13.738c-3.968 0-7.185 2.926-7.185 6.534"/><path d="M8.437 4.64l2.103-1.93L8.437.854m6.98 20.7c3.968 0 7.185-2.926 7.185-6.534m-5.497 4.463l-2.102 1.928 2.102 1.857M12.84 5.461a1.97 1.97 0 0 1 .371-.034c1.506 0 2.726 1.652 2.726 3.688 0 2.037-1.22 3.688-2.726 3.688-1.505 0-2.725-1.651-2.725-3.688 0-1.213.433-2.29 1.102-2.962 0 0 .43-.535 1.252-.692zm1.572 7.203c.38.495.92.564 1.401.846.255.149.514.302.722.522.495.523.488 1.451.62 2.144"/><path d="M11.455 12.06c-.024.924-1.227 1.239-1.87 1.614-.254.15-.512.302-.721.522-.496.524-.488 1.452-.621 2.144"/></g></svg>