<svg width="28" height="23" viewBox="0 0 28 23" xmlns="http://www.w3.org/2000/svg"><title>icn-network</title><g stroke-width="2" stroke="#3676A2" fill="none" fill-rule="evenodd"><path d="M14.705 14.862a4.835 4.835 0 0 0 .477-6.822m2.704 10.233c4.03-3.504 4.458-9.613.954-13.644m2.226 17.054c6.047-5.256 6.687-14.418 1.431-20.464M4.371 9.752s-2.13 1.98-2.506 5.275c-.032.272-.048 3.9-.048 4.165h9.8c0-.273-.019-3.91-.052-4.19-.386-3.29-2.503-5.25-2.503-5.25" stroke-linecap="round" stroke-linejoin="round"/><path d="M3.042 5.695c0-2.194 1.55-3.973 3.462-3.973 1.913 0 3.463 1.779 3.463 3.973s-1.55 4.602-3.463 4.602c-1.912 0-3.462-2.408-3.462-4.602z"/></g></svg>