<svg xmlns="http://www.w3.org/2000/svg" width="26" height="14" viewBox="0 0 26 14"><g fill="none" fill-rule="evenodd"><path d="M0 .069h12.973v6.068H0V.069z"/><path fill="#B3B3B3" d="M1.06 3.103c3.648 3.135 7.205 3.135 10.854 0-3.649-3.135-7.206-3.135-10.855 0m5.428 3.034c-2.077 0-4.153-.93-6.215-2.789L0 3.104l.272-.246c4.124-3.718 8.305-3.718 12.429 0l.272.246-.272.245c-2.062 1.86-4.138 2.789-6.214 2.789"/><path fill="#B3B3B3" d="M8.571 3.103c0 1.075-.933 1.946-2.084 1.946-1.152 0-2.085-.871-2.085-1.946s.933-1.947 2.085-1.947c1.15 0 2.084.872 2.084 1.947"/></g></svg>