<svg width="32" height="32" viewBox="0 0 32 32" xmlns="http://www.w3.org/2000/svg" xmlns:xlink="http://www.w3.org/1999/xlink"><title>766AFE65-17FE-4523-B8DD-0E5F51378F62</title><defs><rect id="a" x="5.655" y="16.513" width="8.793" height="6.412" rx="3"/><mask id="c" x="0" y="0" width="8.793" height="6.412" fill="#fff"><use xlink:href="#a"/></mask><rect id="b" x="15.347" y="10.926" width="8.793" height="6.412" rx="3"/><mask id="d" x="0" y="0" width="8.793" height="6.412" fill="#fff"><use xlink:href="#b"/></mask></defs><g transform="translate(3 3)" fill="none" fill-rule="evenodd"><path d="M12.65 12.814c0 .403-.193.666-.583.666H8.785V8.44h1.67l.252-2.16H8.785V5.155c0-.576.151-1.037.96-1.037h1.148V2.4c-.351-.025-.896-.079-1.609-.079-1.483 0-2.607.93-2.607 2.636v1.321H4.92v2.16h1.757v5.041H.59c-.393 0-.59-.263-.59-.666V1.054C0 .653.197.159.59.159h11.477c.39 0 .583.494.583.897v11.759z" fill="#235F81"/><use stroke="#235F81" mask="url(#c)" stroke-width="4" transform="rotate(-30 10.052 19.72)" xlink:href="#a"/><use stroke="#235F81" mask="url(#d)" stroke-width="4" transform="rotate(-30 19.744 14.132)" xlink:href="#b"/><path d="M11.09 19.124l7.703-4.447" stroke="#235F81" stroke-width="2" stroke-linecap="round" stroke-linejoin="round"/></g></svg>