<svg width="24" height="24" viewBox="0 0 24 24" xmlns="http://www.w3.org/2000/svg"><title>301260FD-5C36-47F9-A860-5ADEEE1DB72E</title><g fill="none" fill-rule="evenodd"><circle fill="#43619C" cx="12" cy="12" r="12"/><path d="M18.255 19H14.65v-5.297h1.833l.278-2.27H14.65v-1.181c0-.606.166-1.09 1.053-1.09h1.262V7.357c-.386-.026-.984-.083-1.767-.083-1.63 0-2.864.976-2.864 2.77v1.388h-1.93v2.27h1.93V19H5.648C5.216 19 5 18.724 5 18.3V5.942C5 5.518 5.216 5 5.648 5h12.607c.428 0 .64.518.64.942V18.3c0 .424-.212.7-.64.7z" fill="#FFF"/></g></svg>