<svg width="32" height="32" viewBox="0 0 32 32" xmlns="http://www.w3.org/2000/svg"><title>9C92D2EE-64EC-4223-90B4-3F49E6744949</title><g stroke="#235F81" stroke-width="2" fill="none" fill-rule="evenodd" stroke-linecap="round" stroke-linejoin="round"><path d="M11.191 12.695c.112-.02.227-.028.344-.028 1.392 0 2.52 1.39 2.52 3.103 0 1.715-1.128 3.105-2.52 3.105-1.393 0-2.521-1.39-2.521-3.105 0-1.02.401-1.927 1.019-2.493 0 0 .399-.45 1.158-.582zm2.638 6.638c.35.418.85.476 1.295.712.236.126.475.254.668.44.458.44.45 1.222.574 1.805"/><path d="M10.059 18.381c-.023.776-1.136 1.042-1.729 1.358-.236.126-.475.254-.667.44-.458.44-.452 1.221-.575 1.803"/><path d="M23.83 8.686h4.255v17.273H3.503V8.686h7.046m3.191-.268h6.662m-3.442 6.318h7.49m-6.219 3.791h6.22M10.463 9.956v-3.27m10.111 3.1V6.4"/></g></svg>