<svg width="32" height="32" viewBox="0 0 32 32" xmlns="http://www.w3.org/2000/svg"><title>71F65E2F-5978-4471-BCB5-0948BD427012</title><g stroke="#235F81" stroke-width="2" fill="none" fill-rule="evenodd" stroke-linecap="round" stroke-linejoin="round"><path d="M16.308 24.215h2.067c2.323-1.743 4.456-3.784 6.158-6.137 1.164-1.61 2.45-3.662 2.874-5.722.093-.45.144-.901.144-1.349 0-3.039-2.479-5.503-5.538-5.503a5.537 5.537 0 0 0-4.75 2.685 5.537 5.537 0 0 0-4.752-2.685c-3.059 0-5.539 2.464-5.539 5.503 0 2.238 1.201 3.858 2.461 5.7"/><path d="M22.013 8.662a2.356 2.356 0 0 1 2.36 2.345c0 .217-.026.458-.08.717-.247 1.2-1.012 2.675-2.34 4.51m-4.89-8.044v.664M4.204 25.076v1.27m3.906-5.984v5.984m3.907-3.627v3.627"/></g></svg>