<svg width="24" height="24" viewBox="0 0 24 24" xmlns="http://www.w3.org/2000/svg"><title>9F068393-26FE-4CC1-AB40-C237A1700921</title><g stroke="#235F81" stroke-width="1.5" fill="none" fill-rule="evenodd" stroke-linecap="round" stroke-linejoin="round"><path d="M11.272 19h1.604c1.804-1.396 3.459-3.033 4.78-4.92.905-1.29 1.903-2.935 2.232-4.587.072-.36.112-.722.112-1.08C20 5.974 18.074 4 15.7 4c-1.568 0-2.937.865-3.688 2.153"/><path d="M13 19h-1.604c-1.804-1.396-3.46-3.033-4.78-4.92-.905-1.29-1.903-2.935-2.232-4.587a5.522 5.522 0 0 1-.112-1.08C4.272 5.974 6.197 4 8.57 4c1.569 0 2.938.865 3.688 2.153M12 6v1.615"/></g></svg>