<svg width="24" height="24" viewBox="0 0 24 24" xmlns="http://www.w3.org/2000/svg"><title>05009686-AA51-402D-A569-731DDC19E8AB</title><g fill="none" fill-rule="evenodd"><path d="M12 24c6.627 0 12-5.373 12-12S18.627 0 12 0 0 5.373 0 12s5.373 12 12 12z" fill="#EB0387"/><path fill="#FEFEFE" d="M4 19.907h15.937V4H4z"/><path fill="#EC0387" d="M4.553 9.125H9.12V4.547H4.553zm5.133 0h4.566V4.547H9.686zm5.132 0h4.566V4.547h-4.566zM4.553 14.292H9.12V9.714H4.553zm5.133 0h4.566V9.714H9.686z"/><path fill="#010201" d="M14.818 14.292h4.566V9.714h-4.566z"/><path fill="#EC0387" d="M4.553 19.36H9.12v-4.577H4.553z"/><path fill="#010201" d="M9.686 19.36h4.566v-4.577H9.686zm5.132 0h4.566v-4.577h-4.566z"/></g></svg>