<svg width="32" height="32" viewBox="0 0 32 32" xmlns="http://www.w3.org/2000/svg"><title>BE3D26B0-930F-4C7B-BACF-EBEB9C21394D</title><path d="M21.94 14.091l2.304-2.118m-2.304 2.479l2.304 2.119m-1.696-2.48h6.104M14.44 6.415a3.63 3.63 0 0 1 .59-.047c2.394 0 4.335 2.295 4.335 5.127s-1.941 5.128-4.335 5.128-4.335-2.296-4.335-5.128c0-1.687.69-3.184 1.752-4.119 0 0 .687-.744 1.992-.961zm-1.895 9.872c-.039 1.283-1.036 1.52-2.055 2.041m7.15-2.041c.039 1.283 1.953 1.721 2.972 2.243.406.207.818.42 1.149.726.788.728.777 2.018.988 2.98m-11.953 1.84v1.27M6.89 19.362v5.984m-3.907-3.627v3.627" stroke-width="2" stroke="#235F81" fill="none" stroke-linecap="round" stroke-linejoin="round"/></svg>