<svg width="32" height="32" viewBox="0 0 32 32" xmlns="http://www.w3.org/2000/svg"><title>EDEA0721-6635-4B0F-9F39-1BC1092C0F4A</title><g stroke="#235F81" stroke-width="2" fill="none" fill-rule="evenodd"><path d="M20.973 10.146c-1.668-.148-3.502-.303-5.127.186-2.752.827-4.583 4.092-4.83 6.774-.166 1.8.929 3.759 2.9 3.887 2.618.17 4.666-2.581 5.586-4.687.279-.638 1.713-6.139 1.47-6.16z"/><path d="M20.776 10.815s-.967 7.453-.967 7.463c-.157 1.204-.292 3.519 1.352 3.825 1.45.27 3.124-.774 4.008-1.856 3.826-4.679 1.315-13.945-4.374-15.752-9.382-2.982-18.777 8.11-14.898 17.194a11.298 11.298 0 0 0 2.368 3.489c3.743 3.783 9.455 3.31 13.909 1.222" stroke-linecap="round" stroke-linejoin="round"/></g></svg>