<svg width="24" height="24" viewBox="0 0 24 24" xmlns="http://www.w3.org/2000/svg"><title>0A9B6F85-7B6C-484F-8F39-FC8221DF11F3</title><g fill="none" fill-rule="evenodd"><path d="M12 24c6.627 0 12-5.373 12-12S18.627 0 12 0 0 5.373 0 12s5.373 12 12 12z" fill="#F94877"/><g transform="translate(7 4)"><mask id="a" fill="#fff"><use/></mask><path d="M9.12 2.246L8.78 4.06c-.041.196-.284.403-.509.403H5.096a.586.586 0 0 0-.612.611v.396c0 .364.257.621.614.621h2.693c.252 0 .5.282.445.556-.055.275-.31 1.635-.341 1.785-.031.15-.2.407-.5.407H5.197c-.4 0-.521.054-.789.393s-2.676 3.285-2.676 3.285c-.025.028-.049.02-.049-.011V2.219c0-.232.198-.504.496-.504h6.538c.24 0 .465.23.404.53m.287 7.119c.09-.375 1.11-5.694 1.451-7.382M9.602 0H1.455C.33 0 0 .861 0 1.403v13.185c0 .61.322.837.503.912.182.075.681.138.981-.214 0 0 3.846-4.546 3.912-4.613.1-.102.1-.102.2-.102h2.489c1.045 0 1.213-.76 1.323-1.207.09-.375 1.11-5.694 1.451-7.382C11.12.694 10.8 0 9.602 0" fill="#FFF" mask="url(#a)"/></g></g></svg>