<svg width="32" height="32" viewBox="0 0 32 32" xmlns="http://www.w3.org/2000/svg"><title>2E01E00F-F490-4D58-9AF9-5EA20BF9F6F4</title><path d="M10.83 5.33c.078-.017.157-.032.238-.045 2.67-.42 4.314 2.673 4.314 5.05 0 2.823-1.798 5.112-4.017 5.112-2.218 0-4.017-2.29-4.017-5.112 0-2.188 1.292-4.516 3.482-5.005zm3.072 10.598c.558.687 1.733 1.03 2.442 1.42.376.207.757.418 1.064.724.73.726.72 2.012.916 2.971m-9.262-5.931c-.035 1.279-1.809 1.716-2.754 2.236-.376.208-.758.418-1.065.724-.73.726-.719 2.012-.915 2.971M20.914 6.46c.076-.015.155-.026.234-.033 1.568-.127 2.502 1.655 2.502 3.06 0 1.693-1.079 3.067-2.41 3.067-1.33 0-2.408-1.37-2.41-3.062-.002-1.284.778-2.772 2.084-3.032zm1.848 6.382c.335.412 1.04.619 1.465.853.226.124.455.25.639.434.438.436.432 1.207.55 1.783m-5.558-3.559c-.021.767-1.085 1.03-1.653 1.342-.225.124-.454.25-.638.434-.438.436-.432 1.207-.55 1.783m1.162 9.26v1.477m4.464-6.959v6.96m4.464-4.22v4.22" stroke="#235F81" stroke-width="2" fill="none" stroke-linecap="round" stroke-linejoin="round"/></svg>