<svg width="24" height="24" viewBox="0 0 24 24" xmlns="http://www.w3.org/2000/svg"><title>6912A8CE-C1BD-4DEC-A1FF-2482A3F479C7</title><g fill="none" fill-rule="evenodd"><path d="M12 24c6.627 0 12-5.373 12-12S18.627 0 12 0 0 5.373 0 12s5.373 12 12 12z" fill="#C70900"/><g transform="translate(3 5)"><mask id="a" fill="#fff"><use/></mask><path d="M12.624 8.252H10.97v-.273c0-.818-.483-1.52-1.173-1.832.405-.267.675-.73.675-1.257 0-.651-.41-1.204-.982-1.41.27-.35.689-.574 1.16-.574.816 0 1.476.67 1.476 1.498 0 .528-.269.99-.674 1.258a2.006 2.006 0 0 1 1.173 1.832v.758zm-2.849.758h-3.95v-.76c0-.817.482-1.519 1.173-1.831a1.5 1.5 0 0 1-.675-1.258c0-.827.661-1.498 1.477-1.498.815 0 1.477.671 1.477 1.498 0 .528-.27.991-.675 1.258A2.007 2.007 0 0 1 9.775 8.25v.759zm7.71-6.533l-.365-.038V1.96a.437.437 0 0 0-.434-.44h-.225l-.009-.11a.436.436 0 0 0-.465-.406l-6.631.516h-.872l-1.808-.193.072-.694a.186.186 0 0 0-.164-.205L2.57.001a.184.184 0 0 0-.201.166L2.32.635H1.6a.185.185 0 0 0-.184.186v.43l-.54.041a.185.185 0 0 0-.168.2l.014.189a.44.44 0 0 0-.1.28v.238l-.22.017a.439.439 0 0 0-.4.473l.552 7.316-.089.854a.443.443 0 0 0 .156.386v.412a.44.44 0 0 0 .076.248l.034.453a.436.436 0 0 0 .466.405l3.64-.283-.062-.805-.07.006v-.39h-.34a.593.593 0 0 1-.588-.598c0-.33.264-.598.589-.598h1.626c.325 0 .588.268.588.598 0 .33-.263.598-.588.598h-.34v.806h.106l.023.31 2.926-.228 3.347.356.045-.438h.22v-.806h-.34a.593.593 0 0 1-.588-.598c0-.33.263-.597.588-.597h1.626c.325 0 .589.267.589.597 0 .33-.264.598-.589.598h-.339v.562l-.187-.02-.083.803 3.402.361a.435.435 0 0 0 .477-.392l.06-.588a.44.44 0 0 0 .185-.36v-.318a.442.442 0 0 0 .062-.26l-.062-.822.75-7.295a.439.439 0 0 0-.386-.485z" fill="#FFF" mask="url(#a)"/></g></g></svg>