<svg width="32" height="32" viewBox="0 0 32 32" xmlns="http://www.w3.org/2000/svg"><title>E2B32855-1683-4809-9BDF-7C01769E5B93</title><path d="M26.468 20.908a4.836 4.836 0 0 1-6.83 0 4.817 4.817 0 0 1 0-6.82 4.836 4.836 0 0 1 6.83 0 4.817 4.817 0 0 1 0 6.82zm-13.034-6.097a4.827 4.827 0 0 1-4.83 4.823 4.827 4.827 0 0 1-4.83-4.823 4.827 4.827 0 0 1 4.83-4.822 4.826 4.826 0 0 1 4.83 4.822zm6.204 6.097l-7.057 7.045m.745-4.153l3.452 3.447m1.854-22.216l-6.064 6.055m2.125-6.841h4.884v4.404" stroke="#235F81" stroke-width="2" fill="none" stroke-linecap="round" stroke-linejoin="round"/></svg>