<svg width="24" height="24" viewBox="0 0 24 24" xmlns="http://www.w3.org/2000/svg"><title>40687BBF-8DCE-46B2-967D-2BDF009C164F</title><g fill="none" fill-rule="evenodd"><path d="M12 24c6.627 0 12-5.373 12-12S18.627 0 12 0 0 5.373 0 12s5.373 12 12 12z" fill="#721B79"/><path fill="#FF7732" d="M10.925 4.052l-.997 1.503-1.994-.622-.314 1.866-2.099.103.472 1.866-1.836.83 1.26 1.554L4 12.604l1.731 1.088-.734 1.762 1.836.363.157 1.97 2.99-.467 6.558-2.488 3.252-1.347-1.05-1.503L20 10.479l-1.626-.933.63-1.918-1.942-.363L17.01 5.4l-2.099.311-.839-1.555-1.731 1.037z"/><path d="M17.043 13.724a4.496 4.496 0 0 0-.36-.23l1.697-2.949-.561-.34c-1.233-.75-2.841-1.18-4.413-1.18-1.295 0-2.413.322-3.234.93-.912.675-1.393 1.646-1.393 2.81v.034c0 1.047.387 1.855 1.183 2.464l-1.908 2.91.548.37c1.436.974 3.179 1.489 5.04 1.489 1.356 0 2.503-.318 3.318-.92.905-.668 1.383-1.655 1.383-2.854v-.034c0-1.063-.425-1.88-1.3-2.5" fill="#721B79"/><path d="M8.988 17.988l1.29-1.97c1.128.703 2.365 1.062 3.383 1.062.6 0 .873-.17.873-.496v-.035c0-.36-.546-.513-1.582-.787-1.946-.48-3.491-1.096-3.491-2.963v-.034c0-1.97 1.672-3.066 3.945-3.066 1.437 0 2.928.394 4.055 1.08l-1.182 2.054c-1.018-.53-2.127-.856-2.909-.856-.527 0-.8.188-.8.445v.035c0 .36.564.53 1.6.822 1.946.513 3.491 1.147 3.491 2.945v.034c0 2.038-1.618 3.1-4.018 3.1-1.655 0-3.291-.445-4.655-1.37" fill="#FFF"/></g></svg>