<svg width="24" height="24" viewBox="0 0 24 24" xmlns="http://www.w3.org/2000/svg"><title>C483D367-CDF0-4913-9948-CE55A9A47E18</title><g fill="none" fill-rule="evenodd"><path d="M12 24c6.627 0 12-5.373 12-12S18.627 0 12 0 0 5.373 0 12s5.373 12 12 12z" fill="#EAE6CE"/><g transform="translate(6 3)"><mask id="a" fill="#fff"><use/></mask><path d="M9.952 6.306c0 1.517-.405 2.791-1.202 3.785-.87 1.05-2.048 1.583-3.5 1.583-1.417 0-2.545-.546-3.351-1.625C1.177 9.085.81 7.826.81 6.306c0-1.55.39-2.841 1.16-3.839.837-1.095 2.005-1.65 3.47-1.65 1.402 0 2.537.571 3.375 1.697.755 1.029 1.137 2.305 1.137 3.792zM9.976.29v2.624A4.753 4.753 0 0 0 8.502 1.05 4.897 4.897 0 0 0 5.441 0C3.724 0 2.348.64 1.347 1.902.453 3.054 0 4.536 0 6.306c0 1.738.437 3.187 1.298 4.307.953 1.246 2.29 1.878 3.976 1.878a5.458 5.458 0 0 0 3.162-.997c.701-.485 1.217-1.092 1.54-1.812v2.909c0 2.945-1.467 4.376-4.487 4.376-1.152 0-2.09-.265-2.788-.788-.777-.586-1.176-1.414-1.222-2.532l-.007-.16H.664l.004.171c.033 1.352.537 2.412 1.498 3.15.853.648 1.98.977 3.347.977 1.676 0 2.988-.447 3.898-1.329.913-.882 1.376-2.183 1.376-3.865V.29h-.81z" fill="#59461B" mask="url(#a)"/></g></g></svg>