<svg width="24" height="24" viewBox="0 0 24 24" xmlns="http://www.w3.org/2000/svg"><title>9740DD9A-5D16-49AE-9922-46C8ABC02CC4</title><g fill="none" fill-rule="evenodd"><path d="M12 24c6.627 0 12-5.373 12-12S18.627 0 12 0 0 5.373 0 12s5.373 12 12 12z" fill="#F24033"/><path d="M9.007 16.987c-2.877 0-5.21-2.25-5.21-4.996 0-2.746 2.333-4.989 5.21-4.989 1.35 0 2.58.488 3.503 1.29-1.09.984-1.053 1.038-1.483 1.449-.533-.427-1.118-.732-2.02-.732-1.711 0-3.044 1.324-3.044 2.955 0 1.63 1.333 2.994 3.044 2.994 1.686 0 2.373-.775 2.816-1.937H9.068v-1.936h4.942c.345 2.323-.703 5.902-5.003 5.902zm11.033-4.741h-1.625v1.937h-1.22v-1.937h-2.031v-1.161h2.032v-1.55h1.219v1.55h1.625z" fill="#FFF"/></g></svg>