<svg width="24" height="24" viewBox="0 0 24 24" xmlns="http://www.w3.org/2000/svg"><title>B5F2141F-EB12-40B5-9591-C0F96CDD7B76</title><g fill="none" fill-rule="evenodd"><path d="M12 24c6.627 0 12-5.373 12-12S18.627 0 12 0 0 5.373 0 12s5.373 12 12 12z" fill="#0075B9"/><g transform="translate(4 4)"><mask id="a" fill="#fff"><use/></mask><path d="M6.869.469C7.159.179 7.559 0 8 0a8 8 0 1 1-8 8c0-2.197.892-4.256 2.4-5.8.675-.566 1.688-.55 2.3.1.617.621.6 1.634 0 2.2-.966.948-1.5 2.18-1.5 3.5a4.8 4.8 0 1 0 6.4-4.527V7.2a1.6 1.6 0 0 1-3.2 0V1.6c0-.442.18-.842.469-1.131z" fill="#FFF" mask="url(#a)"/></g></g></svg>