<svg width="24" height="24" viewBox="0 0 24 24" xmlns="http://www.w3.org/2000/svg"><title>799E76C6-77CE-4496-AC59-A5427F8972E8</title><g fill="none" fill-rule="evenodd"><path d="M12 24c6.627 0 12-5.373 12-12S18.627 0 12 0 0 5.373 0 12s5.373 12 12 12z" fill="#FB651E"/><path d="M11.137 13.449L6.627 5h2.061l2.653 5.347c.041.095.089.194.143.296.054.102.102.207.143.316a.604.604 0 0 1 .061.112c.014.034.027.065.04.092a6.7 6.7 0 0 1 .185.398c.054.13.102.249.142.357.11-.23.228-.48.358-.745.129-.265.261-.54.398-.826L15.504 5h1.919l-4.551 8.551V19h-1.735v-5.551z" fill="#FFF"/></g></svg>