<svg width="24" height="24" viewBox="0 0 24 24" xmlns="http://www.w3.org/2000/svg"><title>B3C69843-D458-4D8D-A40C-4AE2EBB52968</title><g fill="none" fill-rule="evenodd"><path d="M12 24c6.627 0 12-5.373 12-12S18.627 0 12 0 0 5.373 0 12s5.373 12 12 12z" fill="#F4942D"/><g transform="translate(3.286 8.508)"><mask id="a" fill="#fff"><use/></mask><path d="M17.43 3.261c.488.621.673 1.435.609 2.235-.075.935-.492 1.852-1.163 2.421-.649.549-1.555.902-2.696.902-.826 0-1.685-.174-2.41-.596v.39H.02V5.639h.574V3.07H.02V.069h4.414v2.14c.736-.282 1.716-.255 2.35.26v-.347h1.08V.536h3.333v1.222L11.501.07h6.07l-.142 3.192" fill="#CDCCCC" mask="url(#a)"/></g><g transform="translate(3 8.068)"><mask id="b" fill="#fff"><use/></mask><path d="M17.409 3.198c.488.621.673 1.435.61 2.235-.076.935-.492 1.852-1.164 2.421-.648.549-1.554.902-2.696.902-.826 0-1.684-.174-2.408-.596v.39H0V5.576h.574V3.008H0V.006h4.413v2.14c.736-.282 1.716-.255 2.35.26v-.347h1.081V.472h3.333v1.223l.303-1.69h6.07l-.141 3.193" fill="#394142" mask="url(#b)"/></g><path d="M10.53 10.914h2.88v3.517h.574v1.399h-3.441v-1.4h.56v-2.085h-.574v-1.431zm-2.136-.085c1.207 0 1.388 1.076 1.388 1.503v2.099h.612v1.399h-3.16v-1.4h.301v-1.708c0-.806-.888-.52-.888.809v.9h.267v1.399H3.766v-1.4h.574v-4.142h-.574V8.86h2.881v3.025c.38-.63.894-1.057 1.747-1.057zm3.216-.253h1.8V9.328h-1.8v1.248z" fill="#FFF"/><path d="M17.99 11.005c1.287 0 2.325.667 2.264 2.41 0 1.345-1.07 2.62-3.095 2.62-1.32 0-2.415-.505-2.81-1.252-.406-.772-.087-1.964.905-1.966.647-.001 1.055.295.918 1.055-.171.511.155.68.47.68.479 0 .842-.565.867-1.143.023-.543-.194-1.071-.68-1.077-.198-.003-.433.074-.657.355l-1.702-.236.645-3.59h4.636l-.083 1.88h-3.06l-.07.601c.44-.2.967-.337 1.452-.337" fill="#F4942D"/></g></svg>