<svg width="24" height="24" viewBox="0 0 24 24" xmlns="http://www.w3.org/2000/svg"><title>6EAA7943-BF3B-43C9-A545-8FC55DBDFE3E</title><g fill="none" fill-rule="evenodd"><path d="M12 24c6.627 0 12-5.373 12-12S18.627 0 12 0 0 5.373 0 12s5.373 12 12 12z" fill="#ED201B"/><path d="M7.81 15.833l-.836 1.538c.814-.299 1.542-.572 2.276-.83.145-.052.32-.09.465-.058 1.06.241 2.131.31 3.213.29 1.656-.03 3.21-.441 4.639-1.288 2.036-1.207 3.019-3.376 2.503-5.547-.408-1.722-1.528-2.895-2.994-3.75-2.173-1.267-4.52-1.592-6.97-1.17-1.927.334-3.65 1.115-4.978 2.62-1.155 1.309-1.602 2.83-1.203 4.565.295 1.287 1.149 2.121 2.228 2.755.52.306 1.067.566 1.656.875M3 10.511c.058-.268.106-.538.174-.803.472-1.82 1.624-3.108 3.16-4.084 3.63-2.308 9.037-2.009 12.255.678 1.138.949 1.961 2.113 2.26 3.598.506 2.507-.641 4.958-2.938 6.286-1.966 1.137-4.096 1.515-6.332 1.338-.6-.048-1.194-.17-1.794-.235a.902.902 0 0 0-.468.092c-.938.46-1.912.773-2.964.782-.158.001-.339-.022-.472-.1-.405-.233-.41-.421-.106-.775.308-.358.591-.738.907-1.135-.412-.239-.763-.428-1.1-.639-1.416-.886-2.344-2.105-2.524-3.827-.006-.058-.038-.112-.058-.168v-1.008" fill="#000"/><path d="M12 9.66c-.072-.128-.123-.222-.177-.315-.357-.62-.925-.927-1.56-.844-.596.079-1.048.544-1.232 1.236-.223.84.028 1.567.594 2.147.647.662 1.372 1.246 2.07 1.856.053.046.188.064.246.029.92-.547 1.843-1.092 2.527-1.951.498-.625.643-1.323.417-2.093-.158-.539-.48-.939-1.035-1.082-.602-.154-1.094.068-1.494.522-.124.141-.222.306-.357.495m-4.19 6.173c-.59-.31-1.136-.57-1.656-.875-1.08-.634-1.933-1.468-2.228-2.755-.398-1.736.048-3.256 1.203-4.565 1.328-1.505 3.05-2.286 4.979-2.62 2.449-.422 4.796-.097 6.969 1.17 1.466.855 2.586 2.028 2.995 3.75.515 2.171-.468 4.34-2.504 5.547-1.43.847-2.983 1.258-4.639 1.289-1.082.02-2.153-.05-3.213-.29-.144-.034-.32.005-.465.057-.734.258-1.462.531-2.276.83l.835-1.538" fill="#FFF"/><path d="M12 9.66c.134-.189.232-.354.356-.495.4-.454.892-.676 1.494-.522.556.143.877.543 1.035 1.082.226.77.08 1.468-.417 2.093-.684.86-1.607 1.404-2.527 1.95-.058.036-.193.018-.246-.028-.698-.61-1.423-1.194-2.07-1.856-.566-.58-.817-1.308-.594-2.147.184-.692.636-1.157 1.232-1.236.635-.083 1.203.224 1.56.844.054.093.105.187.176.315" fill="#ED1F1B"/></g></svg>