<svg width="24" height="24" viewBox="0 0 24 24" xmlns="http://www.w3.org/2000/svg"><title>DFABA583-9EC6-4F55-8CC6-6D40774FEB3B</title><g fill="none" fill-rule="evenodd"><path d="M12 24c6.627 0 12-5.373 12-12S18.627 0 12 0 0 5.373 0 12s5.373 12 12 12z" fill="#FFF"/><path d="M14.346 12.698l2.917-.253 1.033-.026.258.026c.388.126.749.355.955.735.258.28.387.66.387 1.09l-.077.508c-.129.507-.439.888-.878 1.09-.465.254-.93.305-1.446.127a1.273 1.273 0 0 1-.697-.405l-2.71-2.207.18-.38.078-.305zm-1.162 1.573l1.084 1.09.672.812.129.254c.232.43.361.837.31 1.319-.052.456-.207.786-.517.913-.18.127-.387.127-.593.101-.491-.126-.878-.507-1.162-1.116l-.31-.837-.387-2.207.439-.152.335-.177zm-1.988.33c.052.862.13 1.775.258 2.764v1.015l-.026.254c-.18.456-.49.836-.955 1.04a1.878 1.878 0 0 1-1.42.177c-.516-.126-.903-.43-1.11-.837-.129-.253-.232-.558-.232-.862l.129-.583c.051-.254.18-.508.387-.71l2.169-2.537c.258.126.516.253.8.278zm-.594-3.678a1.78 1.78 0 0 1 1.214-.457c.465 0 .903.178 1.187.457.362.355.517.735.517 1.192 0 .456-.155.887-.517 1.192-.335.33-.722.507-1.187.507-.49 0-.904-.178-1.214-.507a1.595 1.595 0 0 1-.516-1.192c0-.457.18-.837.516-1.192zm6.584-2.41a2.588 2.588 0 0 1 1.368-.203c.439.05.749.253.903.558l.104.33-.052.253c-.18.457-.568.812-1.213 1.09-.258.128-.542.178-.852.229l-3.176.38-.051-.177-.052-.076.103-.127 2.608-2.13.31-.127zM9.13 12.622l.18.507.078.178c-.387.33-.671.634-.981.913l-.775.634-.206.127c-.49.228-.904.304-1.343.253-.387-.025-.697-.152-.826-.38l-.078-.279.052-.228c.13-.38.465-.76 1.059-1.04.31-.127.568-.254.774-.305l2.066-.38zM6.678 8.488l.697.279 2.272 1.623a2.213 2.213 0 0 0-.413.761l-3.717.457-.259-.051c-.464-.076-.774-.28-.98-.66-.207-.38-.207-.76-.052-1.14.18-.483.516-.863 1.006-1.066.465-.254.93-.33 1.446-.203zM8.072 5.52c.026-.457.207-.76.516-.938.155-.127.388-.127.594-.026.465.127.852.457 1.162 1.091.129.254.258.507.31.812l.516 2.993-.387.127-2.298-2.46-.13-.254c-.205-.457-.334-.888-.283-1.345zm8.004-.507c.129.253.206.558.206.887l-.077.558c-.104.28-.233.533-.388.761l-2.323 2.79c-.232-.177-.49-.304-.749-.43l-.258-2.867-.026-1.014.026-.254c.13-.507.49-.887.955-1.141a1.765 1.765 0 0 1 1.472-.127c.542.127.93.406 1.162.837zM9.492 3.49c-.568-.127-1.032-.076-1.523.177-.542.33-.852.838-.981 1.548-.13.735 0 1.446.387 2.156l.181.253-.62-.203c-.774-.177-1.497-.076-2.22.305-.749.38-1.213.913-1.523 1.648-.284.71-.258 1.395.103 2.03.155.278.387.507.594.659.31.304.697.482 1.162.558l.18.05-.387.33c-.362.305-.568.685-.697 1.065-.13.457-.077.914.18 1.345.13.203.259.38.465.507.207.178.465.304.775.33a3.397 3.397 0 0 0 1.807-.077l-.465.761-.13.33c-.257.812-.18 1.522.207 2.257.181.28.388.533.594.761.31.279.697.457 1.162.583.775.203 1.55.178 2.298-.202.723-.381 1.187-.99 1.42-1.75l.026-.153c.49.533.955.888 1.471 1.015.516.152 1.033.127 1.498-.178.439-.253.748-.685.903-1.217.13-.558.13-1.116 0-1.75.258.177.516.304.826.38.826.254 1.55.228 2.272-.152.697-.38 1.162-.99 1.394-1.776.207-.76.155-1.496-.232-2.206l-.13-.203c-.206-.305-.412-.609-.722-.812-.258-.177-.568-.304-.852-.431.8-.38 1.368-.913 1.627-1.598.18-.558.129-1.015-.13-1.471v-.05c-.31-.508-.722-.838-1.368-1.015-.387-.077-.826-.077-1.213-.051l-.852.177.284-.634c.259-.811.181-1.598-.258-2.333l-.077-.127c-.388-.634-.956-1.014-1.73-1.217-.8-.203-1.549-.127-2.272.253-.723.38-1.24.964-1.471 1.725v.05l-.026.178-.103-.177-.259-.457c-.413-.633-.93-1.014-1.575-1.191z" fill="#020202"/><path d="M14.346 12.698l2.917-.253 1.033-.026.258.026c.388.126.749.355.955.735.258.28.387.66.387 1.09l-.077.508c-.129.507-.439.888-.878 1.09-.465.254-.93.305-1.446.127a1.273 1.273 0 0 1-.697-.405l-2.71-2.207.18-.38.078-.305zm-1.162 1.573l1.084 1.09.672.812.129.254c.232.43.361.837.31 1.319-.052.456-.207.786-.517.913-.18.127-.387.127-.593.101-.491-.126-.878-.507-1.162-1.116l-.31-.837-.387-2.207.439-.152.335-.177zm-1.988.33c.052.862.13 1.775.258 2.764v1.015l-.026.254c-.18.456-.49.836-.955 1.04a1.878 1.878 0 0 1-1.42.177c-.516-.126-.903-.43-1.11-.837-.129-.253-.232-.558-.232-.862l.129-.583c.051-.254.18-.508.387-.71l2.169-2.537c.258.126.516.253.8.278zm5.99-6.088a2.588 2.588 0 0 1 1.368-.203c.439.05.749.253.903.558l.104.33-.052.253c-.18.457-.568.812-1.213 1.09-.258.128-.542.178-.852.229l-3.176.38-.051-.177-.052-.076.103-.127 2.608-2.13.31-.127zM6.678 8.488l.697.279 2.272 1.623a2.213 2.213 0 0 0-.413.761l-3.717.457-.259-.051c-.464-.076-.774-.28-.98-.66-.207-.38-.207-.76-.052-1.14.18-.483.516-.863 1.006-1.066.465-.254.93-.33 1.446-.203zM8.072 5.52c.026-.457.207-.76.516-.938.155-.127.388-.127.594-.026.465.127.852.457 1.162 1.091.129.254.258.507.31.812l.516 2.993-.387.127-2.298-2.46-.13-.254c-.205-.457-.334-.888-.283-1.345zm8.004-.507c.129.253.206.558.206.887l-.077.558c-.104.28-.233.533-.388.761l-2.323 2.79c-.232-.177-.49-.304-.749-.43l-.258-2.867-.026-1.014.026-.254c.13-.507.49-.887.955-1.141a1.765 1.765 0 0 1 1.472-.127c.542.127.93.406 1.162.837z" fill="#48F700"/><path d="M9.13 12.622l.181.507.078.178c-.387.33-.671.634-.981.913l-.775.634-.206.127c-.491.228-.904.304-1.343.253-.387-.025-.697-.152-.826-.38l-.078-.279.052-.228c.13-.38.465-.76 1.059-1.04.31-.127.568-.254.774-.305l2.066-.38z" fill="#FF001C"/><path d="M10.602 10.923a1.78 1.78 0 0 1 1.214-.457c.465 0 .903.178 1.187.457.362.355.517.735.517 1.192 0 .456-.155.887-.517 1.192-.335.33-.722.507-1.187.507-.49 0-.904-.178-1.214-.507a1.596 1.596 0 0 1-.516-1.192c0-.457.18-.837.516-1.192z" fill="#FDFB12"/></g></svg>