<svg width="24" height="24" viewBox="0 0 24 24" xmlns="http://www.w3.org/2000/svg"><title>3B78DDD5-D837-4DE7-BB90-BFF232CF33A7</title><g fill="none" fill-rule="evenodd"><path d="M12 24c6.627 0 12-5.373 12-12S18.627 0 12 0 0 5.373 0 12s5.373 12 12 12z" fill="#FFF"/><g transform="translate(4 3.002)"><mask id="a" fill="#fff"><use/></mask><path d="M6.598 1.937c2.368 0 4.267 1.916 4.267 4.305s-1.9 4.305-4.267 4.305a4.203 4.203 0 0 1-2.002-.497c-1.518.693-2.548 1.016-2.548 1.016S2.433 9.84 3.06 8.66c-.425-.635-.649-1.5-.649-2.398 0-2.389 1.819-4.325 4.187-4.325zm0-1.898C3.316.066.733 3.176.61 6.16.58 7.921.933 8.664.933 8.664L0 13.068l4.218-1.15s1.743.528 2.38.528c3.385 0 6.15-2.789 6.15-6.204 0-3.415-2.765-6.203-6.15-6.203z" fill="#789240" mask="url(#a)"/></g><path d="M14.59 12.916a2.826 2.826 0 0 1 3.997-.548c1.672 1.598 1.487 3.842-.53 4.905-.25 1.096-.496 1.78-.496 1.78s-.49-.704-.858-1.518c-.507-.029-1.053-.259-1.527-.622-1.26-.967-1.544-2.727-.586-3.997zm-1-.769c-1.315 1.772-.72 4.417.803 5.69.917.73 1.45.841 1.45.841l1.945 2.283 1.101-2.728s.984-.722 1.242-1.063c1.37-1.817 1.019-4.43-.782-5.812a4.096 4.096 0 0 0-5.76.79z" fill="#7D0100"/><path d="M15.154 13.434a2.198 2.198 0 0 1 3.119-.344 2.244 2.244 0 0 1 .34 3.147 2.202 2.202 0 0 1-.85.656c-.217.846-.422 1.373-.422 1.373s-.368-.556-.637-1.197c-.394-.033-.814-.223-1.175-.515-.96-.778-1.146-2.152-.375-3.12zm-.763-.618c-1.057 1.35-.648 3.42.511 4.44.698.586 1.111.684 1.111.684l1.466 1.815.91-2.099s.78-.54.987-.801a3.253 3.253 0 0 0-.49-4.535 3.185 3.185 0 0 0-4.495.496z" fill="#7D0100"/></g></svg>