<svg width="24" height="24" viewBox="0 0 24 24" xmlns="http://www.w3.org/2000/svg"><title>4CE0A662-C199-41A5-8F86-BCA176A16273</title><g fill="none" fill-rule="evenodd"><path d="M12 24c6.627 0 12-5.373 12-12S18.627 0 12 0 0 5.373 0 12s5.373 12 12 12z" fill="#FFF"/><path d="M12 24c6.627 0 12-5.373 12-12S18.627 0 12 0 0 5.373 0 12s5.373 12 12 12z" fill="#E4B821"/><path d="M3 14.95h1.94V8H3zM9.083 8l-.45 3.248-.275-1.766A48.068 48.068 0 0 0 8.122 8H5.605v6.95h1.7l.008-4.588.715 4.588h1.211l.682-4.69.004 4.69h1.698V8h-2.54zm5.577 1.253c.075.04.126.105.148.196.022.087.033.29.033.603v2.69c0 .466-.033.749-.098.854-.066.104-.236.154-.515.154V9.19c.21 0 .355.02.431.063zm-.02 5.697c.465 0 .813-.024 1.046-.071.228-.047.424-.128.58-.25a.933.933 0 0 0 .33-.491c.066-.21.102-.626.102-1.25v-2.439c0-.657-.03-1.098-.069-1.324a1.208 1.208 0 0 0-.327-.609c-.17-.182-.424-.314-.754-.394-.33-.081-.875-.122-1.814-.122h-1.448v6.95h2.355zm5.247-1.685c0 .334-.019.55-.055.637-.036.088-.192.131-.312.131-.116 0-.192-.04-.232-.128-.036-.084-.058-.28-.058-.586v-1.836c0-.316.018-.512.05-.593.037-.077.113-.117.225-.117.12 0 .28.047.32.134.04.091.062.283.062.576v1.782zM17.357 8v6.95h1.75l.123-.442c.156.179.33.31.522.401.193.088.476.132.697.132.305 0 .573-.075.794-.226.225-.148.367-.327.425-.53.061-.204.09-.514.09-.929v-1.95c0-.421-.007-.694-.029-.822a.91.91 0 0 0-.177-.394.968.968 0 0 0-.432-.314 1.86 1.86 0 0 0-.671-.11c-.221 0-.508.04-.7.124a1.577 1.577 0 0 0-.519.37V8h-1.872z" fill="#020303"/></g></svg>