<svg width="32" height="32" viewBox="0 0 32 32" xmlns="http://www.w3.org/2000/svg"><title>33E25605-4858-40F1-B54A-BF785B40C56E</title><path d="M17.106 18.063A23.49 23.49 0 0 0 20.272 21h1.604c1.804-1.396 3.459-3.033 4.78-4.92.905-1.29 1.903-2.935 2.232-4.587.072-.36.112-.722.112-1.08C29 7.974 27.074 6 24.7 6c-1.568 0-2.937.865-3.688 2.153C20.262 6.865 18.892 6 17.324 6c-1.34 0-2.536.63-3.324 1.614M9.887 10.05c.2-.034.406-.05.613-.05 2.485 0 4.5 2.463 4.5 5.5S12.985 21 10.5 21 6 18.537 6 15.5c0-1.809.715-3.415 1.819-4.417 0 0 .712-.798 2.068-1.032zM13 21c.552.706 1.34.804 2.042 1.205.372.212.75.43 1.053.743.722.745.71 2.066.905 3.052m-9-6c-.037 1.294-1.91 1.736-2.91 2.262-.396.21-.798.423-1.123.732-.771.735-.76 2.036-.967 3.006M21 8v.615" stroke-width="2" stroke="#235F81" fill="none" stroke-linecap="round" stroke-linejoin="round"/></svg>