<svg width="32" height="32" viewBox="0 0 32 32" xmlns="http://www.w3.org/2000/svg"><title>9A6F6155-53BC-41E2-BFCE-E3A687D06ED6</title><path d="M6.745 23.109c0 1.33-1.063 2.409-2.373 2.409-1.31 0-2.372-1.079-2.372-2.409 0-1.33 1.062-2.409 2.372-2.409 1.31 0 2.373 1.079 2.373 2.409zm8.141-6.659c0 1.331-1.062 2.41-2.372 2.41-1.31 0-2.372-1.079-2.372-2.41 0-1.33 1.062-2.408 2.372-2.408 1.31 0 2.372 1.078 2.372 2.409zm7.634 7.75c0 1.331-1.062 2.41-2.372 2.41-1.31 0-2.372-1.079-2.372-2.41 0-1.33 1.062-2.408 2.372-2.408 1.31 0 2.373 1.078 2.373 2.409zm7.635-15.5c0 1.331-1.063 2.41-2.373 2.41-1.31 0-2.372-1.079-2.372-2.41 0-1.33 1.062-2.408 2.372-2.408 1.31 0 2.373 1.078 2.373 2.409zm-8.562 12.769l5.288-10.01m-11.65 6.458l3.5 4.076M7.179 20.7l3.107-2.1" stroke="#235F81" stroke-width="2" fill="none" stroke-linecap="round" stroke-linejoin="round"/></svg>