<svg width="24" height="24" viewBox="0 0 24 24" xmlns="http://www.w3.org/2000/svg"><title>DEA4536D-CA52-4D5F-9BB1-6709E8C01C61</title><g transform="translate(-186 -23)" fill="none" fill-rule="evenodd"><circle fill="#2A5B83" cx="198" cy="35" r="12"/><g fill="#FFF"><path d="M197.984 28c-1.897 0-2.135.008-2.88.042-.743.034-1.25.152-1.695.325a3.43 3.43 0 0 0-1.237.807c-.388.39-.627.78-.805 1.24-.173.445-.291.954-.325 1.699-.034.746-.042.984-.042 2.885 0 1.9.008 2.139.042 2.885.034.745.152 1.253.325 1.699.178.46.417.85.805 1.24.388.388.778.627 1.237.806.444.173.952.292 1.695.325.745.035.983.043 2.88.043 1.897 0 2.134-.008 2.88-.043.743-.033 1.25-.152 1.695-.325a3.433 3.433 0 0 0 1.237-.807 3.43 3.43 0 0 0 .805-1.24c.173-.444.29-.953.325-1.698.034-.746.042-.985.042-2.885s-.008-2.139-.042-2.885c-.034-.745-.152-1.254-.325-1.699a3.431 3.431 0 0 0-.805-1.24 3.423 3.423 0 0 0-1.237-.807c-.445-.173-.952-.29-1.696-.325-.745-.034-.982-.042-2.88-.042m0 1.26c1.866 0 2.087.008 2.823.042.681.03 1.05.145 1.297.24.326.128.559.28.803.524.244.245.396.478.522.805.096.246.21.617.24 1.3.034.737.042.958.042 2.827 0 1.868-.008 2.09-.041 2.828-.031.682-.145 1.052-.24 1.299-.127.327-.279.56-.523.805a2.163 2.163 0 0 1-.803.523c-.246.096-.616.21-1.297.24-.736.035-.957.042-2.822.042-1.865 0-2.086-.007-2.822-.041-.681-.031-1.05-.145-1.297-.241a2.163 2.163 0 0 1-.803-.523 2.169 2.169 0 0 1-.522-.805c-.096-.247-.21-.617-.24-1.3-.035-.737-.042-.959-.042-2.827 0-1.869.007-2.09.041-2.828.031-.682.145-1.053.24-1.3.127-.326.279-.56.523-.804.244-.245.477-.396.803-.523.246-.096.616-.21 1.297-.241.736-.034.957-.041 2.822-.041"/><path d="M198.086 37.426a2.33 2.33 0 0 1-2.328-2.333 2.33 2.33 0 0 1 2.328-2.332 2.33 2.33 0 0 1 2.328 2.332 2.33 2.33 0 0 1-2.328 2.333m0-5.926a3.59 3.59 0 0 0-3.586 3.593 3.59 3.59 0 0 0 3.586 3.594 3.59 3.59 0 0 0 3.587-3.594 3.59 3.59 0 0 0-3.587-3.593m4.39-.56a.839.839 0 1 1-1.678.001.839.839 0 0 1 1.678-.001"/></g></g></svg>