<svg width="54" height="56" viewBox="0 0 54 56" xmlns="http://www.w3.org/2000/svg"><title>03FD1673-D94F-4D19-8A6E-1949780BE36A</title><path d="M24.987 15.359c3.95 0 7.164-3.297 7.164-7.348 0-4.052-3.214-7.348-7.164-7.348-3.95 0-7.164 3.296-7.164 7.348 0 4.051 3.213 7.348 7.164 7.348m28.288 15.15c-.58-1.128-1.941-1.56-3.04-.964l-10.803 5.847a2.298 2.298 0 0 0-.195.119 42.896 42.896 0 0 0-4.087-.929l-2.18 4.319c2.807.41 5.374 1.041 7.544 1.874 3.613 1.387 5.23 3.029 5.23 4.04 0 1.012-1.617 2.653-5.23 4.04-4.068 1.563-9.523 2.423-15.362 2.423s-11.295-.86-15.363-2.423c-3.612-1.387-5.229-3.028-5.229-4.04 0-1.011 1.617-2.653 5.229-4.04 3-1.152 6.755-1.92 10.86-2.245l2.946 6.333a1.5 1.5 0 0 0 1.348.876h.005c.575 0 1.099-.336 1.35-.866l5.116-10.77c.1-.21.152-.441.152-.674V20.888c0-.85-.672-1.539-1.5-1.539H19.937c-.829 0-1.5.69-1.5 1.539v12.54c0 .23.05.456.146.663v.001c-3.865.427-7.425 1.228-10.373 2.36C1.473 39.039.059 42.428.059 44.815c0 2.388 1.414 5.777 8.152 8.364 4.56 1.75 10.577 2.715 16.94 2.715 6.365 0 12.381-.964 16.942-2.715 6.737-2.587 8.152-5.976 8.152-8.364 0-2.021-1.016-4.761-5.417-7.124l7.507-4.063c1.1-.595 1.52-1.992.94-3.12" fill="#FFF" fill-rule="evenodd"/></svg>