<svg width="24" height="24" viewBox="0 0 24 24" xmlns="http://www.w3.org/2000/svg"><title>77436F04-CD37-47F6-86EE-14B620476162</title><g stroke="#166791" stroke-width="1.5" fill="none" fill-rule="evenodd" stroke-linecap="round" stroke-linejoin="round"><path d="M12.76 11.952c0 2.985-2.485 5.405-5.55 5.405s-5.55-2.42-5.55-5.405c0-2.986 2.485-5.405 5.55-5.405s5.55 2.42 5.55 5.405z"/><path d="M9.234 9.88a2.82 2.82 0 0 1 .914 2.071c0 1.578-1.319 2.862-2.939 2.862s-2.937-1.284-2.937-2.862 1.317-2.86 2.937-2.86m5.749 2.119h8.287l1.425.695m-9.91 1.851h9.139m-6.763-.002v1.908m4.404-1.908v1.908m-2.233-1.485v2.544"/></g></svg>