<svg width="24" height="24" viewBox="0 0 24 24" xmlns="http://www.w3.org/2000/svg"><title>2E8064B2-5450-4F78-B552-440A68F50FE1</title><g fill="none" fill-rule="evenodd"><path d="M12 24c6.627 0 12-5.373 12-12S18.627 0 12 0 0 5.373 0 12s5.373 12 12 12z" fill="#3079BA"/><path d="M19.971 17.014c0 .57-.223.886-.826 1.09-.926.312-1.86.604-2.79.902-1.883.604-3.766 1.207-5.65 1.807-.184.058-.376.1-.566.133-.524.093-.836-.05-1.103-.51-.258-.442-.412-.927-.574-1.408-.919-2.733-1.768-5.488-2.74-8.204-.53-1.482-1.106-2.949-1.592-4.446-.272-.839-.149-1.103.675-1.435.893-.36 1.807-.665 2.746-.886.654-.155.96-.006 1.243.597.379.81.623 1.668.873 2.521.883 3.014 1.89 5.99 2.862 8.976.06.188.14.168.288.12 1.775-.573 3.551-1.142 5.327-1.71.185-.06.371-.113.567-.129.387-.031.596.085.764.44.152.323.223.67.294 1.015.077.374.203.74.202 1.127" fill="#FDFEFE"/></g></svg>