<svg width="24" height="24" viewBox="0 0 24 24" xmlns="http://www.w3.org/2000/svg"><title>E0D8B458-47F6-4782-97CB-DBF2D3D9EF58</title><g fill="none" fill-rule="evenodd"><path d="M12 24c6.627 0 12-5.373 12-12S18.627 0 12 0 0 5.373 0 12s5.373 12 12 12z" fill="#D61F1E"/><path d="M10.938 15.907l-.66-1.794s-1.072 1.196-2.68 1.196c-1.423 0-2.433-1.237-2.433-3.216 0-2.536 1.278-3.443 2.536-3.443 1.814 0 2.392 1.175 2.887 2.68l.66 2.062c.66 2 1.896 3.608 5.463 3.608C19.268 17 21 16.217 21 14.155c0-1.67-.949-2.536-2.722-2.949l-1.32-.288c-.906-.207-1.174-.578-1.174-1.196 0-.701.556-1.114 1.463-1.114.99 0 1.526.371 1.609 1.258l2.061-.247C20.753 7.763 19.474 7 17.371 7c-1.855 0-3.67.701-3.67 2.948 0 1.403.68 2.29 2.392 2.702l1.402.33c1.051.247 1.402.68 1.402 1.278 0 .762-.742 1.072-2.144 1.072-2.083 0-2.949-1.093-3.444-2.598l-.68-2.062C11.763 7.99 10.38 7 7.639 7 4.61 7 3 8.917 3 12.175 3 15.31 4.608 17 7.495 17c2.33 0 3.443-1.093 3.443-1.093" fill="#FFF"/></g></svg>