<svg width="32" height="32" viewBox="0 0 32 32" xmlns="http://www.w3.org/2000/svg" xmlns:xlink="http://www.w3.org/1999/xlink"><title>C4369144-AE06-4916-B3B8-3301B6B00F57</title><defs><rect id="a" x="5.655" y="15.527" width="8.793" height="6.402" rx="3"/><mask id="c" x="0" y="0" width="8.793" height="6.402" fill="#fff"><use xlink:href="#a"/></mask><rect id="b" x="15.347" y="9.948" width="8.793" height="6.402" rx="3"/><mask id="d" x="0" y="0" width="8.793" height="6.402" fill="#fff"><use xlink:href="#b"/></mask></defs><g transform="translate(3 4)" fill="none" fill-rule="evenodd"><use stroke="#235F81" mask="url(#c)" stroke-width="4" transform="rotate(-30 10.052 18.728)" xlink:href="#a"/><use stroke="#235F81" mask="url(#d)" stroke-width="4" transform="rotate(-30 19.744 13.149)" xlink:href="#b"/><path d="M11.09 18.137l7.703-4.447" stroke="#235F81" stroke-width="2" stroke-linecap="round" stroke-linejoin="round"/><path d="M.33 3.894h2.552v7.917H.33V3.894zm9.523-.076c-1.462 0-2.378.775-2.547 1.319V3.894H4.44c.037.66 0 7.917 0 7.917h2.866V7.527c0-.238-.011-.476.063-.647.197-.476.62-.97 1.381-.97.996 0 1.448.732 1.448 1.804v4.097h2.893V7.41c0-2.452-1.425-3.591-3.238-3.591zM1.559.157C.616.157 0 .749 0 1.53c0 .767.599 1.372 1.522 1.372h.019c.96 0 1.556-.607 1.556-1.374C3.08.748 2.5.157 1.56.157z" fill="#235F81"/></g></svg>