<svg width="32" height="32" viewBox="0 0 32 32" xmlns="http://www.w3.org/2000/svg"><title>2E01E00F-F490-4D58-9AF9-5EA20BF9F6F4</title><g stroke="#235F81" stroke-width="2" fill="none" fill-rule="evenodd" stroke-linecap="round" stroke-linejoin="round"><path d="M20.894 20.6c-.834.464-1.588.485-2.308 0l-12.32-8.32c-1.109-.75-1.255-2.485-.325-3.856L7.82 5.65c.93-1.372 2.598-1.882 3.707-1.133l12.32 8.32c.66.447 1.11 1.61.97 2.76-.096.781-.594 1.552-.97 2.107"/><path d="M11.244 11.72c.746-.306 1.546-.283 2.17.14l12.32 8.32c1.109.75 1.255 2.484.326 3.856l-1.88 2.772c-.928 1.373-2.597 1.882-3.705 1.134L8.155 19.62c-.753-.51-1.063-1.474-.892-2.47"/></g></svg>