<svg width="24" height="24" viewBox="0 0 24 24" xmlns="http://www.w3.org/2000/svg"><title>BE796077-0583-4C18-BC3B-540B5A15CA56</title><g fill="none" fill-rule="evenodd"><path d="M12 24c6.627 0 12-5.373 12-12S18.627 0 12 0 0 5.373 0 12s5.373 12 12 12z" fill="#E14925"/><circle fill="#006FA5" cx="12" cy="12" r="12"/><path d="M5.35 8.966h2.705v8.402H5.35V8.966zm10.095-.08c-1.55 0-2.52.822-2.7 1.399v-1.32H9.707c.039.701 0 8.403 0 8.403h3.038V12.82c0-.252-.012-.505.066-.686.21-.506.658-1.03 1.465-1.03 1.055 0 1.535.777 1.535 1.915v4.348h3.067v-4.672c0-2.602-1.51-3.81-3.433-3.81zM6.652 5C5.653 5 5 5.629 5 6.459c0 .814.635 1.456 1.614 1.456h.02c1.016 0 1.65-.645 1.65-1.459C8.263 5.627 7.65 5 6.651 5z" fill="#FFF"/></g></svg>