<svg width="24" height="24" viewBox="0 0 24 24" xmlns="http://www.w3.org/2000/svg"><title>29519416-9FFA-475A-B2CE-16EB726610E2</title><g stroke="#235F81" stroke-width="1.5" fill="none" fill-rule="evenodd" stroke-linecap="round" stroke-linejoin="round"><path d="M15.56 14.952c-.608.334-1.156.35-1.68 0L4.922 8.961c-.807-.539-.913-1.789-.236-2.776L6.05 4.189c.677-.988 1.89-1.355 2.696-.816l8.96 5.99c.48.322.807 1.16.705 1.988-.069.562-.432 1.117-.705 1.516"/><path d="M8.54 8.558c.544-.22 1.126-.203 1.58.1l8.959 5.992c.807.539.913 1.788.237 2.776l-1.366 1.996c-.676.988-1.89 1.355-2.695.816l-8.96-5.99c-.548-.368-.773-1.062-.65-1.78"/></g></svg>