<svg width="24" height="24" viewBox="0 0 24 24" xmlns="http://www.w3.org/2000/svg"><title>7CD41CE3-B2D6-40FE-98C5-A607A28FC72C</title><g fill="none" fill-rule="evenodd"><path d="M12 24c6.627 0 12-5.373 12-12S18.627 0 12 0 0 5.373 0 12s5.373 12 12 12z" fill="#B3CDE2"/><path d="M17.097 6.125c-2.309-.795-6.117.672-8.504 3.276-.096.106-.189.21-.277.316l.53-.128.053-.058c1.315-1.437 3.02-2.444 4.696-2.904a6.49 6.49 0 0 1 1.193-.227c.675-.066 1.306-.015 1.847.172.371.128.675.311.913.539.788.658 1.126 1.713.917 2.887-.532 2.334-1.88 3.815-3.97 5.593 3.421-1.518 6.525-7.77 2.602-9.466m2.355-1.293c2.55 1.861 1.81 6.74-1.648 10.895-3.452 4.156-8.32 6.016-10.87 4.155-2.344-1.712-1.911-5.978.866-9.885h.584c-2.7 3.652-3.132 7.45-.856 9.109 2.275 1.658 6.876.21 10.056-3.61 1.905-2.29 2.755-4.818 2.755-6.846 0-.49-.06-.952-.187-1.375-.216-.74-.615-1.357-1.214-1.792a3.395 3.395 0 0 0-1.406-.59c-1.558-.383-3.624-.1-5.604.88C7.96 7.687 6.046 10.84 4 14.566c1.28-4.288 5.355-9.24 10.305-10.345 1.656-.369 3.717-.432 5.147.61" fill="#809BBF"/><path fill="#FFF" d="M4.974 7.107l.31-.937.607-.825.803-.658.733-.503.676-.182.662-.126.987 1.245-.69.154-.973.335-.62.448-.691.56-.677 1.063-.154.881z"/><path fill="#B4BCCE" d="M4.974 7.107l.31-.937.607-.825.553-.453.914 1.256-.58.47-.677 1.063-.154.881z"/><path fill="#F2A4A3" d="M5.566 4.043l-.704 1.008-.31.7-.015.6.31.728.184-.182.24-.783.802-.91.691-.587.606-.364.747-.265.649-.015-.537-.783-1.112.042-1.001.433z"/><path stroke="#000" stroke-width=".087" d="M5.566 4.043l-.704 1.008-.31.7-.015.6.31.728.184-.182.24-.783.802-.91.691-.587.606-.364.747-.265.649-.015-.537-.783-1.112.042-1.001.433z"/><path fill="#78ABCE" d="M7.314 6.198l-.564.517-.423.518-.24.532-.14.433v.476l2.86 3.75 1.015 1.132h.254l.282-.377.324-.574.155-.475v-.476l-.084-.783-.197-.393z"/><path fill="#B3CDE2" d="M9.84 5.24l-.489.013-.765.17-.708.288-.384.324-.155.162 3.385 4.562.484.236 1.078.169.871-.127.37-.19.268-.31-.184-.557z"/><path d="M10.696 10.723c.436.284.958.45 1.519.45a2.77 2.77 0 0 0 1.564-.48l.755 4.803-4.518-1.873a2.733 2.733 0 0 0 .68-2.9" fill="#FED99E"/><path d="M10.696 10.723c.436.284.958.45 1.519.45a2.77 2.77 0 0 0 1.564-.48l.755 4.803-4.518-1.873a2.733 2.733 0 0 0 .68-2.9zM8.977 4.05C7.573 3.59 4.9 5.614 5.045 7.325" stroke="#26467C" stroke-width=".285" stroke-linecap="round" stroke-linejoin="round"/><path d="M12.987 14.855a1.652 1.652 0 0 1 1.265-1.152l.282 1.793-1.547-.641z" fill="#26467C"/><path d="M7.324 6.194l3.427 4.566m-.875-5.446C8.472 4.855 5.798 6.878 5.944 8.59" stroke="#26467C" stroke-width=".285" stroke-linecap="round" stroke-linejoin="round"/><path d="M4.664 6.821l5.062 6.682 4.808 1.993-.82-5.222L8.65 3.621c-1.05-1.593-5.064 1.306-3.987 3.2z" stroke="#26467C" stroke-width=".57" stroke-linecap="round" stroke-linejoin="round"/></g></svg>