<svg width="24" height="24" viewBox="0 0 24 24" xmlns="http://www.w3.org/2000/svg"><title>4D5C9738-A050-4F04-AAF4-11C376E8C4C1</title><g fill="none" fill-rule="evenodd"><path d="M12 24c6.627 0 12-5.373 12-12S18.627 0 12 0 0 5.373 0 12s5.373 12 12 12z" fill="#BFBFBF"/><path fill="#FFF" d="M3.083 16.729H20.83V9.025H3.083z"/><path d="M15.106 14.33c-.192-.134-.352-.698-.418-1.475-.037-.426-.032-.632.018-.713.035-.056.235-.03.414.054.331.156.321.13.353.895.033.775.053.932.116.912.082-.028.385-.516.431-.696.027-.102.043-.363.038-.61-.01-.6.03-.637.462-.437.345.16.347.165.295.579-.047.372-.096.522-.203.62a1.05 1.05 0 0 0-.153.223c-.047.09-.108.163-.136.163-.027 0-.057.025-.065.056-.014.05-.01.05.024 0 .022-.031.04-.04.04-.019 0 .082-.365.432-.487.467-.197.056-.638.045-.729-.019zm-3.502-1.52c.012-.046.022-.268.021-.493 0-.393-.003-.406-.059-.303-.071.132-.274.712-.274.784 0 .062.056.09.191.093.072.003.104-.02.12-.08zm.08 1.587c-.553-.07-.751-.174-.98-.51-.168-.249-.177-.276-.198-.58a1.663 1.663 0 0 1 .066-.655c.214-.824.287-.97.698-1.397.187-.195.233-.224.351-.223.075 0 .21.034.3.074a.887.887 0 0 0 .207.074c.024 0 .083.036.13.08.085.079.086.094.061.494-.014.227-.041.43-.06.453-.018.022-.038.26-.044.528l-.01.487-.21.059c-.185.052-.242.052-.484.006-.318-.06-.342-.046-.319.193.02.192.218.514.364.59.207.107.628.037.732-.12.069-.106.141-.109.299-.013.156.096.164.23.019.297-.357.166-.584.206-.923.163zM9.54 12.335c0-.205-.014-.372-.033-.372-.038 0-.183.344-.228.54-.026.119-.02.14.05.168.202.081.211.067.211-.336zm-.235 2.121c-.177-.042-.254-.082-.505-.267-.288-.213-.334-.34-.339-.94-.005-.609.018-.829.12-1.153.094-.297.299-.547.638-.78.23-.159.25-.16.705-.035.173.047.228.081.274.17.118.23.157 1.494.051 1.666-.037.06-.6.063-.858.005-.08-.018-.154-.023-.165-.012-.012.011-.02.14-.02.284 0 .314.08.518.261.67.11.092.143.101.294.079a.909.909 0 0 0 .267-.082c.129-.076.473-.009.59.116l.081.086-.197.075c-.362.138-.892.19-1.197.118zm-1.494.02a.423.423 0 0 1-.023-.122 1.36 1.36 0 0 0-.096-.286 8.71 8.71 0 0 1-.354-1.118c-.07-.32-.151-.584-.173-.562-.012.012-.035.353-.052.758-.016.405-.052.811-.08.904l-.048.167-.368.034-.368.034-.083-.103a7.35 7.35 0 0 1-.316-.491 3.475 3.475 0 0 0-.244-.377c-.006.006.012.175.04.376s.043.387.033.414c-.033.085-.402.22-.588.214-.172-.005-.209-.076-.264-.514-.092-.733-.103-.946-.076-1.577l.027-.624.164-.044c.265-.07.558-.057.639.03.038.04.218.363.4.717l.332.644.047-.354c.071-.533.313-1.337.48-1.59.062-.096.068-.097.383-.073.375.03.431.067.507.337.168.602.226.844.395 1.667.04.197.1.43.13.517a.98.98 0 0 1 .056.227c0 .037.042.197.093.354.094.288.113.383.068.338-.013-.013-.047-.006-.074.017-.04.033-.433.137-.54.143-.013 0-.034-.025-.047-.058zm5.464-.598a8.696 8.696 0 0 0-.062-.72c-.01-.016-.148-.041-.307-.056-.327-.03-.384-.06-.384-.21 0-.167.12-.226.4-.198l.233.024-.001-.144a4.836 4.836 0 0 0-.038-.425c-.143-1.126-.17-1.925-.073-2.18.03-.078.06-.093.187-.093.146 0 .49.142.54.223.013.021.032.495.042 1.053.024 1.308.024 1.22-.006 1.36-.023.108-.017.122.056.122.067 0 .08-.019.07-.103-.01-.087.002-.104.087-.114.079-.01.15.037.344.222.135.129.246.253.246.278 0 .053-.132.083-.66.148l-.157.02.019.701c.02.796.042.741-.304.768l-.189.015-.043-.69zm4.703-.538c.153-.145.32-.345.372-.444.115-.22.178-.584.148-.845-.035-.297-.068-.319-.222-.144-.255.287-.408.624-.524 1.153-.104.472-.115.543-.082.543.017 0 .156-.119.308-.263zm-.83 2.536c-.072-.053-.197-.738-.248-1.36-.026-.302-.038-.344-.135-.434-.153-.143-.127-.33.046-.33.065 0 .104-.127.131-.429.037-.404.206-1.037.358-1.34.184-.364.657-.766.902-.766.08 0 .297.07.562.183l.18.074c.134.054.274.353.306.657a1.9 1.9 0 0 1-.148.889c-.18.402-.944 1.085-1.323 1.182l-.189.048.001.356c.002.442.054.863.135 1.074.034.088.049.172.034.187-.03.03-.573.038-.612.009zm3.647-3.075V9.205H3.205v7.193h17.59V12.8zm-17.06 5.12c-.24-.093-.518-.357-.643-.61L3 17.124V6.876l.092-.187c.129-.261.403-.518.654-.612L3.953 6h16.094l.213.08c.257.096.54.362.658.62l.082.176v10.248l-.082.177a1.324 1.324 0 0 1-.658.62l-.213.079-8.058-.002c-7.993-.002-8.059-.002-8.253-.077z" fill="#F00101"/><path d="M15.107 14.33c-.194-.135-.353-.703-.423-1.51-.034-.393-.027-.598.022-.678.035-.056.235-.03.414.054.331.156.321.13.353.895.033.775.053.932.116.912.082-.028.385-.516.431-.695a2.61 2.61 0 0 0 .04-.53 49.11 49.11 0 0 1-.006-.434c0-.107.072-.195.16-.195.093 0 .535.209.595.282.041.049.042.123.006.408-.047.372-.096.522-.203.62a1.048 1.048 0 0 0-.153.223c-.047.09-.109.163-.136.163-.027 0-.057.025-.065.056-.014.05-.01.05.024 0 .022-.031.04-.04.04-.019 0 .082-.365.432-.487.467-.196.056-.638.045-.728-.018zm-3.503-1.52c.012-.046.022-.268.021-.493 0-.393-.003-.406-.059-.303-.071.132-.274.712-.274.784 0 .062.056.09.191.093.072.003.104-.02.12-.08zm.08 1.587c-.553-.07-.751-.174-.98-.51-.17-.252-.177-.273-.198-.599-.016-.233-.008-.378.025-.468.026-.072.074-.252.107-.4.114-.528.238-.755.637-1.17.182-.19.228-.219.346-.218.075 0 .21.034.3.074a.887.887 0 0 0 .207.074c.024 0 .083.036.13.08.085.079.086.094.061.494-.014.227-.041.43-.06.453-.018.022-.038.26-.044.528l-.01.487-.21.059c-.185.052-.242.052-.484.006-.303-.057-.33-.046-.33.145-.001.15.132.413.285.566.107.107.153.126.298.126.239 0 .457-.073.524-.174.069-.106.141-.109.299-.012.188.114.167.232-.06.33-.316.135-.532.169-.844.129zm-2.137-1.829c.018-.215-.01-.605-.043-.605-.036 0-.182.352-.225.54-.026.119-.02.14.05.168.163.066.206.045.218-.103zm-.242 1.888c-.177-.042-.254-.082-.505-.267-.286-.212-.334-.342-.34-.922-.006-.593.02-.851.12-1.164.09-.291.31-.564.63-.78.191-.13.209-.134.405-.106.35.051.523.12.582.234.116.223.157 1.497.053 1.664-.037.06-.651.062-.857.003-.068-.02-.139-.026-.156-.015-.018.01-.032.14-.031.287 0 .318.08.521.261.674.11.092.143.101.294.078a.909.909 0 0 0 .266-.081c.13-.077.474-.009.591.116l.081.086-.197.075c-.362.138-.892.19-1.197.118zm-1.514-.099a2.902 2.902 0 0 0-.135-.382c-.097-.22-.222-.636-.353-1.174a3.399 3.399 0 0 0-.111-.39c-.042-.077-.067.168-.09.875-.01.328-.04.671-.068.764l-.05.167-.367.034-.368.034-.083-.103a7.35 7.35 0 0 1-.316-.491 3.554 3.554 0 0 0-.244-.377c-.006.005.011.167.038.36.026.193.04.38.031.415-.025.097-.377.235-.584.23-.172-.006-.209-.077-.264-.515-.093-.747-.102-.92-.075-1.562l.027-.639.164-.044c.264-.07.557-.057.638.03.038.04.218.363.4.717l.332.644.047-.354c.07-.522.276-1.22.454-1.535l.07-.123.329.008c.27.007.342.021.402.081.094.094.27.762.53 2.006.031.148.081.339.111.424a.97.97 0 0 1 .055.223c0 .038.042.198.093.355.094.288.113.383.068.338-.013-.014-.047-.006-.074.017-.04.033-.432.137-.54.143-.012 0-.043-.079-.067-.176zm5.484-.479a8.696 8.696 0 0 0-.062-.72c-.01-.016-.148-.041-.307-.056-.327-.03-.384-.06-.384-.21 0-.167.12-.226.4-.198l.233.024-.001-.144a4.836 4.836 0 0 0-.038-.425c-.143-1.126-.17-1.925-.073-2.18.03-.078.06-.093.187-.093.146 0 .49.142.54.223.019.03.05 1.144.061 2.18 0 .062-.01.167-.025.233-.023.108-.017.122.056.122.067 0 .08-.019.07-.103-.011-.087.002-.104.087-.114.08-.01.15.037.353.231.139.134.24.255.225.27-.056.057-.311.124-.473.125-.357.003-.334-.05-.313.745.02.793.042.739-.304.766l-.189.015-.043-.69zm4.703-.538c.155-.147.321-.348.377-.454.116-.222.174-.562.142-.835-.035-.302-.066-.32-.235-.127-.26.294-.394.61-.54 1.269-.035.153-.071.308-.081.344-.035.122.06.066.337-.197zm-.83 2.536c-.07-.052-.196-.75-.25-1.379-.024-.282-.039-.327-.133-.415-.154-.143-.127-.33.047-.33.067 0 .1-.097.125-.36.043-.47.203-1.09.364-1.409.183-.364.656-.766.901-.766.08 0 .297.07.562.183.041.018.122.05.18.074.072.029.131.102.193.237.162.358.156.802-.015 1.259-.152.404-.942 1.129-1.342 1.231l-.19.05.001.355c.002.442.054.863.135 1.074.034.088.049.172.034.187-.03.03-.573.038-.612.009z" fill="#030303"/></g></svg>