<svg width="32" height="32" viewBox="0 0 32 32" xmlns="http://www.w3.org/2000/svg"><title>C3611E46-B342-469F-84E9-96E4445475C0</title><path d="M19.677 17.625c0 2.665-2.145 4.827-4.792 4.827-2.646 0-4.791-2.162-4.791-4.827 0-2.666 2.145-4.828 4.791-4.828 2.647 0 4.792 2.162 4.792 4.828zM8.34 9.948c0 .888-.716 1.608-1.596 1.608a1.6 1.6 0 0 1-1.596-1.608 1.6 1.6 0 0 1 1.596-1.607c.88 0 1.595.72 1.595 1.607zm14.543-3.391a1.998 1.998 0 0 1-1.99 2.005 1.997 1.997 0 0 1-1.99-2.005c0-1.107.891-2.005 1.99-2.005 1.098 0 1.99.898 1.99 2.005zm6.086 18.561a2.59 2.59 0 0 1-2.581 2.6 2.59 2.59 0 0 1-2.58-2.6 2.59 2.59 0 0 1 2.58-2.6 2.59 2.59 0 0 1 2.58 2.6zm-3.229-8.844c0 .47-.378.85-.845.85a.848.848 0 0 1-.845-.85c0-.47.378-.851.845-.851.467 0 .845.38.845.85zM5.576 26.245c0 .47-.378.851-.845.851a.848.848 0 0 1-.845-.851c0-.47.378-.851.845-.851.467 0 .845.38.845.85zm18.236-2.63l-4.637-2.52m-1.515-8.467l2.185-4.403m-8.967 6.662l-3.22-3.474m.323 12.078l2.953-2.827m8.743-4.055l1.598-.085" stroke="#235F81" stroke-width="2" fill="none" stroke-linecap="round" stroke-linejoin="round"/></svg>