<svg width="24" height="24" viewBox="0 0 24 24" xmlns="http://www.w3.org/2000/svg"><title>3EF1D568-DD9B-4659-9C55-5D3047C33A9F</title><g fill="none" fill-rule="evenodd"><path d="M12 24c6.627 0 12-5.373 12-12S18.627 0 12 0 0 5.373 0 12s5.373 12 12 12z" fill="#FFF"/><g transform="translate(1 4.049)"><mask id="a" fill="#fff"><use/></mask><path d="M5.73 5.42c-.148-.092-.25-.16-.357-.22a2.746 2.746 0 0 0-3.185.299 2.905 2.905 0 0 0-.833 3.146 2.79 2.79 0 0 0 2.612 1.882c3.464.004 6.929.006 10.394-.002 1.05-.002 1.896-.871 1.929-1.94.03-1.032-.786-1.948-1.8-2.034-.277-.023-.47.013-.545.341-.05.222-.18.425-.286.664l-1.026-.57c.67-1.627.586-3.13-.577-4.438C10.995 1.353 9.639.993 8.13 1.443c-1.243.371-2.067 1.236-2.5 2.48l.829.546-.729.952m8.539-.105c1.22.043 2.159.542 2.763 1.584 1.24 2.139-.219 4.822-2.662 4.845-3.477.033-6.956.027-10.434.001C1.711 11.73-.034 9.87.001 7.626c.034-2.252 1.82-4.038 4.04-4.018.302.003.452-.065.57-.366.874-2.228 3.173-3.54 5.456-3.134 2.338.414 4.06 2.393 4.178 4.8.006.123.014.246.024.408" fill="#000" mask="url(#a)"/></g><g transform="translate(20.402 7.895)"><mask id="b" fill="#fff"><use/></mask><path d="M.038.924C.314.608.558.33.8.051c2.347 2.173 2.612 6.59.018 9.145l-.773-.88C.94 7.313 1.47 6.081 1.473 4.638 1.476 3.196.969 1.955.038.924" fill="#000" mask="url(#b)"/></g><path d="M19.527 15.529l-.764-.856c1.118-1.809 1.108-2.912-.076-4.451l.856-.758c1.494 1.236 1.772 4.31-.016 6.065" fill="#000"/></g></svg>