<svg width="24" height="24" viewBox="0 0 24 24" xmlns="http://www.w3.org/2000/svg"><title>AE62A02B-9993-46D4-BE54-F8C8967B4564</title><g fill="none" fill-rule="evenodd"><path d="M12 24c6.627 0 12-5.373 12-12S18.627 0 12 0 0 5.373 0 12s5.373 12 12 12z" fill="#D2AE52"/><g transform="translate(3 4.125)"><mask id="a" fill="#fff"><use/></mask><path d="M9.537 15.107s-9.058.69-9.524-6.813c-.257-4.126 3.445-7.011 7.19-7.86 1.72-.389 3.562-.413 5.263.085 2.61.763 4.687 3.136 5.245 5.745.545 2.553-.5 5.052-2.27 6.903-1.574 1.645-3.64 2.812-5.811 3.505l-.093-1.565z" fill="#FFF" mask="url(#a)"/></g><path d="M16.892 14.831h-1.088c-.006-.082-.017-.167-.017-.252 0-1.057.001-2.114-.002-3.171 0-.185-.012-.372-.033-.556-.061-.54-.378-.866-.916-.957-1.051-.177-2.032.55-2.084 1.605-.05 1.01-.025 2.023-.034 3.036-.001.094-.01.188-.014.293h-1.09c-.006-.097-.015-.184-.015-.272-.002-1.08 0-2.158-.003-3.238a2.77 2.77 0 0 0-.045-.576c-.107-.502-.41-.773-.92-.85-1.01-.153-1.917.502-2.048 1.5-.045.346-.04.698-.042 1.047-.006.788-.002 1.577-.002 2.384H7.436V9.072h1.078v.913l.048.027c.513-.672 1.177-1.053 2.035-1.063.872-.01 1.566.28 1.952 1.136.064-.074.109-.132.158-.185.773-.832 1.727-1.12 2.83-.863.774.18 1.271.8 1.328 1.618.04.571.035 1.145.04 1.718.005.737.001 1.474 0 2.21 0 .08-.008.16-.013.248" fill="#D2AE52"/></g></svg>