<svg width="24" height="24" viewBox="0 0 24 24" xmlns="http://www.w3.org/2000/svg"><title>F7ABF52A-7316-47A9-AA74-2A63D311629C</title><g fill="none" fill-rule="evenodd"><path d="M12 24c6.627 0 12-5.373 12-12S18.627 0 12 0 0 5.373 0 12s5.373 12 12 12z" fill="#000"/><g transform="translate(14.597 7.01)"><mask id="a" fill="#fff"><use/></mask><path d="M2.651 4.748c1.41 0 2.554-1.032 2.554-2.306S4.062.135 2.651.135C1.24.135.096 1.168.096 2.442S1.24 4.748 2.65 4.748" fill="#FEFEFE" mask="url(#a)"/></g><path d="M11.493 12.186c1.27 0 2.3-.93 2.3-2.076 0-1.147-1.03-2.076-2.3-2.076-1.27 0-2.3.93-2.3 2.076s1.03 2.076 2.3 2.076m-5.219.384c1.143 0 2.07-.836 2.07-1.868s-.927-1.868-2.07-1.868c-1.143 0-2.07.836-2.07 1.868s.927 1.868 2.07 1.868m0 .427C4.962 12.997 4 14.04 4 15.119v.726c0 .102.093.186.207.186H8.34c.115 0 .207-.084.207-.186v-.726c0-1.078-.962-2.122-2.274-2.122" fill="#FEFEFE"/><g transform="translate(8.817 12.54)"><mask id="b" fill="#fff"><use/></mask><path d="M2.676.12C1.218.12.15 1.28.15 2.478v.806c0 .114.103.208.23.208h4.593c.128 0 .23-.094.23-.208v-.806C5.203 1.28 4.134.12 2.676.12" fill="#FEFEFE" mask="url(#b)"/></g><path d="M17.248 12.285c-1.62 0-2.808 1.288-2.808 2.62v.896c0 .127.114.23.255.23H19.8c.141 0 .256-.103.256-.23v-.896c0-1.332-1.188-2.62-2.808-2.62" fill="#FEFEFE"/></g></svg>