<svg width="32" height="32" viewBox="0 0 32 32" xmlns="http://www.w3.org/2000/svg"><title>CD388219-AB98-4C17-88BA-35709D4FB38F</title><g stroke="#235F81" stroke-width="2" fill="none" fill-rule="evenodd"><path d="M14 19a5 5 0 0 0 5-5m-5 10c5.523 0 10-4.477 10-10M14 29c8.284 0 15-6.716 15-15" stroke-linecap="round" stroke-linejoin="round"/><path d="M8.085 7S6.347 8.615 6.04 11.306c-.025.222-.039 3.184-.039 3.4h8c0-.223-.015-3.191-.042-3.42C13.643 8.6 11.915 7 11.915 7" stroke-linecap="round" stroke-linejoin="round" fill="#F2F8FD"/><path d="M7 6.243C7 4.452 8.266 3 9.827 3s2.827 1.452 2.827 3.243S11.388 10 9.827 10 7 8.034 7 6.243z" fill="#F2F8FD"/></g></svg>