<svg width="24" height="24" viewBox="0 0 24 24" xmlns="http://www.w3.org/2000/svg"><title>64C6E534-40C0-4731-88A6-5BE02A539F04</title><g fill="none" fill-rule="evenodd"><path d="M12 24c6.627 0 12-5.373 12-12S18.627 0 12 0 0 5.373 0 12s5.373 12 12 12z" fill="#FFF"/><path d="M18.716 11.87c-.011.012-.02.025-.032.036l-.001.011.033-.046m.019-.051l-.023.015-.002.025.025-.04" fill="#015386"/><g transform="translate(7 5.008)"><mask id="a" fill="#fff"><use/></mask><path d="M9.54 4.867c-.045 1.009-.574 1.71-1.532 2.121a3.728 3.728 0 0 1-1.338.286c-.805.031-1.61.007-2.416.014-.248.002-.496 0-.743 0-.13 0-.13 0-.13-.124L3.38 4.773V2.394c0-.15-.016-.14.152-.14h2.775c.288 0 .575.008.86.053.386.06.762.154 1.11.33.37.189.678.445.902.79.289.443.384.93.361 1.44m2.545-1.124a4.163 4.163 0 0 0-1.17-2.231C10.356.954 9.675.582 8.913.339A7.47 7.47 0 0 0 6.631.005H.156c-.026 0-.053.002-.08 0C.02 0 0 .023 0 .078c.003.16.003.32 0 .48a.992.992 0 0 0 .358.787c.08.072.166.139.248.21.097.084.169.182.174.313.012.01.015.022.01.036a.13.13 0 0 1 .002.078v.024c.003.34.006.68.006 1.02 0 .293-.003.586-.005.88a2.66 2.66 0 0 1 0 .428c.008.127.008.254 0 .38.002.05.007.101.007.151l-.001 3.53c0 1.193-.003 2.386.003 3.58.001.234-.075.418-.277.553-.047.032-.086.074-.133.105a.843.843 0 0 0-.233.267.922.922 0 0 0-.157.503c-.001.168-.002.337-.001.506 0 .097.002.097.1.1h.04l2.509-.001h1.42c.101 0 .103-.002.103-.098.001-.164.003-.328-.001-.493a.987.987 0 0 0-.215-.598 1.839 1.839 0 0 0-.343-.315.565.565 0 0 1-.237-.483c.005-.788.001-1.577.002-2.365 0-.161-.018-.15.158-.15H6.31c.599 0 1.192-.055 1.777-.181.851-.184 1.639-.5 2.334-1.011.154-.113.29-.245.44-.361a.039.039 0 0 1 .028-.028l.28-.302a.322.322 0 0 1 .087-.102 3.42 3.42 0 0 1 .238-.332l.002-.002a.675.675 0 0 1 .116-.195.344.344 0 0 1 .071-.127c.002-.021.007-.04.028-.052a.07.07 0 0 1 .027-.059.076.076 0 0 1 .03-.066c.001-.017.006-.032.025-.04v-.01a.252.252 0 0 1 .043-.107.064.064 0 0 1 .019-.049c.041-.154.093-.306.14-.457a3.49 3.49 0 0 0 .111-.495c.1-.596.09-1.193-.02-1.787" fill="#015386" mask="url(#a)"/></g></g></svg>