<svg width="32" height="32" viewBox="0 0 32 32" xmlns="http://www.w3.org/2000/svg"><title>E4B72269-64DC-4D75-A557-B3709B2FC4B2</title><g stroke="#235F81" stroke-width="2" fill="#F2F8FD" fill-rule="evenodd"><path d="M24.333 14s-1.945 1.881-2.29 5.014c-.028.259-.043 3.707-.043 3.96h8.948c0-.26-.016-3.717-.046-3.984-.353-3.127-2.286-4.99-2.286-4.99" stroke-linecap="round" stroke-linejoin="round"/><path d="M24 11.575C24 9.601 25.34 8 26.994 8c1.653 0 2.994 1.6 2.994 3.575s-1.34 4.142-2.994 4.142C25.34 15.717 24 13.55 24 11.575z"/><path d="M3.333 14s-1.945 1.881-2.29 5.014c-.028.259-.043 3.707-.043 3.96h8.948c0-.26-.016-3.717-.046-3.984C9.549 15.863 7.616 14 7.616 14" stroke-linecap="round" stroke-linejoin="round"/><path d="M3 11.575C3 9.601 4.34 8 5.994 8c1.653 0 2.994 1.6 2.994 3.575s-1.34 4.142-2.994 4.142C4.34 15.717 3 13.55 3 11.575z"/><path d="M12.91 13s-3.26 3.108-3.837 8.285C9.025 21.713 9 27.41 9 27.827h15c0-.43-.028-6.14-.078-6.582C23.33 16.079 20.09 13 20.09 13" stroke-linecap="round" stroke-linejoin="round"/><path d="M12 9.482C12 6.455 14.085 4 16.657 4s4.657 2.455 4.657 5.482c0 3.028-2.085 6.351-4.657 6.351S12 12.51 12 9.483z"/></g></svg>