<svg width="24" height="24" viewBox="0 0 24 24" xmlns="http://www.w3.org/2000/svg"><title>AE2D2578-8B4F-4F6F-9DC1-145683E18EC5</title><g fill="none" fill-rule="evenodd"><path d="M12 24c6.627 0 12-5.373 12-12S18.627 0 12 0 0 5.373 0 12s5.373 12 12 12z" fill="#3759F9"/><g transform="translate(4 4)"><mask id="a" fill="#fff"><use/></mask><path d="M16.852 16.934l-7.575-6.195-2.705 2.724-.1-.036c.04-.634.056-1.272.132-1.903.057-.468-.103-.797-.408-1.14-1.303-1.464-2.573-2.96-3.875-4.427-.143-.161-.412-.274-.63-.29C1.14 5.623.587 5.651 0 5.651L5.639 0c0 .621-.022 1.188.012 1.753a.88.88 0 0 0 .258.556c1.57 1.386 3.158 2.751 4.736 4.128.424.37.902.137 1.354.14.465.002.932-.062 1.52-.107l-2.886 2.704 6.311 7.678-.092.082" fill="#FFF" mask="url(#a)"/></g></g></svg>