<svg width="24" height="24" viewBox="0 0 24 24" xmlns="http://www.w3.org/2000/svg"><title>63E35A10-9B4E-41EB-85AC-6ADE343D9525</title><g fill="none" fill-rule="evenodd"><circle fill="#CE1914" cx="12" cy="12" r="12"/><path d="M4 12c0 3.276 1.97 6.09 4.79 7.327-.023-.558-.004-1.23.139-1.837l1.029-4.36s-.256-.51-.256-1.265c0-1.186.687-2.071 1.543-2.071.728 0 1.08.547 1.08 1.201 0 .732-.467 1.826-.707 2.84-.2.848.425 1.54 1.263 1.54 1.515 0 2.536-1.946 2.536-4.254 0-1.752-1.18-3.065-3.329-3.065-2.427 0-3.938 1.81-3.938 3.831 0 .697.206 1.19.526 1.57.149.174.17.245.116.446-.038.146-.126.502-.163.642-.053.202-.217.274-.4.2-1.118-.457-1.638-1.681-1.638-3.056 0-2.273 1.915-4.999 5.717-4.999 3.054 0 5.065 2.211 5.065 4.584 0 3.138-1.746 5.482-4.317 5.482-.864 0-1.676-.466-1.954-.997 0 0-.465 1.843-.564 2.2-.168.616-.501 1.232-.804 1.713A8 8 0 1 0 4 12z" fill="#FFF"/></g></svg>