<svg width="24" height="24" viewBox="0 0 24 24" xmlns="http://www.w3.org/2000/svg"><title>706D7323-0DF8-4BAC-ABA6-EAEE84491562</title><path d="M3.012 19.945C1.366 18.057.444 16.022.122 13.741-.735 7.667 2.99 2.038 8.892.423 15.86-1.485 23.001 3.277 23.9 10.429c.95 7.564-4.97 13.937-12.634 13.555-.978-.05-1.95-.324-2.908-.562-.203-.05-.47-.398-.472-.61-.026-3.766-.055-7.532 0-11.296.034-2.327 2.225-4.09 4.601-3.825 2.31.256 4.04 2.458 3.69 4.694-.346 2.203-1.904 3.567-4.235 3.707-1.814.11-2.826 1.807-2.035 3.442.407.84 1.111 1.25 2.042 1.282 4.584.155 8.684-3.557 8.986-8.135.302-4.586-2.406-8.44-6.67-9.494C9.169 1.928 4.289 4.966 3.25 10.07c-.135.663-.175 1.354-.18 2.033-.021 2.423-.008 4.848-.01 7.272 0 .133-.021.266-.047.57" fill="#3990CB" fill-rule="evenodd"/></svg>