<svg width="32" height="32" viewBox="0 0 32 32" xmlns="http://www.w3.org/2000/svg"><title>49A02961-FBBB-49C2-B620-1B222324222C</title><g fill="none" fill-rule="evenodd"><path d="M19.153 26.556c.047-.047.095-.092.14-.142l.371-.422a3.31 3.31 0 0 0-.268-4.627l-.739-.664 6.108-8.033c.657.461 1.57.37 2.114-.247a1.64 1.64 0 0 0-.133-2.294L19.27 3.409a1.602 1.602 0 0 0-2.27.134 1.637 1.637 0 0 0 .002 2.15l-7.187 7.063-.739-.664a3.231 3.231 0 0 0-4.58.27l-.372.422c-.044.05-.083.103-.124.156l15.153 13.616z"/><path d="M19.153 26.556c.047-.047.095-.092.14-.142l.371-.422a3.31 3.31 0 0 0-.268-4.627l-.739-.664 6.108-8.033c.657.461 1.57.37 2.114-.247a1.64 1.64 0 0 0-.133-2.294L19.27 3.409a1.602 1.602 0 0 0-2.27.134 1.637 1.637 0 0 0 .002 2.15l-7.187 7.063-.739-.664a3.231 3.231 0 0 0-4.58.27l-.372.422c-.044.05-.083.103-.124.156l15.153 13.616z" stroke="#235F81" stroke-width="2" stroke-linecap="round" stroke-linejoin="round"/><path d="M4.773 27.983l-.501-.45 4.187-6.384 2.103 1.89z"/><path stroke="#235F81" stroke-width="2" stroke-linecap="round" stroke-linejoin="round" d="M4.773 27.983l-.501-.45 4.187-6.384 2.103 1.89z"/><path d="M12.12 14.812l6.64-6.875"/><path d="M12.12 14.812l6.64-6.875" stroke="#235F81" stroke-width="2" stroke-linecap="round" stroke-linejoin="round"/></g></svg>