<svg width="24" height="24" viewBox="0 0 24 24" xmlns="http://www.w3.org/2000/svg"><title>1E0A04B4-A1F5-4984-BF5A-C86D69171872</title><g fill="none" fill-rule="evenodd"><path d="M12 24c6.627 0 12-5.373 12-12S18.627 0 12 0 0 5.373 0 12s5.373 12 12 12z" fill="#C72000"/><path d="M12.798 15.878c-.274.068-.55.095-.819.095-1.423 0-3.127-.621-3.127-4.496 0-3.875 1.785-4.945 3.208-4.945 1.423 0 3.078.922 3.078 4.797 0 1.756-.354 2.873-.874 3.571l-.014-.001c-1.184-1.543-2.72-1.173-3.087-1.006 0 0 .047.354.144.997.812 0 1.214.425 1.495.975l-.004.013zm2.314.74l.003-.009C16.844 15.526 18 13.55 18 11.182 18 6.62 15.076 5 12.02 5 9.134 5 6 7.29 6 11.27c0 4.562 2.923 6.235 5.981 6.235.48 0 .948-.059 1.396-.167 0 0 .007.003.011.003 1.205 2.175 3 1.649 3.462 1.477 0 0-.062-.382-.17-1.095-.866-.022-1.252-.461-1.568-1.104z" fill="#FFF"/></g></svg>