<svg width="24" height="24" viewBox="0 0 24 24" xmlns="http://www.w3.org/2000/svg"><title>88AEB4EE-8791-4C3F-8B5F-6FFCFBF75251</title><g fill="none" fill-rule="evenodd"><circle fill="#95C0F4" cx="12" cy="12" r="12"/><path d="M13.899 14.214c-.628 0-1.156-.505-1.156-1.127s.528-1.143 1.156-1.143c.628 0 1.137.521 1.137 1.143s-.51 1.127-1.137 1.127m.267 2.187c-.585.579-1.487.86-2.758.86h-.017c-1.27 0-2.172-.281-2.757-.86a.451.451 0 0 1 0-.643.462.462 0 0 1 .65 0c.402.4 1.092.594 2.107.594h.018c1.014 0 1.704-.194 2.108-.594a.462.462 0 0 1 .649 0 .452.452 0 0 1 0 .643m-6.402-3.314c0-.621.526-1.143 1.154-1.143.628 0 1.137.522 1.137 1.143 0 .622-.51 1.127-1.137 1.127-.628 0-1.154-.505-1.154-1.127m9.235-7.178c.425 0 .77.343.77.764a.769.769 0 0 1-.77.764.769.769 0 0 1-.772-.764.77.77 0 0 1 .772-.764m2.801 5.94c0-1.103-.906-2-2.02-2a2.02 2.02 0 0 0-1.271.449c-1.231-.767-2.794-1.229-4.469-1.327l.874-2.737 2.4.56A1.684 1.684 0 0 0 17 8.348c.93 0 1.688-.751 1.688-1.674 0-.922-.758-1.673-1.688-1.673-.651 0-1.217.367-1.5.904l-2.79-.651a.459.459 0 0 0-.541.305l-1.085 3.397c-1.805.044-3.5.507-4.822 1.319A2.02 2.02 0 0 0 5.02 9.85a2.012 2.012 0 0 0-2.019 2c0 .683.346 1.286.874 1.647a3.48 3.48 0 0 0-.033.48c0 1.379.809 2.662 2.277 3.612C7.527 18.498 9.39 19 11.367 19c1.975 0 3.84-.501 5.247-1.412 1.47-.95 2.278-2.233 2.278-3.612 0-.147-.01-.294-.028-.439.563-.355.937-.979.937-1.687" fill="#FFF"/></g></svg>