<svg width="24" height="24" viewBox="0 0 24 24" xmlns="http://www.w3.org/2000/svg"><title>0340BB44-0283-4461-9D4C-11CC6332B54E</title><g fill="none" fill-rule="evenodd"><circle fill="#FFF" cx="12" cy="12" r="12"/><path d="M1.061 11.421c.041-.277.102-.552.186-.823.726-2.36 2.262-3.845 4.597-4.472.195-.052.372-.11.363.232-.04 1.518.1 3.043-.072 4.553-.264 2.328-1.353 4.146-3.353 5.358-.224.136-.342.116-.498-.102-.968-1.357-1.466-3.087-1.223-4.746M15.7 18.546a8.06 8.06 0 0 1-1.344-.376c-.18-.067-.348-.167-.578-.28 1.416-.974 2.477-2.186 2.964-3.932.496 1.728 1.545 2.954 2.964 3.92-1.275.761-2.644.919-4.005.668m-9.556.07c-.4-.069-.78-.189-1.115-.366-.24-.126-.494-.22-.785-.348.711-.501 1.333-1.027 1.844-1.681a6.395 6.395 0 0 0 1.135-2.26c.514 1.754 1.565 2.97 2.968 3.922-1.082.629-2.692.968-4.047.733" fill="#035EAF"/><g transform="translate(17.683 6.074)"><mask id="a" fill="#fff"><use/></mask><path d="M5.274 6.21c-.027 1.462-.439 2.754-1.287 3.899-.153.207-.262.206-.465.086C1.592 9.046.505 7.305.19 5.08-.038 3.468.137 1.834.096.21.09-.087.276.019.406.05c2.189.554 3.694 1.907 4.5 4.062.257.685.35 1.404.368 2.099" fill="#035EAF" mask="url(#a)"/></g><path d="M11.805 16.321c-2.076-1.154-3.175-2.995-3.475-5.337-.199-1.545-.052-3.11-.085-4.667-.007-.305.167-.232.325-.194a6.148 6.148 0 0 1 3.177 1.85c.07.076.15.142.224.213-1.9 2.489-1.991 5.344-.251 7.924.044.065.095.124.085.211" fill="#035EAF"/><path d="M11.962 8.19c.92-1.003 2.009-1.715 3.33-2.046.325-.081.42-.035.414.323-.019 1.255.025 2.51-.014 3.764-.078 2.503-1.116 4.483-3.178 5.872-.116.078-.224.188-.384.153.031-.054.058-.112.095-.162.867-1.192 1.307-2.531 1.252-4.016-.055-1.471-.601-2.758-1.515-3.887" fill="#035EAF"/><path d="M11.962 8.19c.914 1.13 1.46 2.417 1.515 3.888.055 1.485-.385 2.824-1.252 4.016-.037.05-.064.108-.095.162-.08.172-.2.129-.325.065.01-.087-.041-.146-.085-.211-1.74-2.58-1.65-5.435.251-7.924l-.009.005" fill="#FC322C"/></g></svg>