<svg width="24" height="24" viewBox="0 0 24 24" xmlns="http://www.w3.org/2000/svg"><title>7F791B8F-9843-45B9-9E39-C3D98A674A58</title><g fill="none" fill-rule="evenodd"><path d="M12 24c6.627 0 12-5.373 12-12S18.627 0 12 0 0 5.373 0 12s5.373 12 12 12z" fill="#FFF"/><path d="M4.015 9.723h.193l5.36.004c.333 0 .364-.023.468-.345l1.65-5.088c.027-.081.057-.16.104-.294.05.131.088.216.117.304L13.593 9.4c.099.297.138.327.447.327h5.646c-.108.086-.176.142-.247.194l-4.324 3.132c-.278.202-.29.24-.182.57l1.668 5.102c.022.068.042.137.08.261-.112-.078-.18-.124-.245-.172L12.12 15.67c-.275-.2-.304-.2-.58-.001l-4.357 3.148c-.074.053-.15.104-.267.184l.074-.24 1.7-5.226c.09-.273.08-.3-.16-.474L4.206 9.933C4.133 9.88 4.068 9.82 4 9.765l.015-.042" fill="#E10000"/></g></svg>