<svg xmlns="http://www.w3.org/2000/svg" width="24" height="24" viewBox="0 0 24 24"><g fill="none" fill-rule="evenodd" stroke="#FFF" stroke-linecap="round" stroke-linejoin="round" stroke-width="1.5"><path d="M21.386 9.797c0-3.637-2.803-6.586-6.261-6.586m4.277 5.039l1.847 1.926 1.78-1.926M3.096 14.4c0 3.637 2.803 6.585 6.261 6.585"/><path d="M5.08 15.947L3.233 14.02l-1.78 1.927M9.605 3.255c-3.637 0-6.586 2.804-6.586 6.262"/><path d="M8.058 5.24l1.927-1.848-1.927-1.78m6.899 19.245c3.637 0 6.585-2.804 6.585-6.262m-5.038 4.277l-1.927 1.848 1.927 1.78M12.347 6.006c.116-.021.235-.03.356-.03 1.442 0 2.611 1.513 2.611 3.38 0 1.866-1.169 3.38-2.611 3.38-1.443 0-2.612-1.514-2.612-3.38 0-1.112.415-2.1 1.056-2.716 0 0 .413-.49 1.2-.634zm1.506 6.602c.364.455.882.518 1.343.776.244.137.492.277.692.479.474.48.467 1.33.595 1.965"/><path d="M11.02 12.056c-.024.846-1.177 1.134-1.792 1.478-.244.138-.492.277-.692.479-.475.48-.467 1.33-.595 1.965"/></g></svg>