<svg width="32" height="32" viewBox="0 0 32 32" xmlns="http://www.w3.org/2000/svg"><title>F9BE7DDE-13CD-47E4-87D9-0F5B4B3AA0C9</title><g stroke-width="2" fill="none" fill-rule="evenodd"><path d="M27.27 23.8c-.26.046-.526.07-.8.07H7.315C3.832 23.87 1 21.02 1 17.515c0-3.504 2.832-6.354 6.314-6.354.857 0 1.69.17 2.472.505a.288.288 0 0 0 .382-.156c1.381-3.347 4.6-5.51 8.2-5.51 4.795 0 8.69 3.775 8.87 8.595a.291.291 0 0 0 .226.274c2.05.462 3.536 2.33 3.536 4.444a4.54 4.54 0 0 1-3.73 4.486" stroke="#83CAA3" fill="#83CAA3"/><path stroke="#FEFEFE" stroke-linecap="round" stroke-linejoin="round" d="M12 16.558l2.72 3.767L21 13"/></g></svg>