<svg width="24" height="24" viewBox="0 0 24 24" xmlns="http://www.w3.org/2000/svg"><title>BA01A68B-3960-4DD7-8EA8-65403AF3717E</title><g fill="none" fill-rule="evenodd"><path d="M12 24c6.627 0 12-5.373 12-12S18.627 0 12 0 0 5.373 0 12s5.373 12 12 12z" fill="#000"/><g transform="translate(6 3.021)"><mask id="a" fill="#fff"><use/></mask><path d="M12.426 16.09c1.121.07 2.118-.856 2.143-2.2.023-1.273-.914-2.227-2.147-2.226-1.226.001-2.11.918-2.114 2.192-.004 1.321.86 2.233 2.118 2.235M7.243 2.666c-.031.1-.058.18-.081.262-.246.86.142 1.791.917 2.198.782.41 1.758.172 2.284-.558a1.96 1.96 0 0 0-.106-2.398C9.52 1.322 8.638.71 7.587.376c-1.718-.543-3.377-.51-4.92.576-1.986 1.398-2.308 4-.918 5.845.652.865 1.485 1.453 2.427 1.901.861.41 1.734.795 2.583 1.232.715.367 1.228.97 1.585 1.711.407.845.287 1.87-.306 2.582-.756.91-1.735 1.133-2.828.961-.856-.134-1.552-.572-2.121-1.254.03-.04.049-.068.07-.094.604-.73.643-1.755.092-2.457-.578-.736-1.534-.935-2.316-.483-.758.44-1.133 1.442-.83 2.315.303.87.743 1.667 1.33 2.366 1.072 1.278 2.442 1.916 4.05 2.013 1.628.1 3.025-.43 4.133-1.714.103-.12.12-.21.051-.363-.712-1.555-.444-3.094.742-4.276.108-.108.127-.194.074-.337a5.425 5.425 0 0 0-1.491-2.18c-.823-.74-1.802-1.2-2.766-1.69a29.261 29.261 0 0 1-2.28-1.273 1.618 1.618 0 0 1-.776-1.3c-.055-.83.371-1.354 1.024-1.722.542-.307 1.138-.376 1.74-.358.439.013.88.05 1.307.289" fill="#000" mask="url(#a)"/></g><path d="M13.243 5.687c-.427-.238-.868-.276-1.306-.289-.603-.018-1.199.051-1.741.358-.653.368-1.079.893-1.024 1.722.038.576.331 1.022.775 1.3a29.24 29.24 0 0 0 2.281 1.272c.964.491 1.943.95 2.765 1.691a5.425 5.425 0 0 1 1.492 2.18c.053.143.034.23-.074.337-1.186 1.182-1.454 2.721-.742 4.276.07.152.052.243-.051.363-1.108 1.285-2.505 1.813-4.133 1.714-1.608-.097-2.978-.735-4.05-2.013a7.472 7.472 0 0 1-1.33-2.366c-.303-.873.072-1.876.83-2.315.782-.452 1.738-.253 2.316.483.55.702.512 1.728-.092 2.457-.021.026-.04.054-.07.094.569.682 1.266 1.12 2.121 1.254 1.093.172 2.072-.052 2.828-.96a2.423 2.423 0 0 0 .306-2.583c-.357-.74-.87-1.344-1.585-1.711-.849-.437-1.722-.822-2.583-1.232-.942-.448-1.775-1.036-2.427-1.9-1.39-1.845-1.068-4.448.918-5.846 1.543-1.087 3.202-1.12 4.92-.576 1.051.333 1.932.946 2.67 1.794.573.659.625 1.678.106 2.398a1.796 1.796 0 0 1-2.284.558c-.775-.407-1.163-1.338-.917-2.198.023-.082.05-.162.081-.262" fill="#FFF"/><g transform="translate(16.28 14.634)"><mask id="b" fill="#fff"><use/></mask><path d="M2.146 4.478C.888 4.476.024 3.564.028 2.243.032.969.916.053 2.142.05c1.234-.001 2.17.953 2.147 2.226-.025 1.344-1.022 2.27-2.143 2.2" fill="#00AEF1" mask="url(#b)"/></g></g></svg>