<svg xmlns="http://www.w3.org/2000/svg" width="91" height="91" viewBox="0 0 91 91"><g fill="none" fill-rule="evenodd" transform="translate(-1 -1)"><rect width="90.635" height="89.997" x="1.038" y="1.05" fill="#F6A623" fill-rule="nonzero" rx="44.999"/><path stroke="#FFF" stroke-linecap="round" stroke-linejoin="round" stroke-width="4" d="M68.4 41.765l-1.568 1.154c-3.784 2.767-7.555 5.552-11.362 8.286-.716.515-.89.96-.598 1.83 1.586 4.738 3.094 9.501 4.628 14.256.09.277.172.556.316 1.018-.36-.222-.578-.34-.779-.483-4.196-3.01-8.399-6.013-12.574-9.052-.522-.378-.871-.405-1.392-.03-4.168 2.997-8.354 5.971-12.535 8.951-.263.188-.531.367-1 .69.407-1.287.74-2.356 1.083-3.42 1.307-4.048 2.599-8.1 3.941-12.134.227-.683.112-1.06-.469-1.48-4.16-3.01-8.296-6.052-12.438-9.087-.228-.167-.445-.347-.615-.725 1.601 0 3.202.002 4.804-.001 3.858-.007 7.716-.03 11.574-.008.65.005.924-.194 1.122-.815 1.558-4.874 3.156-9.737 4.744-14.603.097-.297.218-.587.42-1.13.875 2.653 1.666 5.044 2.45 7.437.906 2.77 1.83 5.537 2.691 8.322.2.645.516.788 1.141.787 5.174-.006 10.348.02 15.522.036h.849l.046.201z"/></g></svg>