<svg width="32" height="32" viewBox="0 0 32 32" xmlns="http://www.w3.org/2000/svg"><title>8F101A1C-D21A-456A-A3BA-D9814DD24EA3</title><g stroke="#235F81" stroke-width="2" fill="none" fill-rule="evenodd" stroke-linecap="round" stroke-linejoin="round"><path d="M7.594 2.585c.095-.019.193-.032.292-.04C9.837 2.39 11 4.548 11 6.248c0 2.05-1.343 3.713-3 3.713-1.655 0-2.997-1.658-3-3.706-.002-1.555.97-3.355 2.594-3.67z"/><path d="M5.791 9c-.028.996-1.448 1.336-2.206 1.742-.3.161-.606.326-.852.563-.585.566-.576 1.568-.733 2.315M10 9c.029.996 1.449 1.336 2.206 1.742m11.388-8.157c.095-.019.193-.032.292-.04C25.837 2.39 27 4.548 27 6.248c0 2.05-1.343 3.713-3 3.713-1.655 0-2.997-1.658-3-3.706-.002-1.555.97-3.355 2.594-3.67zM21.791 9c-.028.996-1.448 1.336-2.206 1.742"/><path d="M26 9c.029.996 1.449 1.336 2.206 1.742.301.161.606.326.852.563.585.566.577 1.568.733 2.315m-14.401-.743a3.93 3.93 0 0 1 .439-.06c2.927-.231 4.671 3.005 4.671 5.555 0 3.076-2.015 5.57-4.5 5.57-2.482 0-4.495-2.488-4.5-5.56-.003-2.332 1.454-5.033 3.89-5.505z"/><path d="M12.687 22.5c-.043 1.494-2.173 2.005-3.309 2.613-.452.242-.91.488-1.279.845-.877.849-.864 2.351-1.099 3.472m12-6.93c.043 1.494 2.173 2.005 3.31 2.613.45.242.908.488 1.278.845.877.849.864 2.351 1.099 3.472"/></g></svg>