<svg width="24" height="24" viewBox="0 0 24 24" xmlns="http://www.w3.org/2000/svg"><title>0CC8D2A5-824E-4D79-B1AB-96E9FA5D94E7</title><path d="M15.759 12.007a3.845 3.845 0 1 1-7.69 0 3.845 3.845 0 0 1 7.69 0zM8.28 5.641l-1.06-.803c-.384-.248-.575-.22-.794 0L4.837 6.425c-.22.22-.235.435 0 .794l1.162 1.678a6.661 6.661 0 0 0-.433 1.038l-2.005.364c-.447.096-.561.251-.561.562v2.245c0 .31.14.474.561.562l2.005.364c.114.36.261.706.433 1.038l-1.161 1.677c-.25.384-.22.574 0 .794l1.586 1.589c.22.218.435.234.794-.002l1.678-1.16c.33.17.677.317 1.039.433l.363 2.003c.096.447.251.561.561.561l2.246.002c.31 0 .473-.142.561-.562l.365-2.004c.36-.115.706-.262 1.037-.434l1.678 1.161c.384.25.574.22.794 0l1.588-1.586c.22-.22.235-.435 0-.794l-1.161-1.678c.17-.331.318-.677.433-1.038l2.003-.364c.447-.096.56-.25.562-.561l.001-2.246c0-.31-.142-.474-.562-.562L18.4 9.935a6.708 6.708 0 0 0-.434-1.038l1.16-1.677c.25-.385.22-.574 0-.794L17.54 4.837c-.22-.219-.435-.235-.794.001L15.069 6a6.611 6.611 0 0 0-1.038-.434l-.364-2.003C13.57 3.115 13.416 3 13.106 3h-2.247c-.31 0-.473.141-.56.561l-.365 2.005-1.654.075z" stroke="#235F81" stroke-width="1.5" fill="none" stroke-linecap="round" stroke-linejoin="round"/></svg>