<svg width="24" height="24" viewBox="0 0 24 24" xmlns="http://www.w3.org/2000/svg"><title>99484648-B6E0-405F-BD60-D0CD62E46657</title><g fill="none" fill-rule="evenodd"><path d="M12 24c6.627 0 12-5.373 12-12S18.627 0 12 0 0 5.373 0 12s5.373 12 12 12z" fill="#FFF"/><g transform="translate(15.92 3.04)"><mask id="a" fill="#fff"><use/></mask><path d="M2.925.304C3.515.475 3.95.77 3.95 1.452c-.006 4.482-.006 8.964.004 13.447.001.538-.234.812-.746.87-.838.096-1.674.07-2.509-.037-.45-.057-.672-.295-.672-.78.01-4.552.01-9.103.008-13.655C.034.66.401.34.929.098c.022.089.049.134.04.17-.065.26-.51.37-.353.678.168.327.56.239.865.255.407.022.816.012 1.223 0 .5-.015.7-.193.323-.66-.051-.065-.069-.158-.102-.237" fill="#60A601" mask="url(#a)"/></g><path d="M10.43 5.075c-.386.43-.96.514-1.337.915-.26.277-.207.418.015.639.357.356.75.64 1.268.654.21.006.38.035.366.282-.044.722.082 1.437-.262 2.156-1.326 2.77-2.592 5.568-3.882 8.355-.4.863-.653.978-1.544.672-.558-.192-1.112-.402-1.609-.731-.436-.29-.566-.635-.326-1.169 1.594-3.555 3.16-7.124 4.74-10.687.382-.859 1.416-1.3 2.571-1.086" fill="#D66A2A"/><path d="M14.237 18.795c.279.003.53-.07.7-.378v.006c.291-.032.272-.254.272-.462.01-4.362.019-8.723.026-13.085 0-.13.047-.297-.116-.356-.18-.064-.226.108-.281.223-.127.266-.622 1.116-.614 1.338-.68.027-1.359.024-2.032-.098l-.134-.146c-.01-.724.82-.808 1.077-1.381-1.137.16-1.78.863-1.78 1.89v11.202c0 1.11.11 1.218 1.257 1.224l1.625.023z" fill="#4698AA"/></g></svg>