<svg width="24" height="24" viewBox="0 0 24 24" xmlns="http://www.w3.org/2000/svg"><title>9BF2DDDA-A885-483B-9A58-84D6CD9B1C04</title><g fill="none" fill-rule="evenodd"><path d="M12 24c6.627 0 12-5.373 12-12S18.627 0 12 0 0 5.373 0 12s5.373 12 12 12z" fill="#00ADF2"/><path d="M19.187 13.478c.113-.51.172-1.036.172-1.578 0-4.06-3.338-7.353-7.457-7.353-.435 0-.86.038-1.276.107A4.348 4.348 0 0 0 8.326 4C5.936 4 4 5.909 4 8.265a4.2 4.2 0 0 0 .595 2.156c-.1.478-.151.973-.151 1.479 0 4.062 3.338 7.353 7.458 7.353.466 0 .923-.042 1.365-.122.61.322 1.306.505 2.045.505 2.388 0 4.324-1.909 4.324-4.265 0-.68-.161-1.322-.45-1.893zm-3.52 1.915c-.343.482-.854.863-1.515 1.134-.653.268-1.437.404-2.33.404-1.071 0-1.968-.186-2.67-.552a3.473 3.473 0 0 1-1.228-1.075c-.316-.45-.477-.897-.477-1.328 0-.27.104-.503.31-.694.205-.19.467-.285.78-.285a1 1 0 0 1 .656.223c.171.145.319.358.438.631.132.3.276.55.428.748.146.192.357.353.625.478.27.126.635.19 1.084.19.616 0 1.121-.13 1.502-.386.371-.25.551-.55.551-.917 0-.29-.093-.518-.287-.698a2.06 2.06 0 0 0-.796-.433 16.005 16.005 0 0 0-1.368-.334c-.775-.163-1.432-.357-1.955-.576-.535-.224-.966-.536-1.282-.925-.32-.395-.481-.89-.481-1.474 0-.555.17-1.056.505-1.488.334-.428.821-.762 1.448-.99.62-.225 1.355-.34 2.188-.34.667 0 1.252.077 1.74.225.493.15.906.355 1.233.606.327.253.572.522.725.803.154.284.233.566.233.84a.992.992 0 0 1-.307.71 1.03 1.03 0 0 1-.765.315c-.276 0-.492-.067-.642-.197-.14-.123-.284-.313-.445-.586a2.425 2.425 0 0 0-.67-.815c-.25-.189-.67-.284-1.245-.284-.534 0-.97.106-1.293.314-.31.202-.461.432-.461.706a.64.64 0 0 0 .149.427c.105.13.255.24.444.333.196.098.399.175.6.23.207.057.555.14 1.032.249.604.128 1.159.27 1.649.426.496.158.926.349 1.276.575.357.229.64.523.84.874.202.354.304.79.304 1.296 0 .605-.176 1.158-.522 1.64z" fill="#FFF"/></g></svg>