<svg width="24" height="24" viewBox="0 0 24 24" xmlns="http://www.w3.org/2000/svg"><title>57356CE7-A946-4B64-A096-EA5D0E442E87</title><g fill="none" fill-rule="evenodd"><path d="M12 24c6.627 0 12-5.373 12-12S18.627 0 12 0 0 5.373 0 12s5.373 12 12 12z" fill="#00A8AB"/><path d="M12.41 10.733c0-.527.19-.98.57-1.36a1.857 1.857 0 0 1 1.358-.568c.527 0 .975.19 1.344.569.369.38.553.832.553 1.36 0 .526-.184.974-.553 1.343a1.83 1.83 0 0 1-1.344.553c-.526 0-.98-.185-1.359-.553a1.804 1.804 0 0 1-.569-1.344zm-4.52 0c0-.527.19-.98.569-1.36a1.86 1.86 0 0 1 1.36-.568c.526 0 .974.19 1.343.569.368.38.553.832.553 1.36 0 .526-.185.974-.553 1.343a1.83 1.83 0 0 1-1.344.553c-.527 0-.98-.185-1.36-.553a1.804 1.804 0 0 1-.568-1.344zm-2.308 1.612c.085.042.216.11.395.206.18.095.322.163.427.205l11.317-.126a8.33 8.33 0 0 0 .632-.316v-7.46H5.583v7.491zm-1.517-.632c.169-.126.4-.095.695.095V4h14.447v7.808a.88.88 0 0 1 .537-.19c.19 0 .274.074.253.222-.063.19-.174.39-.332.6a4.1 4.1 0 0 1-.474.537 4.03 4.03 0 0 1-.696.49c-.305.18-.532.311-.68.396-.147.084-.394.21-.742.379a9.145 9.145 0 0 1-.617.284c.274.886.37 1.76.285 2.624-.105.822-.406 1.517-.901 2.086-.495.57-1.143.864-1.944.886-.611 0-1.096-.253-1.454-.76a1.11 1.11 0 0 1-.158-.6V15.57c-.063 0-.169-.027-.316-.08a1.586 1.586 0 0 0-.253-.078v3.413c0 .38-.169.701-.506.965a1.758 1.758 0 0 1-1.106.395 2.43 2.43 0 0 1-1.929-.885c-.505-.59-.811-1.296-.916-2.118-.085-.885.01-1.75.284-2.592-1.285-.57-2.392-1.317-3.319-2.245-.19-.337-.242-.548-.158-.632z" fill="#FFF"/></g></svg>