<svg width="24" height="24" viewBox="0 0 24 24" xmlns="http://www.w3.org/2000/svg"><title>79C6927D-F517-4740-B73E-1CE12390554B</title><path d="M14.546 12.265c0 1.812-1.485 3.282-3.318 3.282-1.832 0-3.317-1.47-3.317-3.282 0-1.813 1.485-3.283 3.317-3.283 1.833 0 3.318 1.47 3.318 3.283zm-7.85-5.22c0 .604-.495 1.093-1.104 1.093a1.1 1.1 0 0 1-1.105-1.093c0-.604.494-1.093 1.105-1.093.61 0 1.104.489 1.104 1.093zm10.069-2.306a1.37 1.37 0 0 1-1.378 1.363A1.37 1.37 0 0 1 14.01 4.74a1.37 1.37 0 0 1 1.377-1.363c.76 0 1.378.61 1.378 1.363zm4.213 12.621c0 .977-.8 1.768-1.787 1.768a1.778 1.778 0 0 1-1.786-1.768c0-.976.8-1.768 1.786-1.768.987 0 1.787.792 1.787 1.768zm-2.235-6.014c0 .32-.262.579-.585.579a.582.582 0 0 1-.585-.579c0-.32.262-.579.585-.579.323 0 .585.26.585.58zm-13.96 6.781c0 .32-.262.578-.585.578a.582.582 0 0 1-.585-.578c0-.32.262-.58.585-.58.323 0 .585.26.585.58zm12.625-1.789l-3.21-1.713m-1.049-5.758l1.513-2.994m-6.208 4.53L6.225 8.041m.223 8.213l2.045-1.923m6.053-2.757l1.106-.058" stroke="#235F81" stroke-width="1.5" fill="none" stroke-linecap="round" stroke-linejoin="round"/></svg>