<svg width="24" height="24" viewBox="0 0 24 24" xmlns="http://www.w3.org/2000/svg"><title>A1CEE5EE-09BD-45DB-B7D7-422C987CF26E</title><g fill="none" fill-rule="evenodd"><path d="M12 24c6.627 0 12-5.373 12-12S18.627 0 12 0 0 5.373 0 12s5.373 12 12 12z" fill="#292929"/><path d="M16.047 4.033c.502.008.921.112 1.286.39.796.604.755 1.682-.1 2.2-.61.37-1.289.479-1.985.344-.977-.19-1.389-1.148-.882-2.016.384-.658 1-.9 1.68-.918m-.31 7.761c-.786.024-1.571.08-2.355.133-2.09.145-4.182.26-6.275.335-.323.012-.49.14-.592.411-.036.097-.075.195-.099.295-.266 1.144-.162 2.253.347 3.313.446.927 1.176 1.547 2.167 1.84 1.062.315 2.126.307 3.148-.136 2.096-.909 3.578-2.46 4.613-4.46.165-.316.272-.656.309-1.015.046-.46-.174-.712-.636-.716-.209-.002-.418 0-.627 0zm3.259.123c-.068.122-.057.261-.085.392-.173.797-.515 1.524-.942 2.21-1.199 1.93-2.747 3.51-4.745 4.626-.867.485-1.793.817-2.798.845-1.703.048-3.047-.646-4.045-2.007-.76-1.037-1.158-2.215-1.318-3.479-.103-.816-.09-1.627.134-2.425.11-.389.271-.752.56-1.047.235-.239.518-.356.855-.363 1.43-.033 2.86-.067 4.289-.107a66.988 66.988 0 0 0 5.346-.376c.458-.05.916-.111 1.38-.048.755.103 1.168.47 1.33 1.204.006.03-.002.068.039.082v.493zM8.467 7.184a1.918 1.918 0 0 1-.557-.046c-.843-.198-1.237-.924-.942-1.736.285-.787 1.055-1.232 1.948-1.13.416.048.812.148 1.151.407.619.471.69 1.292.157 1.86-.407.435-.936.594-1.51.644-.082.007-.165.001-.247.001" fill="#95CA30"/></g></svg>