<svg width="24" height="24" viewBox="0 0 24 24" xmlns="http://www.w3.org/2000/svg"><title>440D16E4-A772-4C4D-B9E0-B8FE8380C846</title><g fill="none" fill-rule="evenodd"><circle fill="#FFFC00" cx="12" cy="12" r="12"/><path d="M11.994 18.721c-.04 0-.079 0-.118-.003a1.018 1.018 0 0 1-.077.003c-.917 0-1.505-.417-2.073-.82-.393-.278-.763-.54-1.2-.614a3.86 3.86 0 0 0-.63-.053c-.37 0-.66.057-.873.099-.13.025-.24.047-.325.047-.089 0-.185-.02-.226-.162a5.17 5.17 0 0 1-.088-.36c-.065-.298-.111-.481-.236-.5-1.453-.225-1.869-.532-1.962-.75a.281.281 0 0 1-.022-.093.164.164 0 0 1 .137-.171c2.234-.37 3.235-2.659 3.277-2.756l.004-.008c.136-.278.163-.519.08-.717-.154-.362-.654-.521-.985-.627a3.211 3.211 0 0 1-.218-.074c-.66-.261-.715-.53-.69-.667.045-.233.356-.396.607-.396.07 0 .13.012.181.036.297.14.565.21.796.21.32 0 .458-.134.475-.152L7.8 9.72c-.067-1.06-.149-2.375.185-3.126 1.002-2.252 3.125-2.427 3.752-2.427l.275-.003h.037c.629 0 2.757.175 3.759 2.428.334.752.251 2.069.185 3.127l-.003.046c-.01.148-.018.29-.026.428.016.016.144.14.434.151.22-.008.473-.079.75-.209a.564.564 0 0 1 .233-.046.71.71 0 0 1 .268.051l.005.002c.224.08.371.238.375.402.003.156-.116.389-.695.618-.06.024-.137.049-.218.074-.332.106-.831.265-.985.627-.083.198-.056.439.08.717l.004.008c.041.097 1.042 2.386 3.277 2.755a.164.164 0 0 1 .137.171.275.275 0 0 1-.023.094c-.092.216-.508.523-1.961.748-.119.019-.165.174-.236.5a5.046 5.046 0 0 1-.088.356c-.03.106-.097.156-.208.156h-.018c-.077 0-.186-.014-.325-.041a4.328 4.328 0 0 0-.873-.093 3.9 3.9 0 0 0-.63.053c-.436.073-.807.336-1.199.613-.57.404-1.157.821-2.074.821" fill="#FFF"/><path d="M12.05 4h-.041l-.272.003c-.652 0-2.86.182-3.901 2.524-.35.788-.267 2.126-.2 3.201.009.127.017.259.024.386a.628.628 0 0 1-.307.067c-.207 0-.451-.065-.726-.195a.585.585 0 0 0-.25-.051c-.323 0-.708.212-.768.53-.044.228.058.56.79.85.066.026.145.051.229.078.302.096.759.242.883.534.064.152.038.347-.076.58a.394.394 0 0 0-.008.016c-.04.094-1.006 2.304-3.153 2.659a.328.328 0 0 0-.273.342c.002.05.014.1.034.147.161.378.841.655 2.078.847.042.056.085.255.11.375.027.12.053.242.091.372.038.127.135.28.384.28.1 0 .219-.024.356-.05a4.16 4.16 0 0 1 .842-.097c.196 0 .4.017.604.051.399.067.738.308 1.13.586.563.399 1.2.85 2.169.85.026 0 .053 0 .08-.002l.115.002c.969 0 1.606-.451 2.168-.85.393-.279.732-.519 1.132-.586.204-.034.407-.05.603-.05.337 0 .604.042.842.089.149.03.269.044.356.044h.018a.356.356 0 0 0 .366-.274c.037-.127.064-.247.09-.368.026-.12.07-.317.11-.373 1.238-.193 1.917-.469 2.078-.845a.438.438 0 0 0 .035-.148.328.328 0 0 0-.273-.343c-2.148-.355-3.113-2.564-3.154-2.658a.247.247 0 0 0-.007-.016c-.115-.233-.14-.428-.076-.58.124-.292.58-.438.883-.534.084-.027.164-.052.23-.078.534-.212.803-.472.797-.774-.004-.237-.188-.448-.48-.553h-.001a.876.876 0 0 0-.33-.063.727.727 0 0 0-.302.061c-.255.12-.484.185-.68.194a.604.604 0 0 1-.266-.066l.02-.34.003-.045c.068-1.076.152-2.415-.199-3.204C14.915 4.182 12.702 4 12.05 4m0 .328c.595 0 2.644.16 3.61 2.331.317.715.236 2.01.17 3.05l-.028.478-.004.065.044.05c.018.019.183.192.55.206h.012c.242-.009.516-.084.814-.224a.395.395 0 0 1 .163-.03c.07 0 .145.012.207.038l.009.004c.156.055.266.158.268.252 0 .053-.039.243-.591.462a3.366 3.366 0 0 1-.208.07c-.36.114-.902.287-1.085.719-.103.244-.075.53.083.854.066.152 1.092 2.47 3.401 2.852a.082.082 0 0 1-.01.037c-.038.093-.287.412-1.835.652-.243.037-.302.31-.37.626a4.986 4.986 0 0 1-.086.346c-.01.036-.012.038-.05.038h-.019a1.71 1.71 0 0 1-.294-.038 4.518 4.518 0 0 0-.904-.096c-.214 0-.436.019-.657.056-.474.079-.86.352-1.267.641-.548.389-1.115.79-1.979.79a2.33 2.33 0 0 1-.111-.003h-.02a.775.775 0 0 1-.064.003c-.864 0-1.431-.401-1.979-.79-.408-.289-.793-.562-1.267-.641a4.019 4.019 0 0 0-.657-.056c-.384 0-.685.059-.905.102-.12.024-.225.044-.293.044-.056 0-.057-.003-.07-.044a5.023 5.023 0 0 1-.084-.349c-.07-.316-.129-.59-.37-.628-1.55-.24-1.798-.56-1.837-.652a.107.107 0 0 1-.01-.037c2.31-.382 3.336-2.7 3.401-2.853.16-.323.187-.61.084-.854-.182-.432-.726-.605-1.085-.72a3.301 3.301 0 0 1-.208-.07c-.467-.184-.61-.37-.589-.483.025-.13.25-.263.446-.263.045 0 .083.007.112.02.319.15.61.227.865.227.401 0 .58-.188.6-.209l.043-.049-.004-.065a48.74 48.74 0 0 0-.029-.477c-.065-1.04-.146-2.335.172-3.05.961-2.162 3-2.329 3.602-2.329a182.746 182.746 0 0 0 .312-.003" fill="#030303"/></g></svg>