<svg width="24" height="24" viewBox="0 0 24 24" xmlns="http://www.w3.org/2000/svg"><title>DD6FB466-A4C7-49F7-B9ED-CBAD510ECBCB</title><g fill="none" fill-rule="evenodd"><path d="M12 24c6.627 0 12-5.373 12-12S18.627 0 12 0 0 5.373 0 12s5.373 12 12 12z" fill="#EE4923"/><path d="M2.908 11.346c-.04 0-.073.033-.078.077l-.185 1.715.185 1.677c.005.044.038.077.078.077s.072-.032.078-.077l.21-1.677-.21-1.715c-.006-.045-.038-.077-.078-.077" fill="#FEFEFE"/><g transform="translate(2 11.993)"><mask id="a" fill="#fff"><use/></mask><path d="M.236.01a.083.083 0 0 0-.084.074L0 1.144l.152 1.043a.084.084 0 0 0 .167 0L.5 1.145.32.084A.084.084 0 0 0 .235.01" fill="#FEFEFE" mask="url(#a)"/></g><path d="M3.647 11.01c-.05 0-.09.04-.094.094l-.176 2.034.176 1.96c.005.055.044.094.094.094.049 0 .089-.04.094-.094l.2-1.96-.2-2.034c-.005-.055-.045-.094-.094-.094m.745-.072c-.058 0-.106.048-.11.11l-.166 2.09.166 2.023c.004.062.052.11.11.11s.105-.048.11-.11l.189-2.023-.189-2.09c-.005-.063-.052-.11-.11-.11m.878 4.239v.005-.005zm0-3.978c-.006-.072-.06-.126-.127-.126-.068 0-.122.055-.126.127l-.157 1.939.157 2.038c.004.072.058.127.126.127.067 0 .121-.055.126-.127l.178-2.038-.178-1.94zm.63-1.357a.146.146 0 0 0-.142.143l-.147 3.154.147 2.04a.146.146 0 0 0 .142.142.147.147 0 0 0 .142-.143l.167-2.039-.167-3.154a.147.147 0 0 0-.142-.143m.751-.727a.162.162 0 0 0-.158.16l-.138 3.875.138 2.026a.162.162 0 0 0 .158.16c.085 0 .155-.07.159-.16l.155-2.026-.155-3.876a.162.162 0 0 0-.159-.159m.781-.35a.178.178 0 0 0-.174.176l-.128 4.2.128 2.004c.003.098.08.175.174.175a.18.18 0 0 0 .175-.175l.144-2.005-.144-4.2a.178.178 0 0 0-.175-.175m.966.035a.194.194 0 0 0-.19-.193.193.193 0 0 0-.191.193l-.119 4.34.119 1.993a.193.193 0 0 0 .19.191.194.194 0 0 0 .19-.192l.135-1.991-.134-4.342z" fill="#FEFEFE"/><path d="M8.399 15.132v.002l-.001.011v-.013zm.59-6.43a.209.209 0 0 0-.207.209l-.109 4.23.11 1.973a.209.209 0 0 0 .206.208.21.21 0 0 0 .206-.209v.002l.123-1.974-.123-4.23a.21.21 0 0 0-.206-.209m.787.138a.225.225 0 0 0-.223.225l-.1 4.076.1 1.961c.003.125.1.224.223.224.122 0 .22-.099.223-.225v.001l.111-1.96L10 9.064a.225.225 0 0 0-.223-.225m.924-.748a.232.232 0 0 0-.26-.002.247.247 0 0 0-.11.202l-.001.046-.09 4.803.09 1.95.001.008a.246.246 0 0 0 .056.144c.044.054.11.088.182.088a.235.235 0 0 0 .167-.07.248.248 0 0 0 .072-.171l.01-.193.09-1.754-.1-4.85a.248.248 0 0 0-.107-.2" fill="#FEFEFE"/><path d="M10.808 15.105v-.007.008-.012l.001-.005v.009l-.001.007zm.681-7.474a.247.247 0 0 0-.29.022.264.264 0 0 0-.095.199v.027L11 13.142l.053.973.051.947a.26.26 0 0 0 .255.256.26.26 0 0 0 .255-.258v.002l.113-1.92-.113-5.29a.263.263 0 0 0-.125-.22" fill="#FEFEFE"/><g transform="translate(11.805 7.038)"><mask id="b" fill="#fff"><use/></mask><path d="M6.689 3.6c-.317 0-.62.065-.895.182C5.61 1.666 3.862.006 1.73.006a4.08 4.08 0 0 0-1.48.28C.075.355.03.426.027.562v7.454a.275.275 0 0 0 .25.269h6.412a2.32 2.32 0 0 0 2.313-2.337C9.002 4.651 7.967 3.6 6.69 3.6" fill="#FEFEFE" mask="url(#b)"/></g></g></svg>