<svg width="24" height="24" viewBox="0 0 24 24" xmlns="http://www.w3.org/2000/svg"><title>8846AD4E-C68C-43F8-A00C-B4B3E1D76DF0</title><g fill="none" fill-rule="evenodd"><path d="M12 24c6.627 0 12-5.373 12-12S18.627 0 12 0 0 5.373 0 12s5.373 12 12 12z" fill="#FFF"/><path fill="#BCBBBB" d="M16.93 13.278v4.278H7.366v-4.278H6v5.704h12.296v-5.704z"/><path d="M14.862 3l-1.097.851 4.08 5.72 1.097-.85L14.862 3zm-3.39 3.373l5.252 4.563.875-1.096-5.253-4.563-.875 1.096zm-1.715 3.17l6.196 3.01.577-1.292-6.196-3.01-.577 1.293zm-.886 3.341l6.69 1.467.281-1.396-6.69-1.466-.28 1.395zm-.135 3.246h6.835v-1.426H8.736v1.426z" fill="#F48024"/></g></svg>