<svg width="24" height="24" viewBox="0 0 24 24" xmlns="http://www.w3.org/2000/svg"><title>C9690EC3-B11C-4C43-8580-11238E9A0BD5</title><g fill="none" fill-rule="evenodd"><path d="M12 24c6.627 0 12-5.373 12-12S18.627 0 12 0 0 5.373 0 12s5.373 12 12 12z" fill="#FFF"/><path fill="#41A1DB" d="M5 10.73h13.958v-2.8H5z"/><g transform="translate(5 4)"><mask id="a" fill="#fff"><use/></mask><path d="M13.958 3.094v-1.24C13.958.833 13.11 0 12.077 0H1.88C.846 0 0 .834 0 1.853v1.24h13.958z" fill="#8CD8F9" mask="url(#a)"/><g transform="translate(0 11.036)"><mask id="b" fill="#fff"><use/></mask><path d="M0 .042v1.031c0 1.02.846 1.853 1.88 1.853h6.18v3.22l3.16-3.22h.857c1.034 0 1.88-.834 1.88-1.853V.042H0z" fill="#135099" mask="url(#b)"/></g><mask id="c" fill="#fff"><use/></mask><path fill="#2E6CB8" mask="url(#c)" d="M0 10.242h13.958V7.567H0z"/></g></g></svg>