<svg width="24" height="24" viewBox="0 0 24 24" xmlns="http://www.w3.org/2000/svg"><title>D68A5225-E770-465C-AEFF-CC7CF7ED9656</title><g fill="none" fill-rule="evenodd"><g transform="translate(0 .32)"><mask id="a" fill="#fff"><use/></mask><path d="M11.882.16C6.16.16 1.382 4.113.23 9.384l7.697 3.118a2.866 2.866 0 0 1 1.676-.455l2.5-3.554v-.05c0-2.097 1.74-3.803 3.881-3.803s3.882 1.706 3.882 3.804c0 2.097-1.74 3.805-3.882 3.805-.029 0-.058 0-.088-.002l-3.578 2.502c.01.387-.062.774-.218 1.143-.6 1.412-2.263 2.084-3.706 1.494a2.786 2.786 0 0 1-1.674-1.96L0 12.705C.452 18.751 5.597 23.52 11.882 23.52c6.583 0 11.919-5.23 11.919-11.68C23.8 5.39 18.465.16 11.882.16" fill="#171A21" mask="url(#a)"/></g><path d="M8.781 16.583l-1.263-.513c.223.458.611.841 1.125 1.05 1.114.455 2.395-.063 2.86-1.154.224-.527.225-1.11.003-1.639a2.146 2.146 0 0 0-1.18-1.162 2.218 2.218 0 0 0-1.613-.024l1.306.53a1.564 1.564 0 0 1 .867 2.062c-.341.804-1.283 1.185-2.105.85m5.266-7.823c0-1.051.87-1.904 1.942-1.904 1.073 0 1.943.853 1.943 1.904 0 1.052-.87 1.904-1.943 1.904s-1.942-.852-1.942-1.904m4.524.004c0-1.397-1.16-2.534-2.586-2.534s-2.586 1.137-2.586 2.534c0 1.398 1.16 2.535 2.586 2.535 1.425 0 2.586-1.137 2.586-2.535" fill="#171A21"/></g></svg>