<svg width="32" height="32" viewBox="0 0 32 32" xmlns="http://www.w3.org/2000/svg"><title>26EB4798-A447-40DB-8F73-438F3817274B</title><path d="M17.076 21.371a7.64 7.64 0 0 1-5.826-.727C7.524 18.528 6.2 13.76 8.293 9.993c2.093-3.767 6.811-5.105 10.538-2.99 3.727 2.116 5.05 6.885 2.958 10.652a7.786 7.786 0 0 1-1.904 2.272m-8.064-9.858a4.185 4.185 0 0 1 5.71-.013m-9.234 7.87L1 21.85m22.119-6.046h6.829l-.095 8.342H27.4l-2.289 2.366-2.883-2.366m-.207 0h-4.766v-8.342h2.021" stroke-width="2" stroke="#235F81" fill="none" stroke-linecap="round" stroke-linejoin="round"/></svg>