<svg width="24" height="24" viewBox="0 0 24 24" xmlns="http://www.w3.org/2000/svg"><title>98808BDA-2DDE-4997-997A-F0E7C89ED2D4</title><g fill="none" fill-rule="evenodd"><circle fill="#E2470C" cx="12" cy="12" r="12"/><g fill="#FFF"><path d="M17.092 11.834v2.438a.9.9 0 1 1-1.8 0v-2.391l-1.73.517-1.162-.542v2.372A3.803 3.803 0 0 0 16.2 18c2.099 0 3.8-1.704 3.8-3.805v-2.36h-2.908z"/><path d="M12.4 9.868l1.161.542 1.731-.517V8.69A3.798 3.798 0 0 0 11.5 5a3.799 3.799 0 0 0-3.792 3.667v5.497a.9.9 0 1 1-1.8 0v-2.33H3v2.36A3.803 3.803 0 0 0 6.8 18a3.8 3.8 0 0 0 3.796-3.75l.004-5.43a.9.9 0 1 1 1.8 0v1.048z"/></g></g></svg>