<svg width="24" height="24" viewBox="0 0 24 24" xmlns="http://www.w3.org/2000/svg"><title>25682A3B-9BB0-4D0A-95B5-A3E7C943820F</title><g fill="none" fill-rule="evenodd"><circle fill="#FFF" cx="12" cy="12" r="12"/><g fill="#000"><path d="M12.381 3c2.248 1.294 4.497 2.587 6.745 3.882.06.035.137.067.17.122.108.179.199.368.296.553-.179.074-.358.21-.538.21-3.144.014-6.288.01-9.432.01-.522 0-1.043-.004-1.565.001-.827.01-1.474.627-1.502 1.425-.027.775.604 1.468 1.422 1.507.675.032 1.353.004 2.03.011.945.01 1.39.754.954 1.6-.992 1.926-1.987 3.85-2.982 5.776-.282.545-.439.594-.958.294-.612-.353-1.214-.721-1.833-1.058-.519-.282-.967-.62-1.188-1.196V7.863c.296-.343.53-.792.9-1.012C7.093 5.538 9.32 4.278 11.533 3h.847z"/><path d="M11.534 21l-1.367-.781 2.194-4.246c.585-1.132 1.17-2.265 1.757-3.397.632-1.22 1.63-1.845 2.998-1.855.915-.007 1.83-.001 2.773-.001.016.135.039.242.039.349.002 1.535-.007 3.07.005 4.604.005.631-.246 1.102-.779 1.412-2.133 1.245-4.27 2.483-6.407 3.722-.12.069-.244.129-.366.193h-.847z"/></g></g></svg>