<svg width="21" height="23" viewBox="0 0 21 23" xmlns="http://www.w3.org/2000/svg"><title>Group 12 Copy</title><g fill="none" fill-rule="evenodd"><path d="M5.366 20.023s.632-.244 1.685.138 8.023 2.539 9.935.938c0 0 1.335-1.076 1.264-2.812 0 0 .983-.556.667-2.708 0 0 .983-1.632.387-2.986 0 0 1.4-3.193-1.089-4.478h-4.107c-.062 0 .668-2.15.717-2.372.163-.727.111-1.456-.09-2.173-.395-1.399-1.41-2.588-2.98-2.57-.405.005-.749.568-.843.871-.246.79-.27 1.606-.633 2.354-.356.73-.934 1.861-1.392 2.526-.83 1.2-1.737 2.816-3.275 3.203H5.33M19.086 12h-1.052m.886 3h-1.54m1.057 3h-1.713M1.527 20.338h3.277c.29 0 .527-.234.527-.52v-9.343a.525.525 0 0 0-.527-.52H1.527a.525.525 0 0 0-.527.52v9.342c0 .287.237.52.527.52z" stroke="#B3CFEB" stroke-width="1.5" stroke-linecap="round" stroke-linejoin="round"/><path d="M3.054 18.871a.73.73 0 0 1-.732-.724.73.73 0 0 1 .732-.724.73.73 0 0 1 .732.724.73.73 0 0 1-.732.724" fill="#B7D0EB"/></g></svg>