<svg width="32" height="32" viewBox="0 0 32 32" xmlns="http://www.w3.org/2000/svg"><title>F23F5EE5-2438-4BB5-9D22-6A157D73FBF5</title><g stroke-width="2" stroke="#235F81" fill="none" fill-rule="evenodd"><g transform="translate(6 2)"><path d="M20 9.462c0-1.36-.911-2.527-2.21-3.027a3 3 0 0 0 .161-.973c0-1.815-1.623-3.287-3.624-3.287-.372 0-.73.051-1.068.145C12.673 1.22 11.43.46 9.993.46c-1.42 0-2.649.741-3.244 1.82a3.958 3.958 0 0 0-1.17-.176c-2.001 0-3.624 1.471-3.624 3.286 0 .452.1.883.283 1.275C.958 7.172.064 8.329.064 9.677c0 1.214.727 2.273 1.806 2.842a3.007 3.007 0 0 0-.072.658c0 1.815 1.622 3.287 3.624 3.287.437 0 .855-.07 1.242-.198.556 1.167 1.837 1.984 3.329 1.984 1.5 0 2.787-.827 3.338-2.005.34.096.7.147 1.074.147 2.002 0 3.625-1.471 3.625-3.286 0-.235-.028-.463-.079-.683C19.164 11.89 20 10.765 20 9.463z"/><ellipse cx="10" cy="9.154" rx="4.118" ry="3.769"/></g><path stroke-linecap="round" stroke-linejoin="round" d="M22.423 18v10.646l-6.114-4.735L10 28.646v-6.688"/></g></svg>