<svg width="24" height="24" viewBox="0 0 24 24" xmlns="http://www.w3.org/2000/svg"><title>38FE034B-5DC7-4411-A112-1DE6E6491CC8</title><g fill="none" fill-rule="evenodd"><circle fill="#F88400" cx="12" cy="12" r="12"/><path d="M14.08 13.524c-.018.669-.325 1.222-.875 1.63-.99.736-2.09.878-3.23.382-1.578-.686-1.807-2.432-.488-3.527 1.062-.882 2.817-.883 3.872.004.468.394.711.895.721 1.511" fill="#FFF"/><g transform="translate(9.537 5.018)"><mask id="a" fill="#fff"><use/></mask><path d="M2.404 5.735c-.228 0-.463.012-.696-.008-.053-.005-.137-.117-.137-.18 0-.531.011-1.063.031-1.594.006-.15-.055-.212-.196-.26C.603 3.418.142 2.887.053 2.058c-.096-.9.585-1.8 1.526-1.982C2.791-.16 3.901.649 3.985 1.83c.056.785-.493 1.578-1.304 1.835-.225.072-.288.17-.282.386.016.547.005 1.095.005 1.684" fill="#FFF" mask="url(#a)"/></g><path d="M14.6 14.1c.018-.278.024-.513.059-.744.008-.052.118-.129.181-.129 1.202.008 2.404.027 3.606.041.346.005.693.014 1.038-.004.078-.004.18-.1.219-.178.354-.717.983-1.05 1.848-.965.623.062 1.192.578 1.363 1.238.25.966-.543 1.945-1.579 1.95-.823.004-1.375-.344-1.66-1.07-.066-.167-.165-.195-.328-.192-1.43.021-2.86.037-4.29.053-.143.002-.287 0-.458 0m-.078-1.563l-.448-.735c.068-.048.128-.098.195-.136 1.239-.703 2.473-1.411 3.72-2.1.272-.149.402-.295.378-.619-.04-.563.338-1.046.877-1.224a1.405 1.405 0 0 1 1.528.412c.41.49.407 1.148-.005 1.643a1.374 1.374 0 0 1-1.624.352c-.178-.084-.299-.077-.468.023-1.274.747-2.556 1.481-3.836 2.22-.1.056-.204.106-.317.164m-7.769 1.511c-.873 0-1.747.006-2.62-.004-.197-.002-.306.05-.406.222-.283.494-.888.794-1.414.714-.628-.095-1.073-.414-1.254-1.018-.215-.721.185-1.458.919-1.705.72-.244 1.52.078 1.814.76.09.209.202.265.422.26 1.192-.025 2.385-.032 3.577-.057.245-.005.335.055.322.306-.03.57-.017.571-.622.571h-.738v-.049m2.268-2.366l-.558.656c-.142-.1-.28-.194-.414-.293-.888-.656-1.777-1.311-2.66-1.972-.137-.102-.244-.128-.415-.05a1.038 1.038 0 0 1-1.38-.576.995.995 0 0 1 .708-1.3C4.888 8 5.532 8.34 5.576 8.9c.031.405.263.557.557.751.93.616 1.838 1.26 2.753 1.896.049.034.085.085.134.135" fill="#FFF"/><g transform="translate(4.557 14.935)"><mask id="b" fill="#fff"><use/></mask><path d="M3.882.052l.566.623c-.072.049-.125.092-.185.125-.36.203-.718.411-1.086.602-.333.173-.593.325-.582.789.013.538-.5.947-1.114 1.05-.485.08-1.07-.219-1.313-.671A1.202 1.202 0 0 1 .4 1.122C.806.734 1.418.619 1.902.905c.26.153.42.114.644-.035.43-.288.884-.544 1.336-.818" fill="#FFF" mask="url(#b)"/></g><path d="M13.325 15.722c.21-.186.371-.339.546-.476.042-.033.131-.033.19-.018.068.017.128.065.188.104.25.164.466.256.809.114.615-.254 1.3.176 1.46.842.141.594-.3 1.213-.94 1.318-.622.101-1.293-.39-1.31-1.01-.007-.285-.115-.425-.36-.537-.192-.088-.367-.211-.583-.337" fill="#FFF"/></g></svg>