<svg width="24" height="24" viewBox="0 0 24 24" xmlns="http://www.w3.org/2000/svg"><title>92ABE5F8-BBB1-4D96-B5EF-EB573A59B77C</title><g fill="none" fill-rule="evenodd"><circle fill="#51647A" cx="12" cy="12" r="12"/><path d="M12.61 7.94h3.852v2.446H12.61v3.997c0 .905.05 1.485.149 1.74.099.258.284.462.557.616.358.207.768.31 1.231.31.822 0 1.639-.258 2.452-.77v2.46c-.694.311-1.32.532-1.883.658a8.259 8.259 0 0 1-1.824.19c-.743 0-1.399-.09-1.969-.27a4.257 4.257 0 0 1-1.458-.77c-.403-.332-.683-.688-.838-1.062-.156-.375-.233-.919-.233-1.632v-5.467H7V8.18a4.846 4.846 0 0 0 1.64-.855c.453-.371.82-.817 1.093-1.339.275-.52.465-1.182.57-1.986h2.308v3.94z" fill="#FFF"/></g></svg>