<svg width="24" height="24" viewBox="0 0 24 24" xmlns="http://www.w3.org/2000/svg"><title>53FDE12B-AFBB-4F80-B08F-A927BF1DCF1C</title><g fill="none" fill-rule="evenodd"><circle fill="#24A9E6" cx="12" cy="12" r="12"/><path d="M18.312 7.207a5.588 5.588 0 0 1-1.785.684A2.795 2.795 0 0 0 14.477 7a2.816 2.816 0 0 0-2.807 2.823c0 .221.024.436.072.643a7.956 7.956 0 0 1-5.79-2.95 2.83 2.83 0 0 0-.38 1.42c0 .98.496 1.843 1.25 2.35a2.795 2.795 0 0 1-1.273-.353v.035a2.82 2.82 0 0 0 2.254 2.769 2.79 2.79 0 0 1-1.269.05 2.81 2.81 0 0 0 2.624 1.958A5.614 5.614 0 0 1 5 16.915a7.93 7.93 0 0 0 4.305 1.268c5.167 0 7.991-4.301 7.991-8.032 0-.123-.002-.245-.007-.366a5.701 5.701 0 0 0 1.4-1.461 5.586 5.586 0 0 1-1.612.444 2.828 2.828 0 0 0 1.235-1.561" fill="#FFF"/></g></svg>