<svg width="32" height="32" viewBox="0 0 32 32" xmlns="http://www.w3.org/2000/svg"><title>6FE8C5A4-998E-43D3-8251-127763172891</title><g fill="none" fill-rule="evenodd"><path d="M21 12h7m-6-7h6M18 19h10M4 26h24" stroke="#235F81" stroke-width="2" stroke-linecap="round" stroke-linejoin="round"/><path d="M18.559 4.259a6.276 6.276 0 0 1-2.086.856C15.875 4.43 15.022 4 14.077 4c-1.811 0-3.281 1.583-3.281 3.534 0 .277.028.546.084.805-2.728-.148-5.146-1.553-6.766-3.694a3.738 3.738 0 0 0-.445 1.779c0 1.225.58 2.307 1.461 2.941a3.104 3.104 0 0 1-1.488-.44v.043c0 1.713 1.132 3.142 2.635 3.465a3.051 3.051 0 0 1-1.483.062c.418 1.404 1.63 2.426 3.066 2.453-1.123.949-2.54 1.514-4.077 1.514A6.13 6.13 0 0 1 3 16.413 8.83 8.83 0 0 0 8.032 18c6.039 0 9.34-5.385 9.34-10.055 0-.154-.003-.308-.009-.458A6.95 6.95 0 0 0 19 5.657a6.206 6.206 0 0 1-1.885.557 3.51 3.51 0 0 0 1.444-1.955" fill="#235F81"/></g></svg>