<svg width="24" height="24" viewBox="0 0 24 24" xmlns="http://www.w3.org/2000/svg"><title>4CB5E3A4-F129-4DA4-9F49-DEA4EA267882</title><g fill="none" fill-rule="evenodd"><circle fill="#D2DE57" cx="12" cy="12" r="12"/><path d="M10.786 11.562c-.826.32-1.647.657-2.48.957-1.63.59-3.241 1.256-4.969 1.51-.602.088-.879-.065-1.081-.645-.577-1.646-.146-3.067.964-4.306C4.426 7.733 5.975 6.982 7.662 6.54c3.521-.92 6.955-.714 10.237 1.004a6.865 6.865 0 0 1 1.993 1.578c1.607 1.838 1.575 4.1-.098 5.878-1.258 1.338-2.839 2.087-4.56 2.519-3.131.785-6.216.634-9.222-.631-.365-.154-.688-.377-1.007-.608-.312-.227-.32-.492-.092-.78.319-.404.73-.7 1.143-.99 1.33-.935 2.74-1.728 4.164-2.497.205-.11.408-.222.612-.333l-.046-.118" fill="#FFF"/></g></svg>