<svg width="24" height="24" viewBox="0 0 24 24" xmlns="http://www.w3.org/2000/svg"><title>C988E9EA-A681-4562-8F98-A20A118C48CE</title><g fill="none" fill-rule="evenodd"><path d="M12 24c6.627 0 12-5.373 12-12S18.627 0 12 0 0 5.373 0 12s5.373 12 12 12z" fill="#FFF"/><path d="M8.5 6.394c.216-.19.451-.37.707-.54a5.073 5.073 0 0 1 1.798-.745A5.494 5.494 0 0 1 12.133 5a4.7 4.7 0 0 1 1.504.228c.452.151.84.368 1.162.65.322.28.572.62.75 1.019.176.398.265.844.265 1.337 0 .481-.07.897-.209 1.248-.14.35-.313.656-.522.915a3.95 3.95 0 0 1-.687.673l-.707.536a5.548 5.548 0 0 0-.574.494.974.974 0 0 0-.29.545l-.217 1.385h-1.603l-.162-1.546a1.256 1.256 0 0 1 .129-.783 2.38 2.38 0 0 1 .493-.616 6.5 6.5 0 0 1 .687-.541 6.26 6.26 0 0 0 .712-.57 2.99 2.99 0 0 0 .555-.691c.148-.257.223-.562.223-.916 0-.227-.043-.431-.128-.612a1.383 1.383 0 0 0-.356-.464 1.595 1.595 0 0 0-.546-.3 2.192 2.192 0 0 0-.687-.103c-.36 0-.666.04-.916.118-.25.08-.461.168-.635.266s-.32.186-.441.265a.606.606 0 0 1-.323.119.518.518 0 0 1-.493-.285l-.616-.977zm1.793 11.183a1.459 1.459 0 0 1 .408-1.015 1.45 1.45 0 0 1 .455-.303 1.43 1.43 0 0 1 .57-.114c.202 0 .39.038.564.114.174.076.326.177.455.303a1.419 1.419 0 0 1 .422 1.016 1.396 1.396 0 0 1-.422 1.014 1.44 1.44 0 0 1-1.02.408c-.202 0-.391-.036-.569-.11a1.373 1.373 0 0 1-.455-.298 1.385 1.385 0 0 1-.299-.45 1.448 1.448 0 0 1-.109-.565z" fill="#C6C6C5"/></g></svg>