<svg width="32" height="32" viewBox="0 0 32 32" xmlns="http://www.w3.org/2000/svg"><title>19399F40-32C6-4403-B641-CB739194869C</title><g stroke-width="2" stroke="#60A8D9" fill="none" fill-rule="evenodd" stroke-linecap="round" stroke-linejoin="round"><path d="M5.907 23.71A6.357 6.357 0 0 1 1 17.516c0-3.504 2.832-6.354 6.314-6.354.857 0 1.69.17 2.472.505a.288.288 0 0 0 .382-.156c1.381-3.347 4.6-5.51 8.2-5.51 4.795 0 8.69 3.775 8.87 8.595a.291.291 0 0 0 .226.274c2.05.462 3.536 2.33 3.536 4.444a4.54 4.54 0 0 1-3.73 4.486"/><path d="M19.875 18.346L23.443 21 26 17.851"/><path d="M23.375 19.222c0-3.436-2.742-6.222-6.125-6.222-2.036 0-3.84 1.01-4.954 2.563m2.874 6.227l-3.614-2.59-2.501 3.193"/><path d="M11.656 20.976c.06 3.436 2.85 6.173 6.232 6.114 2.036-.035 3.823-1.076 4.91-2.649"/></g></svg>