<svg width="32" height="32" viewBox="0 0 32 32" xmlns="http://www.w3.org/2000/svg"><title>0814DEFF-DF4C-4B25-966D-79CE1CFD245D</title><path d="M15.65 4.36c.27-.046.546-.067.826-.067 3.345 0 6.057 3.304 6.057 7.38 0 4.077-2.712 7.383-6.057 7.383-3.346 0-6.058-3.306-6.058-7.382 0-2.429.963-4.584 2.449-5.929 0 0 .959-1.072 2.784-1.385zm5.22 15.748c.843.992 2.044 1.13 3.114 1.693.566.3 1.14.605 1.604 1.045 1.102 1.049 1.085 2.906 1.38 4.29m-13.964-8.564c-.054 1.847-2.73 2.478-4.154 3.23-.567.298-1.142.604-1.605 1.044-1.1 1.049-1.085 2.906-1.381 4.29" stroke-width="2" stroke="#235F81" fill="none" stroke-linecap="round" stroke-linejoin="round"/></svg>