<svg width="24" height="24" viewBox="0 0 24 24" xmlns="http://www.w3.org/2000/svg"><title>57B5D93A-970C-4B6C-84ED-0AB694A0BDC7</title><path d="M11.431 3.22a3.33 3.33 0 0 1 .57-.048c2.313 0 4.188 2.336 4.188 5.219 0 2.883-1.875 5.22-4.187 5.22-2.313 0-4.188-2.337-4.188-5.22 0-1.717.666-3.241 1.693-4.192 0 0 .663-.758 1.924-.98zm3.609 11.135c.582.701 1.412.798 2.151 1.197.391.211.789.427 1.109.739.762.741.75 2.055.954 3.034m-9.653-6.056c-.037 1.306-1.886 1.752-2.87 2.283-.393.212-.79.428-1.11.739-.76.742-.75 2.055-.955 3.034" stroke-width="1.5" stroke="#235F81" fill="none" stroke-linecap="round" stroke-linejoin="round"/></svg>