<svg width="32" height="32" viewBox="0 0 32 32" xmlns="http://www.w3.org/2000/svg"><title>30C7DF67-AD47-4A65-B091-D6F59D976D13</title><g stroke-width="2" stroke="#235F81" fill="none" fill-rule="evenodd"><path d="M27.04 16.404c0-1.783-1.05-3.313-2.547-3.968a4.4 4.4 0 0 0 .187-1.276c0-2.38-1.87-4.309-4.176-4.309-.428 0-.84.067-1.23.19-.675-1.442-2.106-2.437-3.763-2.437-1.635 0-3.05.97-3.736 2.384a4.053 4.053 0 0 0-1.347-.23c-2.306 0-4.176 1.929-4.176 4.308 0 .593.116 1.157.326 1.671-1.474.665-2.504 2.182-2.504 3.948 0 1.592.837 2.98 2.08 3.727a4.464 4.464 0 0 0-.083.862c0 2.38 1.87 4.308 4.176 4.308.502 0 .984-.091 1.43-.26.641 1.53 2.116 2.602 3.834 2.602 1.729 0 3.212-1.083 3.846-2.628a4.06 4.06 0 0 0 1.238.193c2.306 0 4.176-1.929 4.176-4.308 0-.307-.032-.607-.091-.896 1.397-.697 2.36-2.173 2.36-3.88z"/><path stroke-linecap="round" stroke-linejoin="round" d="M11.454 16.702l2.458 3.545 5.674-6.894"/></g></svg>