<svg width="24" height="24" viewBox="0 0 24 24" xmlns="http://www.w3.org/2000/svg"><title>11117FDA-7597-4226-BB01-3F411C08D20A</title><g fill="none" fill-rule="evenodd"><circle fill="#1CB1E6" cx="12" cy="12" r="12"/><path d="M16.218 7.002c-1.826-.057-3.061.934-3.71 2.972.332-.136.657-.2.971-.2.668 0 .962.36.883 1.084-.04.439-.333 1.076-.883 1.915-.55.837-.962 1.255-1.236 1.255-.354 0-.677-.646-.972-1.94-.098-.382-.276-1.353-.528-2.916-.237-1.447-.866-2.124-1.886-2.028-.432.04-1.08.42-1.942 1.144-.63.551-1.268 1.104-1.915 1.655l.618.773c.59-.401.932-.6 1.03-.6.451 0 .873.685 1.267 2.057l1.06 3.772C9.506 17.316 10.154 18 10.918 18c1.237 0 2.75-1.124 4.536-3.372 1.725-2.15 2.62-3.845 2.677-5.085.08-1.655-.56-2.504-1.912-2.54" fill="#FFF"/></g></svg>