<svg width="24" height="24" viewBox="0 0 24 24" xmlns="http://www.w3.org/2000/svg"><title>CAA779A9-F054-4C1C-83B8-EC026E211131</title><g fill="none" fill-rule="evenodd"><circle fill="#4C75A3" cx="12" cy="12" r="12"/><path d="M11.318 17.933h1.016s.307-.034.463-.202c.145-.156.14-.447.14-.447s-.02-1.363.613-1.564c.624-.198 1.425 1.318 2.274 1.9.642.441 1.13.345 1.13.345l2.27-.032s1.188-.073.624-1.007c-.046-.076-.328-.69-1.688-1.953-1.423-1.321-1.232-1.107.482-3.393 1.045-1.392 1.462-2.241 1.332-2.605-.125-.347-.893-.256-.893-.256l-2.556.016s-.19-.026-.33.059c-.137.082-.226.274-.226.274s-.404 1.077-.944 1.993c-1.138 1.933-1.593 2.035-1.78 1.915-.432-.28-.324-1.124-.324-1.724 0-1.873.284-2.654-.553-2.856-.278-.067-.483-.111-1.193-.118-.912-.01-1.684.002-2.121.217-.291.142-.515.46-.379.477.17.023.552.104.755.38.262.356.252 1.156.252 1.156s.151 2.205-.351 2.48c-.345.187-.817-.196-1.832-1.95a16.312 16.312 0 0 1-.912-1.891s-.076-.186-.211-.285c-.164-.12-.393-.158-.393-.158l-2.429.015s-.364.01-.498.17c-.12.14-.01.432-.01.432s1.902 4.45 4.055 6.691c1.975 2.056 4.217 1.921 4.217 1.921" fill="#FFF"/></g></svg>