<svg width="24" height="24" viewBox="0 0 24 24" xmlns="http://www.w3.org/2000/svg"><title>7A204475-FD19-49EE-95F5-32E546CAB211</title><g fill="none" fill-rule="evenodd"><circle fill="#FFF" cx="12" cy="12" r="12"/><path d="M4.303 14.62c0 2.006 2.687 3.632 6 3.632 3.314 0 6.001-1.626 6.001-3.632 0-2.006-2.687-3.632-6-3.632-3.314 0-6 1.626-6 3.632" fill="#FFF"/><path d="M16.311 11.741c-.25-.073-.42-.12-.29-.44.283-.69.312-1.288.004-1.715-.574-.799-2.149-.756-3.954-.022 0 0-.567.24-.42-.195.276-.867.235-1.592-.196-2.013-.978-.953-3.582.036-5.814 2.206C3.97 11.185 3 12.909 3 14.399c0 2.847 3.758 4.58 7.433 4.58 4.82 0 8.025-2.721 8.025-4.882.003-1.307-1.13-2.049-2.147-2.356m-5.866 6.216c-2.934.283-5.467-1.008-5.658-2.878-.19-1.873 2.035-3.618 4.966-3.9 2.935-.284 5.468 1.007 5.656 2.878.193 1.873-2.032 3.62-4.964 3.9" fill="#E6162D"/><g transform="translate(14.492 5.003)"><mask id="a" fill="#fff"><use/></mask><path d="M5.02 1.526C3.856.271 2.14-.207.555.121a.66.66 0 0 0-.52.782.677.677 0 0 0 .804.507 3.391 3.391 0 0 1 3.173.998 3.173 3.173 0 0 1 .697 3.17.655.655 0 0 0 .438.83A.682.682 0 0 0 6 5.985v-.002a4.454 4.454 0 0 0-.98-4.457" fill="#F93" mask="url(#a)"/></g><path d="M17.725 8.098a2.318 2.318 0 0 0-2.174-.683.57.57 0 0 0-.45.676.583.583 0 0 0 .692.435c.377-.079.787.035 1.064.332.276.3.352.706.232 1.063a.567.567 0 0 0 .376.715.589.589 0 0 0 .736-.366c.243-.73.09-1.561-.476-2.172" fill="#F93"/><path d="M10.736 12.619c-1.396-.355-2.973.323-3.58 1.518-.618 1.22-.019 2.575 1.39 3.017 1.462.458 3.183-.245 3.782-1.56.592-1.288-.146-2.612-1.592-2.975M9.67 15.732c-.283.44-.892.633-1.35.43-.45-.2-.584-.71-.3-1.14.281-.428.868-.618 1.323-.433.46.193.606.699.327 1.143m.937-1.164a.428.428 0 0 1-.506.18c-.176-.069-.23-.261-.13-.428a.425.425 0 0 1 .494-.18c.176.062.24.254.142.428" fill="#000"/></g></svg>