<svg width="24" height="24" viewBox="0 0 24 24" xmlns="http://www.w3.org/2000/svg"><title>7BF10BE1-15A1-4FF6-8E88-355A86360EBE</title><g fill="none" fill-rule="evenodd"><circle fill="#2291C4" cx="12" cy="12" r="12"/><path d="M19.02 8.161c.036.256.055.529.055.824 0 .811-.152 1.724-.61 2.865l-2.441 7.064A7.993 7.993 0 0 0 20 12a7.967 7.967 0 0 0-.98-3.84zm-6.879 4.54l-2.4 6.974A7.955 7.955 0 0 0 12 20c.931 0 1.825-.16 2.657-.454a.666.666 0 0 1-.058-.11l-2.459-6.735zm5.26-1.105c0-.988-.356-1.674-.66-2.206-.405-.659-.785-1.216-.785-1.876 0-.735.557-1.42 1.344-1.42.034 0 .068.005.103.007A7.971 7.971 0 0 0 12 4a7.992 7.992 0 0 0-6.685 3.606c.19.006.365.01.515.01.837 0 2.132-.102 2.132-.102.43-.024.482.608.05.66 0 0-.433.05-.915.076l2.914 8.664 1.75-5.25-1.246-3.414c-.431-.026-.839-.076-.839-.076-.431-.026-.38-.684.051-.66 0 0 1.32.103 2.107.103.836 0 2.133-.103 2.133-.103.43-.024.48.608.05.66 0 0-.433.05-.915.076l2.891 8.598.799-2.665c.405-1.04.609-1.9.609-2.587zM4 12.001a7.997 7.997 0 0 0 4.509 7.198L4.693 8.745A7.953 7.953 0 0 0 4 12z" fill="#FFF"/></g></svg>