<svg width="24" height="24" viewBox="0 0 24 24" xmlns="http://www.w3.org/2000/svg"><title>67EFAB70-7AE1-43A7-AF8C-B350B4F233CA</title><g fill="none" fill-rule="evenodd"><circle fill="#FFF" cx="12" cy="12" r="12"/><path d="M6.308 7.278c-.147 0-.27.05-.332.147-.064.1-.054.23.014.36l1.645 2.753c.003.005.003.008 0 .013l-2.586 4.408c-.067.13-.064.26 0 .36.062.097.172.16.318.16h2.434c.364 0 .54-.236.664-.453l2.627-4.488-1.673-2.819c-.121-.208-.304-.44-.678-.44H6.308z" fill="#005A5F"/><g transform="translate(10.45 4.031)"><mask id="a" fill="#fff"><use/></mask><path d="M6.08.028c-.363 0-.52.221-.65.448L.013 9.752l3.458 6.129c.12.208.307.447.68.447h2.43c.147 0 .262-.053.324-.15.064-.1.063-.233-.005-.363L3.47 9.76a.013.013 0 0 1 0-.016L8.858.541c.067-.13.069-.263.005-.363-.062-.097-.177-.15-.324-.15H6.081z" fill="#D4D600" mask="url(#a)"/></g></g></svg>