<svg width="24" height="24" viewBox="0 0 24 24" xmlns="http://www.w3.org/2000/svg"><title>E2689481-ED7C-43AF-A410-A4DE02A66EF0</title><g fill="none" fill-rule="evenodd"><path d="M12 24c6.627 0 12-5.373 12-12S18.627 0 12 0 0 5.373 0 12s5.373 12 12 12z" fill="#B62629"/><path d="M18.992 16.601c-.1.67-1.51 2.41-2.157 2.66-.224.086-.438.065-.607-.063-.11-.083-.226-.252-1.746-2.646l-.451-.713c-.173-.256-.14-.593.076-.85.21-.25.52-.343.79-.242.015.008 1.138.367 1.138.367 2.558.815 2.641.846 2.75.925.166.128.24.329.207.562zm-5.125-3.64c-.18-.269-.179-.583.007-.801l.712-.939c1.557-2.065 1.64-2.172 1.752-2.244.18-.118.4-.125.617-.022.618.292 1.869 2.094 1.944 2.785v.025c.014.235-.074.426-.25.542-.114.073-.226.11-3.135.792-.466.108-.724.169-.868.22a.164.164 0 0 0 .016-.023c-.29.079-.608-.057-.795-.335zm-1.786-1.07c-.138.043-.562.17-1.083-.648 0 0-3.515-5.365-3.598-5.53-.05-.186.012-.397.181-.568.526-.526 3.363-1.298 4.106-1.119.243.06.41.208.469.417.041.231.387 5.21.438 6.327.047.954-.374 1.08-.513 1.122zm.464 5.457c-.008 2.61-.013 2.695-.058 2.82-.074.195-.247.324-.485.366-.684.114-2.828-.652-3.275-1.167a.616.616 0 0 1-.156-.339.505.505 0 0 1 .031-.24c.047-.13.127-.23 2.056-2.426l.562-.647c.192-.232.535-.306.853-.187.309.116.497.373.479.655l-.007 1.165zm-5.833-1.67a.603.603 0 0 1-.51-.333c-.08-.148-.135-.395-.17-.693-.095-.9.023-2.256.3-2.687.13-.199.32-.303.53-.295.14.002.264.046 3.015 1.147l.805.317c.289.105.468.397.45.73-.02.323-.212.575-.495.646l-1.144.355c-2.56.797-2.645.82-2.78.814z" fill="#FFF"/></g></svg>